<?xml version="1.0" encoding="utf-8"?>
<!-- Generator: Adobe Illustrator 24.0.0, SVG Export Plug-In . SVG Version: 6.00 Build 0)  -->
<svg version="1.1" id="Layer_1" xmlns="http://www.w3.org/2000/svg" xmlns:xlink="http://www.w3.org/1999/xlink" x="0px" y="0px"
	 viewBox="0 0 51 41" style="enable-background:new 0 0 51 41;" xml:space="preserve">
<style type="text/css">
	.st0{fill-rule:evenodd;clip-rule:evenodd;fill:#3478F7;}
</style>
<path class="st0" d="M48.72,26.06c-1.24-0.01-2.26,0.98-2.28,2.23v8.26H4.55v-8.26c-0.04-1.26-1.09-2.25-2.34-2.21
	C1,26.11,0.04,27.08,0,28.28v10.49c0.01,1.24,1.03,2.24,2.28,2.23c0,0,0,0,0,0h46.45c1.24,0.01,2.26-0.98,2.28-2.23c0,0,0,0,0,0
	V28.28C50.99,27.04,49.97,26.04,48.72,26.06C48.72,26.06,48.72,26.06,48.72,26.06z M23.89,30.78c0.9,0.87,2.32,0.87,3.22,0l7-6.85
	c0.87-0.84,0.89-2.23,0.05-3.1c-0.02-0.02-0.03-0.03-0.05-0.05c-0.9-0.87-2.32-0.87-3.22,0l-3.12,3.05V2.22
	c-0.04-1.26-1.09-2.25-2.34-2.21c-1.21,0.04-2.17,1-2.21,2.21v21.6l-3.12-3.05c-0.9-0.87-2.32-0.87-3.22,0
	c-0.87,0.84-0.89,2.23-0.05,3.1c0.02,0.02,0.03,0.03,0.05,0.05L23.89,30.78z"/>
</svg>
