<svg xmlns="http://www.w3.org/2000/svg" width="24" height="19" viewBox="0 0 24 19">
  <defs>
    <style>
      .cls-1 {
        fill: #747474;
        fill-rule: evenodd;
      }
    </style>
  </defs>
  <path class="cls-1" d="M158.053,203.626a1.1,1.1,0,0,0-1.515,0l-1.467,1.413V195.032a1.072,1.072,0,0,0-2.142,0v10.007l-1.467-1.413a1.1,1.1,0,0,0-1.515,0,1,1,0,0,0,0,1.46l3.295,3.176a1.1,1.1,0,0,0,1.516,0l3.295-3.176A1,1,0,0,0,158.053,203.626ZM164.929,213H143.071A1.053,1.053,0,0,1,142,211.967v-4.86a1.072,1.072,0,0,1,2.143,0v3.828h19.714v-3.828a1.072,1.072,0,0,1,2.143,0v4.86A1.053,1.053,0,0,1,164.929,213Z" transform="translate(-142 -194)"/>
</svg>
