<svg xmlns="http://www.w3.org/2000/svg" width="20.313" height="13.156" viewBox="0 0 20.313 13.156">
  <defs>
    <style>
      .cls-1 {
        fill: #3478f7;
        fill-rule: evenodd;
      }
    </style>
  </defs>
  <path id="Shape_10_copy_8" data-name="Shape 10 copy 8" class="cls-1" d="M951.673,313.782h-17.01a1.634,1.634,0,0,1-1.65-1.619v-9.929a1.634,1.634,0,0,1,1.65-1.619h17.01a1.634,1.634,0,0,1,1.65,1.619v9.929A1.634,1.634,0,0,1,951.673,313.782ZM935.408,302.1a0.875,0.875,0,0,0-.883.866v8.467a0.875,0.875,0,0,0,.883.866h15.52a0.875,0.875,0,0,0,.883-0.866v-8.467a0.875,0.875,0,0,0-.883-0.866h-15.52Zm13.725,3.66H937.2a0.742,0.742,0,1,1,0-1.484h11.93A0.742,0.742,0,1,1,949.133,305.759Z" transform="translate(-933 -300.625)"/>
</svg>
