<svg xmlns="http://www.w3.org/2000/svg" width="20.313" height="13.156" viewBox="0 0 20.313 13.156">
  <defs>
    <style>
      .cls-1 {
        fill: #a4a4a4;
        fill-rule: evenodd;
      }
    </style>
  </defs>
  <path id="Shape_10_copy_9" data-name="Shape 10 copy 9" class="cls-1" d="M951.673,686.782h-17.01a1.634,1.634,0,0,1-1.65-1.619v-9.929a1.634,1.634,0,0,1,1.65-1.619h17.01a1.634,1.634,0,0,1,1.65,1.619v9.929A1.634,1.634,0,0,1,951.673,686.782ZM935.408,675.1a0.875,0.875,0,0,0-.883.866v8.466a0.875,0.875,0,0,0,.883.867h15.52a0.875,0.875,0,0,0,.883-0.867v-8.466a0.875,0.875,0,0,0-.883-0.866h-15.52Zm13.725,3.66H937.2a0.742,0.742,0,1,1,0-1.484h11.93A0.742,0.742,0,1,1,949.133,678.759Z" transform="translate(-933 -673.625)"/>
</svg>
