<svg xmlns="http://www.w3.org/2000/svg" width="10.97" height="6" viewBox="0 0 10.97 6">
  <defs>
    <style>
      .cls-1 {
        fill: #999;
        fill-rule: evenodd;
      }
    </style>
  </defs>
  <path id="Shape_2_copy" data-name="Shape 2 copy" class="cls-1" d="M1435.04,976.928l0.99-.9a0.143,0.143,0,0,1,.19,0l4.18,3.788a0.145,0.145,0,0,0,.19,0l4.17-3.788a0.143,0.143,0,0,1,.19,0l0.99,0.9a0.1,0.1,0,0,1,0,.172l-5.35,4.857a0.143,0.143,0,0,1-.19,0l-5.36-4.857A0.117,0.117,0,0,1,1435.04,976.928Z" transform="translate(-1435.03 -976)"/>
</svg>
