<svg xmlns="http://www.w3.org/2000/svg" width="72.937" height="41" viewBox="0 0 72.937 41">
  <defs>
    <style>
      .cls-1 {
        fill: #7c7c7c;
        fill-rule: evenodd;
      }
    </style>
  </defs>
  <path class="cls-1" d="M419,1837.06l-11.838-11.85a16.641,16.641,0,1,0-27.905-16.34l1.27,0.38a15.32,15.32,0,1,1,14.673,19.74,15.252,15.252,0,0,1-7.954-2.23l-0.688,1.14a16.562,16.562,0,0,0,19.642-1.78L418.064,1838Zm-63.373-23.31a0.679,0.679,0,0,0-.937,0l-3.748,3.76-3.748-3.76a0.679,0.679,0,0,0-.937,0,0.666,0.666,0,0,0,0,.94l3.748,3.75-3.748,3.76a0.654,0.654,0,0,0,0,.93,0.649,0.649,0,0,0,.937,0l3.748-3.75,3.748,3.75a0.649,0.649,0,0,0,.937,0,0.655,0.655,0,0,0,0-.93l-3.748-3.76,3.748-3.75A0.668,0.668,0,0,0,355.628,1813.75Zm15.062,0a0.679,0.679,0,0,0-.937,0l-3.748,3.76-3.748-3.76a0.679,0.679,0,0,0-.937,0,0.666,0.666,0,0,0,0,.94l3.748,3.75-3.748,3.76a0.654,0.654,0,0,0,0,.93,0.649,0.649,0,0,0,.937,0l3.748-3.75,3.748,3.75a0.649,0.649,0,0,0,.937,0,0.654,0.654,0,0,0,0-.93l-3.748-3.76,3.748-3.75A0.666,0.666,0,0,0,370.69,1813.75Zm15.062,0a0.678,0.678,0,0,0-.936,0l-3.749,3.76-3.748-3.76a0.679,0.679,0,0,0-.937,0,0.666,0.666,0,0,0,0,.94l3.748,3.75-3.748,3.76a0.654,0.654,0,0,0,0,.93,0.649,0.649,0,0,0,.937,0l3.748-3.75,3.749,3.75a0.648,0.648,0,0,0,.936,0,0.654,0.654,0,0,0,0-.93L382,1818.44l3.748-3.75A0.666,0.666,0,0,0,385.752,1813.75Zm5.692,9.38a0.649,0.649,0,0,0,.937,0l3.748-3.75,3.749,3.75a0.66,0.66,0,0,0,.937-0.93l-3.749-3.76,3.749-3.75a0.668,0.668,0,0,0,0-.94,0.679,0.679,0,0,0-.937,0l-3.749,3.76-3.748-3.76a0.679,0.679,0,0,0-.937,0,0.666,0.666,0,0,0,0,.94l3.748,3.75-3.748,3.76A0.654,0.654,0,0,0,391.444,1823.13Z" transform="translate(-346.063 -1797)"/>
</svg>
