<svg xmlns="http://www.w3.org/2000/svg" width="42" height="52" viewBox="0 0 42 52">
  <defs>
    <style>
      .cls-1 {
        fill: #7e7e7e;
        fill-rule: evenodd;
      }
    </style>
  </defs>
  <path class="cls-1" d="M141.8,876.978a16.1,16.1,0,1,0-32.195-.055,15.946,15.946,0,0,0,.144,2.087L104,881.9V912.8l14-7.025,14,7.025,14-7.025V874.87Zm-24.5,27.748L105.4,910.7V882.6l4.567-2.294a16.068,16.068,0,0,0,2.5,5.8l4.832,6.675v11.949Zm14,6.324-12.6-6.324V894.712l7,9.671,5.6-7.679V911.05ZM125.7,902l-11.961-16.537A14.7,14.7,0,0,1,125.7,862.219v0.008a14.8,14.8,0,0,1,11.961,23.379Zm18.9,3.073-11.9,5.973V894.79l6.231-8.546a16.164,16.164,0,0,0,2.808-7.84l2.86-1.426v28.1h0Zm-18.9-36.531a8.432,8.432,0,1,0,8.4,8.432,8.415,8.415,0,0,0-8.4-8.432h0Zm0,15.468a7.037,7.037,0,1,1,7.012-7.036,7.025,7.025,0,0,1-7.012,7.036h0Zm0,0" transform="translate(-104 -860.813)"/>
</svg>
