<svg xmlns="http://www.w3.org/2000/svg" width="56" height="36" viewBox="0 0 56 36">
  <defs>
    <style>
      .cls-1 {
        fill: #7c7c7c;
        fill-rule: evenodd;
      }
    </style>
  </defs>
  <path class="cls-1" d="M299.655,954H250.344A3.348,3.348,0,0,0,247,957.344v29.312A3.348,3.348,0,0,0,250.344,990h49.311A3.348,3.348,0,0,0,303,986.656V957.344A3.348,3.348,0,0,0,299.655,954Zm-16.338,17.935,17.988-15.384a1.822,1.822,0,0,1,.187.793v29.312a1.817,1.817,0,0,1-.184.786Zm16.338-16.427a1.828,1.828,0,0,1,.47.068l-23.5,20.1a2.48,2.48,0,0,1-3.24,0l-23.5-20.1a1.82,1.82,0,0,1,.469-0.068h49.311Zm-50.963,31.934a1.82,1.82,0,0,1-.184-0.786V957.344a1.814,1.814,0,0,1,.187-0.792l17.988,15.383Zm1.652,1.05a1.8,1.8,0,0,1-.478-0.071l17.976-15.5,4.557,3.9a3.982,3.982,0,0,0,5.2,0l4.557-3.9,17.976,15.5a1.807,1.807,0,0,1-.479.071H250.344Z" transform="translate(-247 -954)"/>
</svg>
