<svg xmlns="http://www.w3.org/2000/svg" width="55" height="55" viewBox="0 0 55 55">
  <defs>
    <style>
      .cls-1 {
        fill: #7c7c7c;
        fill-rule: evenodd;
      }
    </style>
  </defs>
  <path class="cls-1" d="M176.5,1960a27.5,27.5,0,1,0,27.5,27.5A27.533,27.533,0,0,0,176.5,1960Zm0,53.51a26.01,26.01,0,1,1,26.012-26.01A26.041,26.041,0,0,1,176.5,2013.51Zm1.272-27.24c-2.721-1.04-4.8-2.03-4.8-4.52,0-2.23,1.854-3.79,4.509-3.79a9.565,9.565,0,0,1,4.361,1.04l0.62-1.81a11.294,11.294,0,0,0-4.868-1.08v-3.36h-2.182v3.59c-3.117.7-5.152,2.93-5.152,5.89,0,2.59,1.909,4.58,5.681,5.93,2.909,1.07,4.713,2.26,4.713,4.85,0,1.88-1.343,4.08-5.128,4.08a11.464,11.464,0,0,1-5.168-1.36l-0.63,1.93a13.017,13.017,0,0,0,5.684,1.23v3.36h2.182v-3.54h0c3.637-.61,5.82-2.82,5.82-6.08C183.411,1989.64,181.778,1987.79,177.772,1986.27Z" transform="translate(-149 -1960)"/>
</svg>
