<svg xmlns="http://www.w3.org/2000/svg" width="33.75" height="47" viewBox="0 0 33.75 47">
  <defs>
    <style>
      .cls-1 {
        fill: #7e7e7e;
        fill-rule: evenodd;
      }
    </style>
  </defs>
  <path class="cls-1" d="M137.023,581.8H110.971a4.161,4.161,0,0,1-2.861-1.372,3.8,3.8,0,0,1-.956-3.038l1.6-11.4c0.6-4.238,4.607-7.433,9.325-7.433H129.91c4.719,0,8.728,3.2,9.325,7.433l1.6,11.378a3.8,3.8,0,0,1-.955,3.045A4.228,4.228,0,0,1,137.023,581.8Zm-18.94-21.729c-3.971,0-7.337,2.637-7.83,6.132l-1.6,11.4a2.316,2.316,0,0,0,.539,1.769,2.721,2.721,0,0,0,1.783.916h26.052a2.741,2.741,0,0,0,1.784-.931,2.314,2.314,0,0,0,.538-1.778l-1.6-11.374c-0.492-3.5-3.858-6.132-7.83-6.132H118.083ZM124,554.8a9.989,9.989,0,1,1,9.965-9.989A9.988,9.988,0,0,1,124,554.8Zm0-18.463a8.475,8.475,0,1,0,8.455,8.474A8.473,8.473,0,0,0,124,536.333Z" transform="translate(-107.125 -534.813)"/>
</svg>
