<svg xmlns="http://www.w3.org/2000/svg" width="51" height="51" viewBox="0 0 51 51">
  <defs>
    <style>
      .cls-1 {
        fill: #7e7e7e;
        fill-rule: evenodd;
      }
    </style>
  </defs>
  <path class="cls-1" d="M124.455,2150.96a22.375,22.375,0,1,1-.008-44.75H125.2l0.008,21.63h21.707v0.75A22.435,22.435,0,0,1,124.455,2150.96Zm-0.756-43.24a20.883,20.883,0,1,0,21.7,21.62H123.706Zm29.3,15.56-23.2-.21,0.064-23.11h0.749a22.449,22.449,0,0,1,22.4,22.37Zm-21.7-1.69,20.2,0.19a20.951,20.951,0,0,0-20.143-20.31Z" transform="translate(-102 -2099.97)"/>
</svg>
