<svg xmlns="http://www.w3.org/2000/svg" width="46.25" height="46.032" viewBox="0 0 46.25 46.032">
  <defs>
    <style>
      .cls-1 {
        fill: #7c7c7c;
        fill-rule: evenodd;
      }
    </style>
  </defs>
  <path class="cls-1" d="M137.738,745.81c-6.18,0-14.446-4.712-23.274-13.267-9.813-10.023-14.473-19.056-13.136-25.45a9.432,9.432,0,0,1,6.083-6.912,4.584,4.584,0,0,1,1.758-.388c1.4,0,2.592.75,4.105,2.59,0.014,0.018.061,0.08,0.073,0.1l5.194,7.562a0.761,0.761,0,0,1,.051.087c0.89,1.769.443,3.746-1.227,5.426-2.172,2.8-1.595,3.88.365,5.83l7.921,7.881c1.23,1.224,2.068,1.724,2.891,1.724a5.581,5.581,0,0,0,3.049-1.43,4.629,4.629,0,0,1,5.359-1.16c0.015,0.007.107,0.06,0.121,0.069l7.619,5.186c2.191,1.778,3.308,3.362,2.274,5.878A9.4,9.4,0,0,1,137.738,745.81Zm-28.569-44.531a3.164,3.164,0,0,0-1.192.277,8.011,8.011,0,0,0-5.186,5.84c-1.233,5.9,3.288,14.452,12.73,24.1,8.534,8.27,16.428,12.832,22.217,12.832a8,8,0,0,0,7.843-5.353c0.569-1.386.447-2.31-1.786-4.126l-7.523-5.12c-1.144-.566-2.5-0.228-3.7.953a6.914,6.914,0,0,1-4.032,1.8c-1.263,0-2.407-.625-3.948-2.158l-7.921-7.881c-2.393-2.381-3.17-4.338-.43-7.86,0.906-.919,1.757-2.245,1.034-3.739l-5.163-7.518C110.923,701.872,110.069,701.279,109.169,701.279Z" transform="translate(-101.094 -699.781)"/>
</svg>
