<svg xmlns="http://www.w3.org/2000/svg" width="96.031" height="61" viewBox="0 0 96.031 61">
  <defs>
    <style>
      .cls-1 {
        fill: #fff;
        fill-rule: evenodd;
      }
    </style>
  </defs>
  <path class="cls-1" d="M285.086,161.122l-6.5-6.482-36.1,35.987L249,197.1a13.377,13.377,0,0,0,18.876,0l17.21-17.158A13.278,13.278,0,0,0,285.086,161.122ZM233.062,143.9a13.376,13.376,0,0,0-18.876,0l-17.279,17.226a13.278,13.278,0,0,0,0,18.818l6.453,6.433,36.159-36.049Zm44.041,9.268-9.3-9.267a13.376,13.376,0,0,0-18.876,0l-44.09,43.954,9.277,9.249a13.377,13.377,0,0,0,18.876,0Z" transform="translate(-193 -140)"/>
</svg>
