<svg xmlns="http://www.w3.org/2000/svg" width="44.594" height="43.781" viewBox="0 0 44.594 43.781">
  <defs>
    <style>
      .cls-1 {
        fill: #fff;
        fill-rule: evenodd;
      }
    </style>
  </defs>
  <path class="cls-1" d="M736.348,249.1l18.865-18.527a1.953,1.953,0,0,0,0-2.8,2.041,2.041,0,0,0-2.848,0L733.5,246.3l-18.864-18.527a2.042,2.042,0,0,0-2.849,0,1.953,1.953,0,0,0,0,2.8L730.652,249.1l-18.865,18.527a1.952,1.952,0,0,0,0,2.8,2.039,2.039,0,0,0,2.849,0L733.5,251.894l18.865,18.527a2.038,2.038,0,0,0,2.848,0,1.952,1.952,0,0,0,0-2.8Z" transform="translate(-711.219 -227.219)"/>
</svg>
