<svg xmlns="http://www.w3.org/2000/svg" width="65" height="50" viewBox="0 0 65 50">
  <defs>
    <style>
      .cls-1 {
        fill: #3478f7;
        fill-rule: evenodd;
      }
    </style>
  </defs>
  <path id="Shape_4_copy_7" data-name="Shape 4 copy 7" class="cls-1" d="M861.532,1621H826.785a1.841,1.841,0,0,1-1.746-1.24l-8.6-24.61c-0.007-.02-0.014-0.04-0.02-0.06l-2.574-7.37h-8.978a1.86,1.86,0,0,1,0-3.72h10.289a1.852,1.852,0,0,1,1.747,1.25l2.6,7.44,46.73,1.96a1.834,1.834,0,0,1,1.381.71,1.866,1.866,0,0,1,.355,1.52l-4.623,22.64A1.853,1.853,0,0,1,861.532,1621Zm-33.436-3.72h31.926l3.882-19.01-43.081-1.8Zm5.526,12.38a4.311,4.311,0,1,1-4.311-4.33A4.321,4.321,0,0,1,833.622,1629.66Zm30.754,0a4.311,4.311,0,1,1-4.311-4.33A4.321,4.321,0,0,1,864.376,1629.66Z" transform="translate(-803 -1584)"/>
</svg>
