<svg xmlns="http://www.w3.org/2000/svg" width="50" height="53" viewBox="0 0 50 53">
  <defs>
    <style>
      .cls-1 {
        fill: #e74c3c;
        fill-rule: evenodd;
      }
    </style>
  </defs>
  <path class="cls-1" d="M650.217,1701.78a1.284,1.284,0,0,0-1.28,1.28v32.58a3.8,3.8,0,0,1-3.8,3.8H622.86a3.8,3.8,0,0,1-3.8-3.8v-32.58a1.279,1.279,0,1,0-2.558,0v32.58a6.363,6.363,0,0,0,6.356,6.36h22.279a6.363,6.363,0,0,0,6.357-6.36v-32.58A1.284,1.284,0,0,0,650.217,1701.78Zm7.5-5.97H642.147v-1.97A4.846,4.846,0,0,0,637.3,1689H630.7a4.846,4.846,0,0,0-4.843,4.84v1.97H610.279a1.28,1.28,0,0,0,0,2.56h47.442A1.28,1.28,0,0,0,657.721,1695.81Zm-29.31-1.97a2.283,2.283,0,0,1,2.285-2.28H637.3a2.283,2.283,0,0,1,2.285,2.28v1.97H628.411v-1.97Zm13.736,38.23v-24.49a1.279,1.279,0,1,0-2.558,0v24.49A1.279,1.279,0,1,0,642.147,1732.07Zm-13.736,0v-24.49a1.279,1.279,0,1,0-2.558,0v24.49A1.279,1.279,0,1,0,628.411,1732.07Z" transform="translate(-609 -1689)"/>
</svg>
