<?xml version="1.0" encoding="utf-8"?>
<!-- Generator: Adobe Illustrator 23.0.0, SVG Export Plug-In . SVG Version: 6.00 Build 0)  -->
<svg version="1.0" id="Layer_1" xmlns="http://www.w3.org/2000/svg" xmlns:xlink="http://www.w3.org/1999/xlink" x="0px" y="0px"
	 viewBox="0 0 140 52.52" style="enable-background:new 0 0 140 52.52;" xml:space="preserve">
<style type="text/css">
	.st0{fill:#FFFFFF;}
	.st1{fill:#0084CB;}
</style>
<g>
	<g>
		<path class="st0" d="M47.25,10.48C42.46,4.12,34.84,0,26.26,0C11.76,0,0,11.76,0,26.26c0,14.5,11.76,26.26,26.26,26.26
			c8.43,0,15.94-3.98,20.74-10.16c3.46-4.45,5.52-10.04,5.52-16.1C52.52,20.34,50.56,14.88,47.25,10.48z"/>
	</g>
	<g>
		<path class="st1" d="M26.09,43.85c-0.81,0.81-2.13,0.81-2.95,0l-13.1-13.1c-0.72-0.72-0.72-1.9,0-2.62l1.83-1.83
			c0.72-0.72,1.9-0.72,2.62,0l10.07,10.07L43.7,17.22c0.19-0.19,0.45-0.28,0.7-0.27c-0.52-1-1.13-1.96-1.8-2.86
			c-3.73-4.95-9.66-8.16-16.34-8.16c-11.29,0-20.43,9.15-20.43,20.43S14.97,46.8,26.26,46.8c6.56,0,12.4-3.09,16.14-7.9
			c2.69-3.46,4.29-7.81,4.29-12.53c0-0.99-0.07-1.96-0.21-2.92L26.09,43.85z"/>
	</g>
	<g>
		<path class="st1" d="M135.06,10.48H47.25c3.31,4.39,5.27,9.85,5.27,15.78c0,6.07-2.06,11.66-5.52,16.1h88.06
			c2.73,0,4.94-2.21,4.94-4.94V15.42C140,12.7,137.79,10.48,135.06,10.48z"/>
	</g>
	<g>
		<path class="st0" d="M59.02,21.39h-0.63v-1.35h0.63v-4.6h3.05c1.92,0,2.88,0.87,2.88,2.61v5.33c0,1.74-0.96,2.6-2.88,2.6h-3.05
			V21.39z M60.95,16.95v3.09h1.19v1.35h-1.19v3.09h1.09c0.66,0,0.98-0.34,0.98-1.02v-5.49c0-0.68-0.33-1.02-0.98-1.02H60.95z"/>
		<path class="st0" d="M72.41,25.98h-1.94l-0.33-1.91h-2.36l-0.33,1.91h-1.77l1.96-10.54h2.83L72.41,25.98z M71.64,13.86
			c-0.27,0.42-0.55,0.71-0.81,0.87c-0.23,0.14-0.51,0.21-0.85,0.21c-0.29,0-0.62-0.07-0.99-0.21l-0.41-0.14
			c-0.15-0.04-0.28-0.07-0.4-0.07c-0.32,0-0.58,0.17-0.77,0.5l-0.98-0.63c0.27-0.42,0.55-0.71,0.81-0.87
			c0.23-0.13,0.51-0.2,0.86-0.2c0.28,0,0.61,0.07,0.99,0.2l0.41,0.14c0.15,0.04,0.28,0.07,0.4,0.07c0.32,0,0.58-0.17,0.77-0.5
			L71.64,13.86z M68.01,22.64h1.87l-0.93-5.33L68.01,22.64z"/>
		<path class="st0" d="M75.49,15.44h5.96v1.51h-2.01v9.04h-1.93v-9.04h-2.02V15.44z"/>
		<path class="st0" d="M84.25,25.98h-1.93V15.44h1.93v4.52h2.19v-4.52h1.97v10.54h-1.97v-4.51h-2.19V25.98z"/>
		<path class="st0" d="M89.65,17.97c0-1.76,0.98-2.65,2.93-2.65c1.95,0,2.93,0.88,2.93,2.65v5.49c0,1.76-0.98,2.65-2.93,2.65
			c-1.95,0-2.93-0.88-2.93-2.65V17.97z M90.02,14.93l1.63-1.76h1.85l1.63,1.76h-1.74l-0.82-0.88l-0.8,0.88H90.02z M91.58,23.56
			c0,0.7,0.33,1.04,1,1.04c0.67,0,1-0.35,1-1.04v-5.69c0-0.69-0.33-1.04-1-1.04c-0.67,0-1,0.35-1,1.04V23.56z"/>
		<path class="st0" d="M98.47,18.35v7.63h-1.74V15.44h2.42l1.98,6.32v-6.32h1.72v10.54h-1.99L98.47,18.35z"/>
		<path class="st0" d="M107.13,20.11h2.71v3.35c0,1.76-0.96,2.65-2.88,2.65c-1.92,0-2.88-0.88-2.88-2.65v-5.49
			c0-1.76,0.96-2.65,2.88-2.65c1.92,0,2.88,0.88,2.88,2.65V19h-1.82v-1.13c0-0.69-0.33-1.04-1-1.04c-0.67,0-1,0.35-1,1.04v5.69
			c0,0.69,0.33,1.03,1,1.03c0.67,0,1-0.34,1-1.03v-1.94h-0.88V20.11z"/>
		<path class="st0" d="M116.69,15.44c1.91,0,2.86,0.81,2.86,2.43v0.37c0,1.08-0.42,1.79-1.25,2.13c0.96,0.32,1.44,1.08,1.44,2.26
			v0.86c0,1.67-0.98,2.5-2.93,2.5h-3.03V15.44H116.69z M115.71,16.95v2.79h0.75c0.78,0,1.16-0.37,1.16-1.11v-0.59
			c0-0.73-0.33-1.09-0.98-1.09H115.71z M115.71,21.24v3.24h1.1c0.67,0,1-0.35,1-1.04v-0.92c0-0.85-0.41-1.28-1.24-1.28H115.71z"/>
		<path class="st0" d="M127.14,25.98h-1.94l-0.33-1.91h-2.36l-0.33,1.91h-1.77l1.96-10.54h2.83L127.14,25.98z M122.74,22.64h1.87
			l-0.93-5.33L122.74,22.64z M126.1,13.17l-1.9,1.76h-1.36l1.26-1.76H126.1z"/>
		<path class="st0" d="M127.88,17.97c0-1.76,0.98-2.65,2.93-2.65c1.95,0,2.93,0.88,2.93,2.65v5.49c0,1.76-0.98,2.65-2.93,2.65
			c-1.95,0-2.93-0.88-2.93-2.65V17.97z M129.8,23.56c0,0.7,0.33,1.04,1,1.04c0.67,0,1-0.35,1-1.04v-5.69c0-0.69-0.33-1.04-1-1.04
			c-0.67,0-1,0.35-1,1.04V23.56z"/>
	</g>
	<g>
		<path class="st0" d="M59.05,39.27v-6.44h2.06c0.69,0,1.2,0.14,1.55,0.43s0.52,0.72,0.52,1.28c0,0.3-0.08,0.57-0.25,0.8
			c-0.17,0.23-0.4,0.41-0.69,0.54c0.34,0.1,0.61,0.28,0.81,0.56c0.2,0.27,0.3,0.6,0.3,0.98c0,0.58-0.18,1.03-0.55,1.36
			c-0.37,0.33-0.89,0.5-1.56,0.5H59.05z M59.89,35.58h1.26c0.36,0,0.66-0.09,0.87-0.28c0.22-0.19,0.33-0.44,0.33-0.76
			c0-0.35-0.1-0.61-0.3-0.77c-0.2-0.16-0.51-0.24-0.92-0.24h-1.23V35.58z M59.89,36.26v2.32h1.37c0.39,0,0.69-0.1,0.92-0.31
			c0.22-0.2,0.34-0.49,0.34-0.85c0-0.78-0.41-1.16-1.24-1.16H59.89z"/>
		<path class="st0" d="M69.44,36.26c0,0.63-0.1,1.18-0.31,1.65c-0.21,0.47-0.5,0.83-0.88,1.08c-0.38,0.25-0.83,0.37-1.34,0.37
			c-0.5,0-0.94-0.12-1.32-0.37c-0.38-0.25-0.68-0.6-0.9-1.07c-0.21-0.46-0.32-1-0.33-1.6v-0.46c0-0.62,0.11-1.17,0.32-1.64
			c0.21-0.47,0.51-0.84,0.9-1.09c0.39-0.25,0.83-0.38,1.32-0.38c0.51,0,0.95,0.12,1.34,0.37c0.39,0.25,0.68,0.61,0.89,1.08
			c0.21,0.47,0.31,1.02,0.31,1.65V36.26z M68.61,35.85c0-0.76-0.15-1.35-0.45-1.76c-0.3-0.41-0.72-0.61-1.26-0.61
			c-0.53,0-0.94,0.2-1.24,0.61c-0.3,0.41-0.46,0.98-0.47,1.7v0.47c0,0.74,0.15,1.32,0.46,1.75c0.31,0.42,0.72,0.63,1.26,0.63
			c0.54,0,0.95-0.2,1.25-0.6c0.29-0.4,0.45-0.97,0.46-1.72V35.85z M68.23,32.31v0.04l-0.66,0l-0.65-0.75l-0.65,0.75l-0.66,0V32.3
			l1.07-1.2h0.49L68.23,32.31z M66.42,40.36c0-0.13,0.04-0.24,0.12-0.34c0.08-0.09,0.2-0.14,0.35-0.14s0.27,0.05,0.36,0.14
			c0.08,0.09,0.12,0.2,0.12,0.34c0,0.13-0.04,0.24-0.12,0.33c-0.08,0.09-0.2,0.13-0.36,0.13s-0.27-0.04-0.35-0.13
			C66.46,40.6,66.42,40.49,66.42,40.36z"/>
		<path class="st0" d="M77.53,37.23c-0.08,0.68-0.32,1.21-0.74,1.58c-0.41,0.37-0.97,0.56-1.65,0.56c-0.75,0-1.34-0.27-1.79-0.82
			c-0.45-0.55-0.67-1.28-0.67-2.19v-0.62c0-0.6,0.1-1.13,0.31-1.58c0.21-0.45,0.51-0.8,0.89-1.05c0.38-0.24,0.83-0.36,1.34-0.36
			c0.67,0,1.21,0.19,1.61,0.57c0.4,0.38,0.64,0.91,0.71,1.59H76.7c-0.07-0.51-0.23-0.89-0.47-1.12c-0.24-0.23-0.58-0.35-1.01-0.35
			c-0.53,0-0.95,0.2-1.25,0.6c-0.3,0.4-0.45,0.97-0.45,1.71v0.62c0,0.7,0.14,1.26,0.43,1.67c0.29,0.41,0.69,0.62,1.2,0.62
			c0.46,0,0.82-0.11,1.06-0.32c0.25-0.21,0.41-0.59,0.49-1.12H77.53z"/>
		<path class="st0" d="M83.53,36.26c0,0.63-0.1,1.18-0.31,1.65c-0.21,0.47-0.5,0.83-0.88,1.08c-0.38,0.25-0.83,0.37-1.34,0.37
			c-0.5,0-0.94-0.12-1.32-0.37c-0.38-0.25-0.68-0.6-0.9-1.07c-0.21-0.46-0.32-1-0.33-1.6v-0.46c0-0.62,0.11-1.17,0.32-1.64
			c0.21-0.47,0.51-0.84,0.9-1.09c0.39-0.25,0.83-0.38,1.32-0.38c0.51,0,0.95,0.12,1.34,0.37c0.39,0.25,0.68,0.61,0.89,1.08
			c0.21,0.47,0.31,1.02,0.31,1.65V36.26z M82.7,35.85c0-0.76-0.15-1.35-0.45-1.76c-0.3-0.41-0.72-0.61-1.26-0.61
			c-0.53,0-0.94,0.2-1.24,0.61c-0.3,0.41-0.46,0.98-0.47,1.7v0.47c0,0.74,0.15,1.32,0.46,1.75c0.31,0.42,0.72,0.63,1.26,0.63
			c0.54,0,0.95-0.2,1.25-0.6c0.29-0.4,0.45-0.97,0.46-1.72V35.85z M82.31,32.31v0.04l-0.66,0L81,31.6l-0.65,0.75l-0.66,0V32.3
			l1.07-1.2h0.49L82.31,32.31z"/>
		<path class="st0" d="M89.63,39.27h-0.84l-3.18-4.96v4.96h-0.84v-6.44h0.84l3.19,4.99v-4.99h0.83V39.27z"/>
		<path class="st0" d="M95.77,38.43c-0.21,0.31-0.51,0.55-0.9,0.7c-0.38,0.15-0.83,0.23-1.34,0.23c-0.51,0-0.97-0.12-1.37-0.37
			c-0.4-0.25-0.71-0.6-0.93-1.05c-0.22-0.45-0.33-0.98-0.34-1.58V35.8c0-0.97,0.22-1.72,0.67-2.26c0.44-0.53,1.07-0.8,1.87-0.8
			c0.66,0,1.19,0.17,1.59,0.52c0.4,0.34,0.65,0.83,0.74,1.46h-0.83c-0.16-0.86-0.65-1.28-1.49-1.28c-0.56,0-0.98,0.2-1.27,0.6
			c-0.29,0.4-0.43,0.98-0.44,1.74v0.53c0,0.72,0.16,1.3,0.49,1.72c0.32,0.43,0.76,0.64,1.31,0.64c0.31,0,0.59-0.04,0.82-0.11
			c0.23-0.07,0.43-0.19,0.58-0.36v-1.44h-1.46v-0.69h2.29V38.43z"/>
		<path class="st0" d="M103.55,33.53h-2.03v5.75h-0.83v-5.75h-2.03v-0.69h4.88V33.53z"/>
		<path class="st0" d="M109.33,39.27h-0.84V36.3h-3.18v2.98h-0.83v-6.44h0.83v2.77h3.18v-2.77h0.84V39.27z"/>
		<path class="st0" d="M115.26,32.83v0.94c0.33-0.03,0.57-0.15,0.71-0.35c0.14-0.2,0.21-0.52,0.21-0.95h0.69
			c0,0.62-0.13,1.08-0.38,1.39c-0.26,0.31-0.66,0.48-1.23,0.52v2.84c0,0.59-0.18,1.07-0.53,1.46c-0.35,0.38-0.83,0.61-1.44,0.67
			l-0.32,0.02c-0.69,0-1.24-0.19-1.65-0.57c-0.41-0.38-0.62-0.9-0.62-1.57v-4.39h0.82v4.36c0,0.47,0.13,0.83,0.38,1.09
			c0.25,0.26,0.61,0.39,1.08,0.39c0.47,0,0.83-0.13,1.08-0.38c0.25-0.26,0.38-0.62,0.38-1.08v-4.37H115.26z"/>
		<path class="st0" d="M121.77,36.26c0,0.63-0.1,1.18-0.31,1.65c-0.21,0.47-0.5,0.83-0.88,1.08c-0.38,0.25-0.83,0.37-1.34,0.37
			c-0.49,0-0.93-0.12-1.32-0.37c-0.38-0.25-0.68-0.61-0.9-1.07s-0.32-1.01-0.33-1.62v-0.44c0-0.62,0.11-1.17,0.32-1.64
			c0.21-0.47,0.51-0.84,0.9-1.09c0.39-0.25,0.83-0.38,1.32-0.38c0.69,0,1.26,0.23,1.71,0.69c0.28-0.02,0.48-0.13,0.62-0.32
			c0.13-0.19,0.2-0.48,0.2-0.87h0.72c0,0.98-0.38,1.56-1.14,1.74c0.28,0.51,0.42,1.12,0.42,1.85V36.26z M120.95,35.85
			c0-0.76-0.15-1.35-0.45-1.76c-0.3-0.41-0.72-0.61-1.27-0.61c-0.53,0-0.94,0.2-1.24,0.61c-0.3,0.41-0.46,0.98-0.47,1.7v0.47
			c0,0.74,0.15,1.32,0.46,1.75c0.31,0.42,0.72,0.63,1.26,0.63c0.55,0,0.98-0.21,1.27-0.62c0.29-0.42,0.44-1,0.44-1.76V35.85z"/>
		<path class="st0" d="M127.94,39.27h-0.84l-3.18-4.96v4.96h-0.84v-6.44h0.84l3.19,4.99v-4.99h0.83V39.27z"/>
		<path class="st0" d="M134.08,38.43c-0.21,0.31-0.51,0.55-0.9,0.7c-0.38,0.15-0.83,0.23-1.34,0.23c-0.51,0-0.97-0.12-1.37-0.37
			c-0.4-0.25-0.71-0.6-0.93-1.05c-0.22-0.45-0.33-0.98-0.34-1.58V35.8c0-0.97,0.22-1.72,0.67-2.26c0.44-0.53,1.07-0.8,1.87-0.8
			c0.66,0,1.19,0.17,1.59,0.52c0.4,0.34,0.65,0.83,0.74,1.46h-0.83c-0.16-0.86-0.65-1.28-1.49-1.28c-0.56,0-0.98,0.2-1.27,0.6
			c-0.29,0.4-0.43,0.98-0.44,1.74v0.53c0,0.72,0.16,1.3,0.49,1.72c0.32,0.43,0.76,0.64,1.31,0.64c0.31,0,0.59-0.04,0.82-0.11
			c0.23-0.07,0.43-0.19,0.58-0.36v-1.44h-1.46v-0.69h2.29V38.43z"/>
	</g>
	<g>
		<g>
			<path class="st0" d="M12.35,21.99c0.29,0.09,0.53,0.22,0.72,0.39c0.19,0.17,0.31,0.37,0.37,0.6c0.06,0.23,0.05,0.47-0.03,0.72
				c-0.08,0.25-0.2,0.45-0.38,0.61s-0.39,0.25-0.65,0.29c-0.25,0.04-0.52,0.01-0.81-0.07l-0.15-0.05c-0.29-0.09-0.53-0.22-0.72-0.4
				c-0.19-0.17-0.31-0.38-0.37-0.61c-0.06-0.23-0.05-0.47,0.03-0.72c0.08-0.25,0.21-0.45,0.38-0.61c0.18-0.16,0.4-0.25,0.65-0.29
				c0.26-0.04,0.53-0.01,0.82,0.08L12.35,21.99z M12.02,22.57c-0.31-0.1-0.57-0.11-0.76-0.05c-0.2,0.06-0.33,0.2-0.39,0.4
				c-0.06,0.21-0.03,0.39,0.09,0.55c0.13,0.16,0.34,0.29,0.65,0.39l0.15,0.05c0.3,0.09,0.56,0.11,0.76,0.05s0.34-0.19,0.4-0.4
				c0.06-0.21,0.03-0.39-0.1-0.55c-0.13-0.16-0.35-0.29-0.65-0.39L12.02,22.57z"/>
		</g>
		<g>
			<path class="st0" d="M15.1,19.98l-0.31,0.56l-2.4,0.11l1.8,0.99l-0.31,0.56l-2.73-1.5l0.31-0.56l2.4-0.11l-1.8-0.99l0.31-0.56
				L15.1,19.98z"/>
		</g>
		<g>
			<path class="st0" d="M15.33,18.88l0.86-1.06l0.4,0.32l-1.26,1.56l-2.42-1.96l0.4-0.5L15.33,18.88z"/>
		</g>
		<g>
			<path class="st0" d="M17.25,17.54l-0.46,0.45l-2.18-2.23l0.46-0.45L17.25,17.54z"/>
		</g>
		<g>
			<path class="st0" d="M19.58,15.72l-0.52,0.38l-2.22-0.92l1.21,1.66l-0.52,0.38l-1.84-2.52l0.52-0.38l2.22,0.92l-1.21-1.66
				l0.52-0.38L19.58,15.72z"/>
		</g>
		<g>
			<path class="st0" d="M21,13.53l-1.11,0.54l0.36,0.75l1.3-0.63l0.22,0.46l-1.88,0.91l-1.35-2.81l1.88-0.9l0.23,0.47l-1.3,0.63
				l0.32,0.67l1.11-0.54L21,13.53z"/>
		</g>
		<g>
			<path class="st0" d="M21.89,14.33c-0.03-0.09-0.03-0.18,0.02-0.26c0.04-0.08,0.11-0.14,0.21-0.17c0.1-0.03,0.19-0.03,0.27,0.01
				c0.08,0.04,0.14,0.1,0.17,0.2c0.03,0.09,0.03,0.18-0.02,0.26c-0.04,0.08-0.11,0.13-0.21,0.17c-0.1,0.03-0.18,0.03-0.27-0.01
				C21.98,14.49,21.92,14.42,21.89,14.33z"/>
		</g>
		<g>
			<path class="st0" d="M25.38,13.38c-0.09,0.16-0.23,0.29-0.42,0.41c-0.19,0.11-0.42,0.2-0.67,0.24c-0.27,0.05-0.51,0.04-0.73-0.04
				c-0.22-0.08-0.41-0.22-0.56-0.42c-0.15-0.2-0.26-0.45-0.31-0.74l-0.04-0.21c-0.06-0.31-0.06-0.58,0-0.82
				c0.06-0.24,0.18-0.44,0.35-0.6c0.17-0.16,0.39-0.26,0.65-0.31c0.36-0.07,0.66-0.04,0.9,0.1s0.41,0.36,0.51,0.69l-0.61,0.12
				c-0.06-0.17-0.15-0.29-0.26-0.35c-0.11-0.06-0.25-0.08-0.42-0.05c-0.21,0.04-0.36,0.15-0.44,0.34c-0.08,0.18-0.09,0.43-0.03,0.75
				l0.04,0.2c0.06,0.32,0.17,0.55,0.32,0.69c0.15,0.14,0.35,0.19,0.58,0.14c0.24-0.05,0.4-0.13,0.48-0.25l-0.1-0.53l-0.57,0.11
				l-0.09-0.46l1.21-0.23L25.38,13.38z"/>
		</g>
		<g>
			<path class="st0" d="M28.34,12.28c0,0.31-0.06,0.58-0.17,0.81c-0.11,0.23-0.27,0.41-0.47,0.53c-0.2,0.12-0.44,0.18-0.7,0.18
				c-0.26,0-0.49-0.07-0.69-0.19c-0.2-0.13-0.36-0.3-0.47-0.54c-0.11-0.23-0.16-0.5-0.16-0.8l0-0.15c0-0.31,0.06-0.58,0.17-0.81
				c0.11-0.23,0.27-0.41,0.47-0.53c0.2-0.12,0.43-0.18,0.69-0.18c0.26,0,0.49,0.07,0.69,0.19s0.36,0.31,0.46,0.54
				c0.11,0.23,0.16,0.5,0.16,0.81L28.34,12.28z M27.69,12.13c0-0.33-0.05-0.58-0.17-0.75c-0.12-0.17-0.28-0.26-0.5-0.26
				c-0.22,0-0.38,0.08-0.5,0.25c-0.12,0.17-0.18,0.41-0.18,0.74l0,0.15c0,0.32,0.05,0.57,0.17,0.74c0.12,0.18,0.28,0.27,0.5,0.27
				c0.22,0,0.38-0.08,0.5-0.25c0.12-0.17,0.18-0.41,0.18-0.74L27.69,12.13z"/>
		</g>
		<g>
			<path class="st0" d="M29.82,13.27l1.15-2.16l0.7,0.14L30,14.09l-0.66-0.13l-0.45-3.27l0.7,0.14L29.82,13.27z"/>
		</g>
		<g>
			<path class="st0" d="M30.83,13.99c0.03-0.09,0.08-0.16,0.17-0.2c0.08-0.04,0.17-0.04,0.27-0.01c0.1,0.03,0.17,0.08,0.21,0.16
				c0.05,0.08,0.05,0.16,0.02,0.26c-0.03,0.09-0.08,0.16-0.16,0.2c-0.08,0.04-0.17,0.04-0.27,0.01c-0.1-0.03-0.17-0.08-0.21-0.16
				C30.81,14.16,30.8,14.08,30.83,13.99z"/>
		</g>
		<g>
			<path class="st0" d="M33.18,14.37l1.63-1.83l0.65,0.3l-2.3,2.37l-0.61-0.28l0.34-3.28l0.65,0.3L33.18,14.37z"/>
		</g>
		<g>
			<path class="st0" d="M36.25,17.22l-0.52-0.38l0.2-2.39l-1.21,1.66l-0.52-0.38l1.84-2.52l0.52,0.38l-0.2,2.4l1.21-1.66l0.52,0.38
				L36.25,17.22z"/>
		</g>
	</g>
	<g>
		<rect x="59.02" y="28.69" class="st0" width="74.87" height="0.7"/>
	</g>
</g>
</svg>
