<svg xmlns="http://www.w3.org/2000/svg" width="27.97" height="21" viewBox="0 0 27.97 21">
  <defs>
    <style>
      .cls-1 {
        fill: #fff;
        fill-rule: evenodd;
      }
    </style>
  </defs>
  <path class="cls-1" d="M1284.2,30.537h-14.96a0.79,0.79,0,0,1-.75-0.522l-3.7-10.332a0.026,0.026,0,0,1-.01-0.024l-1.11-3.091h-3.87a0.781,0.781,0,1,1,0-1.563h4.43a0.813,0.813,0,0,1,.76.522l1.12,3.126,20.12,0.82a0.791,0.791,0,0,1,.59.3,0.771,0.771,0,0,1,.15.638l-1.99,9.5A0.786,0.786,0,0,1,1284.2,30.537Zm-14.39-1.562h13.74L1285.22,21l-18.55-.756Zm2.38,5.2a1.86,1.86,0,1,1-1.86-1.819A1.844,1.844,0,0,1,1272.19,34.171Zm13.24,0a1.86,1.86,0,1,1-1.86-1.819A1.838,1.838,0,0,1,1285.43,34.171Z" transform="translate(-1259 -15)"/>
</svg>
