<svg xmlns="http://www.w3.org/2000/svg" width="17" height="17" viewBox="0 0 17 17">
  <defs>
    <style>
      .cls-1 {
        fill: #333;
        fill-rule: evenodd;
      }
    </style>
  </defs>
  <path id="Forma_1" data-name="Forma 1" class="cls-1" d="M982.321,63.188a8.389,8.389,0,1,0,.679,3.3A8.331,8.331,0,0,0,982.321,63.188Zm-1.357,7.059a7.453,7.453,0,0,1-2.732,2.725,7.32,7.32,0,0,1-3.746,1,7.2,7.2,0,0,1-2.9-.595,7.312,7.312,0,0,1-3.969-3.98,7.53,7.53,0,0,1,.409-6.649,7.458,7.458,0,0,1,2.724-2.725,7.465,7.465,0,0,1,7.481,0,7.471,7.471,0,0,1,2.733,2.725A7.5,7.5,0,0,1,980.964,70.247Zm-5.939-3.832V61.6a0.536,0.536,0,0,0-.539-0.52,0.525,0.525,0,0,0-.512.52v4.892a0.42,0.42,0,0,1,.019.075,0.485,0.485,0,0,0,.14.419l2.779,2.78a0.527,0.527,0,0,0,.715,0,0.5,0.5,0,0,0,0-.725Z" transform="translate(-966 -58)"/>
</svg>
