<?xml version="1.0" encoding="utf-8"?>
<!-- Generator: Adobe Illustrator 24.0.0, SVG Export Plug-In . SVG Version: 6.00 Build 0)  -->
<svg version="1.1" id="Layer_1" xmlns="http://www.w3.org/2000/svg" xmlns:xlink="http://www.w3.org/1999/xlink" x="0px" y="0px"
	 viewBox="0 0 323.01 55.15" style="enable-background:new 0 0 323.01 55.15;" xml:space="preserve">
<style type="text/css">
	.st0{fill:#35BBCB;}
	.st1{fill:#FFFFFF;}
	.st2{fill:#8AC240;}
</style>
<g>
	<g>
		<rect width="323.01" height="55.15"/>
	</g>
	<g>
		<rect x="10.47" y="7.7" class="st0" width="194.86" height="39.75"/>
	</g>
	<g>
		<path class="st1" d="M27.87,17.01c4.97,0,7.46,3.45,7.46,7.43c0,4.05-2.54,7.32-7.54,7.32h-3.52v6.25h-5.51v-21H27.87z
			 M24.23,27.69h1.86c2.25,0,3.66-0.97,3.66-3.25c0-2.12-1.26-3.26-3.26-3.26h-2.26V27.69z"/>
		<path class="st1" d="M56.37,24c0,3.48-2.39,5.35-3.74,5.94l4.17,8.08h-6.08l-3.51-7.34h-2.48v7.34h-5.42v-21h9.12
			C53.73,17.01,56.37,19.92,56.37,24z M47.58,26.86c1.8,0,3.11-0.94,3.11-2.85c0-1.95-1.4-2.94-3.08-2.94h-2.88v5.79H47.58z"/>
		<path class="st1" d="M59.99,26.41c0-5.97,3.46-9.77,9.54-9.77c6.09,0,9.52,3.83,9.52,9.77v2.31c0,5.91-3.43,9.66-9.54,9.66
			c-6.08,0-9.52-3.75-9.52-9.66V26.41z M65.62,28.75c0,3.45,1.55,5.2,3.91,5.2c2.34,0,3.89-1.75,3.89-5.2v-2.42
			c0-3.45-1.55-5.25-3.89-5.25c-2.35,0-3.91,1.8-3.91,5.25V28.75z"/>
		<path class="st1" d="M87.24,38.02V21.49h-5.6v-4.48h16.71v4.48h-5.6v16.53H87.24z"/>
		<path class="st1" d="M116.31,38.02h-14.39v-21h14.39v4.32h-8.92v4.15h8.36v3.97h-8.36v4.23h8.92V38.02z"/>
		<path class="st1" d="M125.91,28.61c0,3.51,1.4,5.25,3.71,5.25c2.25,0,3.42-1.66,3.42-3.74h5.25v0.72c0,4.31-3.43,7.54-8.74,7.54
			c-5.92,0-9.26-3.74-9.26-9.8v-2.11c0-6.08,3.35-9.83,9.26-9.83c5.26,0,8.74,3.22,8.74,7.66V25h-5.25c0-2.08-1.18-3.83-3.45-3.83
			c-2.28,0-3.68,1.8-3.68,5.31V28.61z"/>
		<path class="st1" d="M146.51,38.02V21.49h-5.6v-4.48h16.71v4.48h-5.6v16.53H146.51z"/>
		<path class="st1" d="M175.58,38.02h-14.39v-21h14.39v4.32h-8.92v4.15h8.36v3.97h-8.36v4.23h8.92V38.02z"/>
		<path class="st1" d="M188.92,17.01c6.8,0,9.54,4.19,9.54,10.4c0,6.26-2.79,10.6-9.54,10.6h-8.52v-21H188.92z M185.92,33.69H188
			c2.75,0,4.82-1.06,4.82-6.14c0-3.29-0.89-6.22-4.82-6.22h-2.08V33.69z"/>
	</g>
	<g>
		<path class="st1" d="M222.25,17.01c6.79,0,9.42,4.25,9.42,10.43c0,6.17-2.62,10.57-9.42,10.57h-7.86v-21H222.25z M218.85,34.41
			h2.75c3.43,0,5.49-1.74,5.49-6.88c0-3.92-1.25-6.94-5.49-6.94h-2.75V34.41z"/>
		<path class="st1" d="M234.99,38.02v-21h4.55l5.8,13.02h0.14l5.8-13.02h4.52v21h-4.02v-13.6h-0.18l-4.83,10.8h-2.79l-4.85-10.8
			h-0.18v13.6H234.99z"/>
		<path class="st1" d="M263.85,28.74c0,4.05,1.72,5.94,4.43,5.94c2.65,0,4.02-1.8,4.02-3.97h4.28v0.46c0,3.82-3.03,7.25-8.37,7.25
			c-5.59,0-8.88-3.55-8.88-9.69v-2.37c0-6.14,3.32-9.74,8.89-9.74c5.2,0,8.36,3.39,8.36,7.45v0.45h-4.28c0-2.15-1.4-4.15-4.05-4.15
			c-2.66,0-4.4,1.98-4.4,6.02V28.74z"/>
		<path class="st1" d="M278,38.02l6.96-21h5.28l6.92,21h-4.75l-1.55-5.22h-6.83l-1.57,5.22H278z M287.35,21.2l-2.46,8.32h5.09
			l-2.43-8.32H287.35z"/>
	</g>
	<g>
		<path class="st2" d="M310.18,45.74c0-0.82,0.56-1.47,1.41-1.47c0.86,0,1.4,0.65,1.4,1.47c0,0.8-0.54,1.44-1.4,1.44
			C310.72,47.18,310.18,46.53,310.18,45.74z"/>
		<path class="st2" d="M307.66,42.63c-2.58,0-4.43-1.55-4.43-4.25c0-2.48,1.52-3.92,3.4-3.94v2.28c-0.7,0.06-1.45,0.61-1.45,1.59
			c0,1.2,1.07,1.81,2.51,1.81h0.79c1.52,0,2.53-0.66,2.53-1.81c0-1.08-0.63-1.52-1.33-1.62V34.4c2.06,0.04,3.31,1.68,3.31,3.99
			c0,2.64-1.71,4.24-4.5,4.24H307.66z"/>
		<path class="st2" d="M307.78,24.39h0.62c2.83,0,4.6,1.49,4.6,4.35c0,2.88-1.75,4.38-4.59,4.38h-0.62c-2.62,0-4.55-1.5-4.55-4.38
			C303.23,25.87,305.1,24.39,307.78,24.39z M307.81,30.6h0.59c1.33,0,2.67-0.39,2.67-1.85s-1.34-1.83-2.67-1.83h-0.59
			c-1.36,0-2.67,0.39-2.67,1.83S306.45,30.6,307.81,30.6z"/>
		<path class="st2" d="M303.4,22.56v-2.43h1.39v-0.13c-0.69-0.25-1.53-1.04-1.53-2.49s0.66-2.31,1.64-2.62V14.8
			c-0.8-0.29-1.64-1.27-1.64-2.86c0-1.93,1.25-3.05,3.12-3.05h6.45v2.49h-5.73c-1.2,0-1.77,0.64-1.77,1.56c0,0.98,0.66,1.6,1.85,1.6
			h5.65v2.39h-5.65c-1.34,0-1.85,0.69-1.85,1.58c0,0.86,0.56,1.57,1.83,1.57h5.67v2.49H303.4z"/>
	</g>
</g>
</svg>
