<svg xmlns="http://www.w3.org/2000/svg" width="42" height="35" viewBox="0 0 42 35">
  <defs>
    <style>
      .cls-1 {
        fill: #626262;
        fill-rule: evenodd;
      }
    </style>
  </defs>
  <path class="cls-1" d="M1378.59,241.744h-24.46l-7.79-22.192H1340V218h7.44l2.03,5.782,32.53,1.354Zm-23.36-1.552h22.09l2.79-13.582-30.09-1.252ZM1356.37,253a3.964,3.964,0,1,1,3.97-3.964A3.969,3.969,0,0,1,1356.37,253Zm0-6.6a2.634,2.634,0,1,0,2.64,2.633A2.634,2.634,0,0,0,1356.37,246.4Zm20.6,6.6a3.964,3.964,0,1,1,3.96-3.964A3.969,3.969,0,0,1,1376.97,253Zm0-6.6a2.634,2.634,0,1,0,2.64,2.633A2.634,2.634,0,0,0,1376.97,246.4Z" transform="translate(-1340 -218)"/>
</svg>
