<svg xmlns="http://www.w3.org/2000/svg" width="34.968" height="22.031" viewBox="0 0 34.968 22.031">
  <defs>
    <style>
      .cls-1 {
        fill: #626262;
        fill-rule: evenodd;
      }
    </style>
  </defs>
  <path class="cls-1" d="M835.759,178.947H805.077a2.127,2.127,0,0,0-2.149,2.1v17.83a2.127,2.127,0,0,0,2.149,2.1h30.682a2.127,2.127,0,0,0,2.149-2.1v-17.83A2.127,2.127,0,0,0,835.759,178.947ZM825.7,189.923l11.06-9.247a1.019,1.019,0,0,1,.076.371v17.83a1.017,1.017,0,0,1-.075.366ZM835.759,180a1.073,1.073,0,0,1,.128.025l-14.5,12.127a1.5,1.5,0,0,1-1.928,0l-14.5-12.127a1.113,1.113,0,0,1,.128-0.025h30.682Zm-31.681,19.246a1.018,1.018,0,0,1-.076-0.366v-17.83a1.02,1.02,0,0,1,.077-0.371l11.06,9.247Zm1,0.685a1.055,1.055,0,0,1-.136-0.027l11.024-9.288,2.791,2.334a2.59,2.59,0,0,0,3.325,0l2.791-2.334L835.9,199.9a0.992,0.992,0,0,1-.136.027H805.077Z" transform="translate(-802.938 -178.938)"/>
</svg>
