<svg xmlns="http://www.w3.org/2000/svg" width="32.625" height="33.094" viewBox="0 0 32.625 33.094">
  <defs>
    <style>
      .cls-1 {
        fill: #626262;
        fill-rule: evenodd;
      }
    </style>
  </defs>
  <path class="cls-1" d="M811.117,223.994c0.615,0,1.212.392,2.085,1.474l3.624,5.376a2.323,2.323,0,0,1-.7,2.688c-1.951,2.546-1.419,3.935.279,5.659l2.789,2.829,2.788,2.829a4.043,4.043,0,0,0,2.772,1.547,4.711,4.711,0,0,0,2.805-1.264,2.691,2.691,0,0,1,1.813-.915,1.816,1.816,0,0,1,.836.208l5.3,3.678c1.533,1.273,1.658,1.968,1.254,2.971a5.64,5.64,0,0,1-5.532,3.851c-3.856,0-9.264-2.906-15.659-9.227-10.457-10.893-11.428-18.959-5.3-21.5a2.208,2.208,0,0,1,.843-0.2m0-1.075h0a3.2,3.2,0,0,0-1.245.28,6.753,6.753,0,0,0-4.294,4.978c-0.943,4.6,2.337,11.086,9.234,18.272l0.01,0.01,0.01,0.01c6.309,6.235,11.98,9.532,16.4,9.532a6.718,6.718,0,0,0,6.513-4.52c0.731-1.81-.1-2.993-1.564-4.21l-0.035-.03-0.038-.026-5.3-3.678-0.059-.042-0.065-.032a2.871,2.871,0,0,0-1.31-.322,3.617,3.617,0,0,0-2.512,1.18,3.786,3.786,0,0,1-2.106,1,3.1,3.1,0,0,1-2.022-1.233l-2.789-2.829-2.788-2.829c-1.364-1.384-1.771-2.157-.229-4.189a3.318,3.318,0,0,0,.846-3.879l-0.033-.065-0.041-.061-3.625-5.375-0.025-.038-0.029-.036a3.952,3.952,0,0,0-2.905-1.868h0Z" transform="translate(-805.406 -222.906)"/>
</svg>
