<svg xmlns="http://www.w3.org/2000/svg" width="17" height="11" viewBox="0 0 17 11">
  <defs>
    <style>
      .cls-1 {
        fill: #a4a4a4;
        fill-rule: evenodd;
      }
    </style>
  </defs>
  <path id="Shape_10_copy_3" data-name="Shape 10 copy 3" class="cls-1" d="M175.62,252.985H161.391a1.365,1.365,0,0,1-1.38-1.349v-8.274a1.366,1.366,0,0,1,1.38-1.35H175.62a1.366,1.366,0,0,1,1.38,1.35v8.274A1.365,1.365,0,0,1,175.62,252.985Zm-13.606-9.735a0.73,0.73,0,0,0-.738.721v7.055a0.73,0.73,0,0,0,.738.722H175a0.73,0.73,0,0,0,.738-0.722v-7.055A0.73,0.73,0,0,0,175,243.25H162.014ZM173.5,246.3h-9.979a0.619,0.619,0,1,1,0-1.238H173.5A0.619,0.619,0,1,1,173.5,246.3Z" transform="translate(-160 -242)"/>
</svg>
