<svg xmlns="http://www.w3.org/2000/svg" width="5" height="10" viewBox="0 0 5 10">
  <defs>
    <style>
      .cls-1 {
        fill: #999;
        fill-rule: evenodd;
      }
    </style>
  </defs>
  <path id="Shape_2_copy_6" data-name="Shape 2 copy 6" class="cls-1" d="M762.747,235.959l-0.752-.9a0.141,0.141,0,0,1,0-.174l3.176-3.807a0.14,0.14,0,0,0,0-.173L762,227.1a0.14,0.14,0,0,1,0-.173l0.752-.9a0.091,0.091,0,0,1,.144,0l4.073,4.882a0.14,0.14,0,0,1,0,.173l-4.073,4.882A0.09,0.09,0,0,1,762.747,235.959Z" transform="translate(-762 -226)"/>
</svg>
