<?xml version="1.0" encoding="utf-8"?>
<!-- Generator: Adobe Illustrator 23.0.0, SVG Export Plug-In . SVG Version: 6.00 Build 0)  -->
<svg version="1.0" id="Layer_1" xmlns="http://www.w3.org/2000/svg" xmlns:xlink="http://www.w3.org/1999/xlink" x="0px" y="0px"
	 viewBox="0 0 84 84" style="enable-background:new 0 0 84 84;" xml:space="preserve">
<style type="text/css">
	.st0{fill:#794F16;}
	.st1{fill:#FDB614;}
	.st2{fill:#C9822E;}
	.st3{fill-rule:evenodd;clip-rule:evenodd;fill:#FFFFFF;}
	.st4{fill-rule:evenodd;clip-rule:evenodd;fill:#794F16;}
	.st5{fill:#FFFFFF;}
</style>
<g>
	<g>
		<circle class="st0" cx="42" cy="42" r="42"/>
	</g>
	<g>
		<path class="st1" d="M83.49,48.56C83.82,46.42,84,44.23,84,42C84,18.8,65.2,0,42,0S0,18.8,0,42c0,2.23,0.18,4.42,0.51,6.56
			C28.22,41.11,55.94,41.07,83.49,48.56z"/>
	</g>
	<g>
		<path class="st0" d="M16.5,75.37C23.57,80.78,32.41,84,42,84c9.59,0,18.43-3.22,25.5-8.63C50.55,72.64,33.7,72.62,16.5,75.37z"/>
	</g>
	<g>
		<path class="st2" d="M0.51,48.56c0.78,5,2.46,9.7,4.84,13.95c24.6-5.74,49.05-5.74,73.29,0c2.38-4.25,4.06-8.95,4.84-13.95
			C55.94,41.07,28.22,41.11,0.51,48.56z"/>
	</g>
	<g>
		<path class="st0" d="M5.35,62.52c2.81,5.01,6.61,9.38,11.15,12.85c17.2-2.74,34.04-2.73,51,0c4.53-3.47,8.34-7.84,11.15-12.85
			C54.4,56.77,29.96,56.77,5.35,62.52z"/>
	</g>
	<g>
		<circle class="st3" cx="42" cy="42" r="33.47"/>
	</g>
	<g>
		<path class="st4" d="M42,70.94c-15.96,0-28.94-12.98-28.94-28.94c0-15.96,12.98-28.94,28.94-28.94
			c15.96,0,28.94,12.98,28.94,28.94C70.94,57.96,57.96,70.94,42,70.94z"/>
	</g>
	<path class="st5" d="M39.43,41.89l-4-14.5c-0.12-0.43-0.51-0.73-0.96-0.73h-7.5c-0.27,0-0.53,0.11-0.72,0.31l-7,7.33
		c-0.38,0.4-0.37,1.03,0.03,1.41l5.17,5c0.15,0.14,0.33,0.24,0.54,0.27l13.33,2.17c0.05,0.01,0.11,0.01,0.16,0.01
		c0.28,0,0.55-0.12,0.74-0.33C39.44,42.57,39.52,42.21,39.43,41.89z"/>
	<path class="st5" d="M60.08,34.75l-2-8c-0.06-0.26-0.23-0.48-0.46-0.62l-7.33-4.33c-0.38-0.23-0.87-0.17-1.19,0.13l-7.17,6.67
		c-0.28,0.26-0.38,0.65-0.28,1.01l3.17,10.83c0.08,0.27,0.27,0.49,0.52,0.62c0.14,0.07,0.29,0.1,0.44,0.1
		c0.12,0,0.24-0.02,0.36-0.07l13.33-5.17C59.94,35.74,60.2,35.24,60.08,34.75z"/>
	<path class="st5" d="M55.49,43.72c-0.29-0.2-0.67-0.24-0.99-0.09l-10.23,4.71l-5.2-0.79c-0.34-0.05-0.68,0.07-0.9,0.33
		s-0.3,0.61-0.21,0.94l4.83,16.33c0.09,0.3,0.31,0.54,0.61,0.65c0.11,0.04,0.23,0.06,0.35,0.06c0.19,0,0.37-0.05,0.54-0.16l10-6.33
		c0.26-0.17,0.44-0.45,0.46-0.76l1.17-14C55.94,44.26,55.78,43.92,55.49,43.72z"/>
</g>
</svg>
