<?xml version="1.0" encoding="utf-8"?>
<!-- Generator: Adobe Illustrator 23.0.0, SVG Export Plug-In . SVG Version: 6.00 Build 0)  -->
<svg version="1.0" id="Layer_1" xmlns="http://www.w3.org/2000/svg" xmlns:xlink="http://www.w3.org/1999/xlink" x="0px" y="0px"
	 viewBox="0 0 84 84.02" style="enable-background:new 0 0 84 84.02;" xml:space="preserve">
<style type="text/css">
	.st0{fill:#BCBEC0;}
	.st1{opacity:0.32;fill:#FFFFFF;}
	.st2{fill:#B1B3B6;}
	.st3{fill:#8C8E91;}
	.st4{fill:#FFFFFF;}
</style>
<circle class="st0" cx="42" cy="42.01" r="42"/>
<g>
	<path class="st1" d="M18.81,31.4c1.96,0.45,6.04,1.67,7.87,2.87c1.83,1.2,11.4,6.69,14.52,6.89c3.12,0.21,10.45,1.62,14.71,4.54
		c4.26,2.92,8.88,3.51,11.67,3.89c2.78,0.38,11.95,2.3,14.74,4.15c1.61-5.53,2.03-11.15,1.4-16.58c-2.79-1.85-7.82-2.13-10.61-2.51
		c-2.79-0.38-7.37-1.32-11.63-4.24s-11.59-4.33-14.71-4.54c-3.12-0.21-12.69-5.69-14.52-6.89c-1.83-1.2-5.9-2.42-7.87-2.87
		c-1.96-0.45-6.11-0.73-12.48-3.41c-3.42,3.51-6.27,7.67-8.34,12.38C6.17,29.17,16.86,30.96,18.81,31.4z"/>
	<path class="st2" d="M24.39,16.12c1.96,0.45,6.04,1.67,7.87,2.87c1.83,1.2,11.4,6.69,14.52,6.89c3.12,0.21,10.45,1.62,14.71,4.54
		s8.84,3.86,11.63,4.24c2.78,0.38,7.82,0.66,10.61,2.51C81.93,21.9,71.81,8.18,56.39,2.55c-16.03-5.84-33.3-1.31-44.48,10.16
		C18.28,15.39,22.43,15.67,24.39,16.12z"/>
	<path class="st3" d="M60.57,68.81c-2.79-0.38-7.41-0.97-11.67-3.89c-4.26-2.92-11.59-4.33-14.71-4.54s-12.69-5.69-14.52-6.89
		c-1.83-1.2-5.77-2.66-7.74-3.11c-1.96-0.45-4.83-0.12-11.58-2.94c1.97,15.03,12.03,28.48,27.26,34.03
		c15.6,5.69,32.39,1.55,43.59-9.26C68.42,70.35,63.35,69.19,60.57,68.81z"/>
	<path class="st1" d="M64.73,57.38c-2.79-0.38-7.41-0.97-11.67-3.89c-4.26-2.92-11.59-4.33-14.71-4.54
		c-3.12-0.21-12.69-5.69-14.52-6.89c-1.83-1.2-5.9-2.42-7.87-2.87c-1.96-0.45-10.22-1.63-15.03-5.99c-1.03,4.77-1.2,9.58-0.58,14.23
		c6.75,2.82,9.62,2.49,11.58,2.94c1.96,0.45,5.91,1.91,7.74,3.11c1.83,1.2,11.4,6.69,14.52,6.89s10.45,1.62,14.71,4.54
		c4.26,2.92,8.88,3.51,11.67,3.89c2.79,0.38,7.85,1.55,10.63,3.4c3.15-3.05,5.86-6.62,7.97-10.66
		C76.38,59.7,67.52,57.76,64.73,57.38z"/>
	<path class="st2" d="M15.97,39.2c1.96,0.45,6.04,1.67,7.87,2.87c1.83,1.2,11.4,6.69,14.52,6.89c3.12,0.21,10.45,1.62,14.71,4.54
		c4.26,2.92,8.88,3.51,11.67,3.89c2.78,0.38,11.64,2.31,14.44,4.17c0.86-1.64,1.64-3.36,2.29-5.15c0.32-0.88,0.6-1.77,0.86-2.66
		c-2.79-1.85-11.96-3.77-14.74-4.15c-2.79-0.38-7.41-0.97-11.67-3.89c-4.26-2.92-11.59-4.33-14.71-4.54
		c-3.12-0.21-12.69-5.69-14.52-6.89c-1.83-1.2-5.9-2.42-7.87-2.87c-1.95-0.45-12.65-2.24-15.25-6.31c-0.36,0.83-0.71,1.67-1.03,2.53
		c-0.67,1.85-1.2,3.71-1.6,5.58C5.75,37.57,14.01,38.75,15.97,39.2z"/>
</g>
<g>
	<path class="st4" d="M53.84,38.7c9.03-0.3,16.34-3.99,21.93-11.09C66.74,27.91,59.43,31.61,53.84,38.7z"/>
	<path class="st4" d="M42.78,69.93c9.03-0.3,16.34-3.99,21.93-11.09C55.68,59.14,48.37,62.83,42.78,69.93z"/>
	<path class="st4" d="M28.32,30.15c9.03-0.3,16.34-3.99,21.93-11.09C41.22,19.36,33.91,23.06,28.32,30.15z"/>
	<path class="st4" d="M17.79,60.87c9.03-0.3,16.34-3.99,21.93-11.09C30.69,50.08,23.38,53.77,17.79,60.87z"/>
	<path class="st4" d="M53.41,54.72c-0.3-9.03-3.99-16.34-11.09-21.93C42.62,41.82,46.32,49.13,53.41,54.72z"/>
	<path class="st4" d="M25.19,45.85c-0.3-9.03-3.99-16.34-11.09-21.93C14.4,32.95,18.09,40.26,25.19,45.85z"/>
</g>
</svg>
