<?xml version="1.0" encoding="utf-8"?>
<!-- Generator: Adobe Illustrator 23.0.0, SVG Export Plug-In . SVG Version: 6.00 Build 0)  -->
<svg version="1.0" id="Layer_1" xmlns="http://www.w3.org/2000/svg" xmlns:xlink="http://www.w3.org/1999/xlink" x="0px" y="0px"
	 viewBox="0 0 84 84" style="enable-background:new 0 0 84 84;" xml:space="preserve">
<style type="text/css">
	.st0{fill:#D65327;}
	.st1{fill:#FBF7C1;}
	.st2{fill:#FDB614;}
	.st3{fill:#FBF064;}
</style>
<g>
	<circle class="st0" cx="42" cy="42" r="42"/>
	<path class="st1" d="M11.88,36.03c0.81,9.53,8.94,16.67,16.73,13.42c5.98-2.5,2.27-14.23-0.06-17.02c6.39,2.21,5.69,7.61,9.88,6.74
		c3.51-0.73,3.95-6.39,0-11.73s-3.14-10.92,0.7-19.75c-0.58,7.44,4.76,12.55,8.13,14.41c3.37,1.86,8.13,7.32,8.83,14.52
		c0.7,7.2,6.62,10.69,8.13-9.06c6.16,7.9,11.39,33.19-0.46,44.5c4.88-9.06,6.27-18.9,2.17-31.52c-2.32,8.36-8.52,13.4-11.7,1.16
		c-3.18-12.24-6.43-12.47-8.52-13.94c-2.09-1.47-6.12-5.42-5.89-7.9c-1.16,4.34,0.77,7.82,3.25,10.92s4.57,18.59-7.98,13.4
		c2.34,9.24-6.84,17.6-18.98,7.28c-0.39,2.87,0.23,24.09,20.14,27.26C20.89,77.27,7.87,64.26,11.88,36.03z"/>
	<path class="st2" d="M46.87,34.56c3.49,3.87,4.49,8.29,5.65,13.63s7.51,8.13,12.24,3.41c0.7,9.14,2.51,26.72-22.83,26.72
		c-17.91,0-21.6-16.34-21.47-19.05c8.98,2.71,16.26,2.01,18.12-8.44C45.55,51.52,50.51,42,46.87,34.56z"/>
	<path class="st3" d="M48.11,52.3c1.47,5.58,5.34,9.84,11,8.13c0.31,6.82-0.93,16.34-16.34,16.34c-14.53,0-16.27-9.68-16.27-10.53
		c2.56,1.47,12.12,1.08,14.5-8.13C45.24,57.25,47.88,54.16,48.11,52.3z"/>
</g>
</svg>
