<?xml version="1.0" encoding="utf-8"?>
<!-- Generator: Adobe Illustrator 23.0.0, SVG Export Plug-In . SVG Version: 6.00 Build 0)  -->
<svg version="1.0" id="Layer_1" xmlns="http://www.w3.org/2000/svg" xmlns:xlink="http://www.w3.org/1999/xlink" x="0px" y="0px"
	 viewBox="0 0 84 84" style="enable-background:new 0 0 84 84;" xml:space="preserve">
<style type="text/css">
	.st0{fill:#43B4C2;}
	.st1{opacity:0.65;enable-background:new    ;}
	.st2{fill:#FFFFFF;}
	.st3{fill:#1592A4;}
</style>
<circle class="st0" cx="42" cy="42" r="42"/>
<g>
	<g class="st1">
		<path class="st2" d="M16.58,39.98c2-0.25,6.25-0.5,8.38,0s13,2.38,16,1.5s10.38-2.06,15.38-0.78c5,1.28,9.54,0.25,12.29-0.34
			s12.01-1.93,15.27-1.15c-0.38-5.74-1.91-11.17-4.36-16.05c-3.25-0.78-8.08,0.68-10.82,1.27c-2.75,0.6-7.38,1.28-12.38,0
			s-12.38-0.1-15.38,0.78s-13.88-1-16-1.5s-6.38-0.25-8.38,0s-5.99,1.41-12.89,1.07c-2.01,4.47-3.27,9.35-3.6,14.49
			C3.93,42.21,14.6,40.23,16.58,39.98z"/>
	</g>
	<g>
		<path class="st0" d="M16.58,23.71c2-0.25,6.25-0.5,8.38,0s13,2.38,16,1.5s10.38-2.06,15.38-0.78s9.63,0.6,12.38,0
			c2.75-0.59,7.57-2.06,10.82-1.27C72.63,9.43,58.42,0,42,0C24.94,0,10.27,10.18,3.69,24.78C10.59,25.11,14.58,23.96,16.58,23.71z"
			/>
	</g>
	<g>
		<path class="st3" d="M68.63,60.82c-2.75,0.6-7.29,1.62-12.29,0.34s-12.38-0.1-15.38,0.78s-13.88-1-16-1.5s-6.33-0.52-8.33-0.27
			s-4.58,1.54-11.89,1.2C11.74,74.81,25.79,84,42,84c16.61,0,30.96-9.64,37.78-23.63C76.53,59.58,71.37,60.22,68.63,60.82z"/>
	</g>
	<g class="st1">
		<path class="st2" d="M68.63,48.65c-2.75,0.6-7.29,1.62-12.29,0.34s-12.38-0.1-15.38,0.78s-13.88-1-16-1.5s-6.38-0.25-8.38,0
			S6.42,50.24,0.4,47.79c0.67,4.84,2.16,9.41,4.33,13.57c7.31,0.34,9.89-0.95,11.89-1.2s6.21-0.23,8.33,0.27s13,2.38,16,1.5
			s10.38-2.06,15.38-0.78s9.54,0.25,12.29-0.34c2.75-0.6,7.9-1.24,11.15-0.45c1.92-3.94,3.23-8.23,3.84-12.74
			C80.36,46.84,71.37,48.06,68.63,48.65z"/>
	</g>
	<g>
		<path class="st0" d="M16.58,48.28c2-0.25,6.25-0.5,8.38,0s13,2.38,16,1.5S51.33,47.72,56.33,49s9.54,0.25,12.29-0.34
			s11.73-1.81,14.99-1.03C83.86,45.78,84,43.91,84,42c0-0.94-0.04-1.87-0.1-2.79c-3.26-0.78-12.53,0.55-15.27,1.15
			c-2.75,0.6-7.29,1.62-12.29,0.34s-12.38-0.1-15.38,0.78s-13.88-1-16-1.5s-6.38-0.25-8.38,0C14.6,40.23,3.93,42.21,0.1,39.27
			C0.04,40.18,0,41.08,0,42c0,1.97,0.15,3.9,0.41,5.8C6.43,50.25,14.58,48.53,16.58,48.28z"/>
	</g>
	<g>
		<path class="st2" d="M63.85,50.73c0,12.07-9.78,21.85-21.85,21.85S20.15,62.8,20.15,50.73S42,10.83,42,10.83
			S63.85,38.67,63.85,50.73z"/>
	</g>
	<g>
		<path class="st0" d="M42,68.05c-9.55,0-17.31-7.77-17.31-17.31c0-6.59,9.52-21.74,17.31-32.39C49.8,29,59.32,44.15,59.32,50.74
			C59.31,60.28,51.55,68.05,42,68.05z"/>
	</g>
	<g>
		<path class="st2" d="M36.12,62.28c-0.26,0-0.52-0.07-0.76-0.21c-3.41-2.01-5.72-5.38-6.33-9.26c-0.13-0.82,0.43-1.59,1.25-1.71
			c0.82-0.13,1.59,0.43,1.72,1.25c0.47,2.99,2.25,5.59,4.89,7.14c0.71,0.42,0.95,1.34,0.53,2.05
			C37.13,62.02,36.63,62.28,36.12,62.28z"/>
	</g>
</g>
</svg>
