<svg xmlns="http://www.w3.org/2000/svg" width="6" height="11.93" viewBox="0 0 6 11.93">
  <defs>
    <style>
      .cls-1 {
        fill: #333;
        fill-rule: evenodd;
      }
    </style>
  </defs>
  <path id="Shape_2_copy_9" data-name="Shape 2 copy 9" class="cls-1" d="M1091.06,1121.4l0.91,1.08a0.182,0.182,0,0,1,0,.2l-3.82,4.55a0.182,0.182,0,0,0,0,.2l3.82,4.55a0.182,0.182,0,0,1,0,.2l-0.91,1.08a0.1,0.1,0,0,1-.17,0l-4.89-5.83a0.152,0.152,0,0,1,0-.2l4.89-5.83A0.1,0.1,0,0,1,1091.06,1121.4Z" transform="translate(-1086 -1121.38)"/>
</svg>
