<svg xmlns="http://www.w3.org/2000/svg" width="64.594" height="65" viewBox="0 0 64.594 65">
  <defs>
    <style>
      .cls-1 {
        fill: #626262;
        fill-rule: evenodd;
      }
    </style>
  </defs>
  <path class="cls-1" d="M116.778,1763.99c-8.628,0-20.184-6.67-32.537-18.79-13.724-14.18-20.247-26.94-18.382-35.97,0.92-4.45,3.84-7.8,8.445-9.7a6.207,6.207,0,0,1,2.411-.54c1.919,0,3.554,1.05,5.646,3.62l0.072,0.1,7.307,10.76a0.608,0.608,0,0,1,.062.11c1.23,2.47.642,5.13-1.655,7.49-3.147,4.11-2.27,5.75.472,8.51l11.107,11.18c1.755,1.77,2.959,2.49,4.155,2.49,1.134,0,2.588-.68,4.321-2.03,2.274-2.24,5.035-2.86,7.407-1.66l0.16,0.09,10.677,7.35c3.011,2.48,4.554,4.68,3.137,8.17C127.24,1760.94,122.812,1763.99,116.778,1763.99Zm-40.063-63.18a4.47,4.47,0,0,0-1.726.41c-4.022,1.65-6.566,4.55-7.358,8.39-1.739,8.41,4.614,20.59,17.889,34.31,12,11.76,23.1,18.24,31.258,18.24,5.239,0,9.088-2.65,11.131-7.68,0.809-1.99.635-3.4-2.546-6.02l-10.614-7.3a3.682,3.682,0,0,0-1.647-.39,5.324,5.324,0,0,0-3.666,1.79c-0.026.02-.054,0.05-0.083,0.07-2.106,1.64-3.9,2.44-5.471,2.44-1.729,0-3.3-.87-5.435-3.02L87.34,1730.87c-3.373-3.39-4.39-6.02-.592-10.96a0.422,0.422,0,0,1,.072-0.08c1.222-1.25,2.449-3.19,1.389-5.39l-7.247-10.67C79.255,1701.67,78.024,1700.81,76.715,1700.81Z" transform="translate(-65.531 -1699)"/>
</svg>
