<svg xmlns="http://www.w3.org/2000/svg" width="71" height="71" viewBox="0 0 71 71">
  <defs>
    <style>
      .cls-1 {
        fill: #626262;
        fill-rule: evenodd;
      }
    </style>
  </defs>
  <path class="cls-1" d="M150.407,1900.13v-22.89a0.907,0.907,0,1,0-1.814,0v23.26a1.014,1.014,0,0,0,.023.12,0.906,0.906,0,0,0,.045.22,0.891,0.891,0,0,0,.119.19,0.969,0.969,0,0,0,.067.1l12.992,13.47a0.887,0.887,0,0,0,.653.28,0.9,0.9,0,0,0,.63-0.25,0.916,0.916,0,0,0,.023-1.29ZM149.5,1865a35.5,35.5,0,1,0,35.5,35.5A35.543,35.543,0,0,0,149.5,1865Zm0,69.19a33.69,33.69,0,1,1,33.686-33.69A33.731,33.731,0,0,1,149.5,1934.19Z" transform="translate(-114 -1865)"/>
</svg>
