<svg xmlns="http://www.w3.org/2000/svg" width="78" height="50" viewBox="0 0 78 50">
  <defs>
    <style>
      .cls-1 {
        fill: #626262;
        fill-rule: evenodd;
      }
    </style>
  </defs>
  <path class="cls-1" d="M162.468,1587H93.532A4.535,4.535,0,0,0,89,1591.53v40.94a4.535,4.535,0,0,0,4.532,4.53h68.936a4.535,4.535,0,0,0,4.532-4.53v-40.94A4.535,4.535,0,0,0,162.468,1587Zm-23.061,24.91,25.407-21.71a2.639,2.639,0,0,1,.365,1.33v40.94a2.705,2.705,0,0,1-.36,1.33Zm23.061-23.09a2.7,2.7,0,0,1,.946.18l-33.056,28.25a3.619,3.619,0,0,1-4.716,0L92.586,1589a2.707,2.707,0,0,1,.947-0.18h68.936ZM91.181,1633.8a2.7,2.7,0,0,1-.36-1.33v-40.94a2.645,2.645,0,0,1,.365-1.33l25.407,21.71Zm2.351,1.38a2.768,2.768,0,0,1-.959-0.18l25.419-21.9,6.465,5.53a5.443,5.443,0,0,0,7.084,0l6.465-5.53,25.419,21.9a2.768,2.768,0,0,1-.958.18H93.532Z" transform="translate(-89 -1587)"/>
</svg>
