<svg xmlns="http://www.w3.org/2000/svg" width="9.937" height="7.94" viewBox="0 0 9.937 7.94">
  <defs>
    <style>
      .cls-1 {
        fill: #fff;
        fill-rule: evenodd;
      }
    </style>
  </defs>
  <path class="cls-1" d="M807.59,1241.94l-6.038,6.27a0.582,0.582,0,0,1-.842,0l-2.69-2.8a0.635,0.635,0,0,1,0-.87l0.442-.46a0.6,0.6,0,0,1,.42-0.18,0.577,0.577,0,0,1,.422.19l1.828,1.89,5.177-5.37a0.6,0.6,0,0,1,.42-0.18,0.609,0.609,0,0,1,.422.18l0.439,0.46A0.634,0.634,0,0,1,807.59,1241.94Z" transform="translate(-797.844 -1240.44)"/>
</svg>
