<?xml version="1.0" encoding="utf-8"?>
<!-- Generator: Adobe Illustrator 23.0.0, SVG Export Plug-In . SVG Version: 6.00 Build 0)  -->
<svg version="1.0" id="OBJECTS" xmlns="http://www.w3.org/2000/svg" xmlns:xlink="http://www.w3.org/1999/xlink" x="0px" y="0px"
	 viewBox="0 0 375.59 314.84" style="enable-background:new 0 0 375.59 314.84;" xml:space="preserve">
<style type="text/css">
	.st0{fill:#D0DADB;}
	.st1{fill:#FFFFFF;}
	.st2{fill:#E8B231;}
	.st3{fill:#FFF12D;}
	.st4{fill:#F8EA36;}
	.st5{fill:#E39E37;}
	.st6{fill:#F4D83B;}
	.st7{fill:#E7E7E6;}
	.st8{fill:#D5692E;}
	.st9{fill:#AA402D;}
	.st10{fill:#E8AE3A;}
	.st11{fill:#702B1F;}
	.st12{fill:#272525;}
</style>
<g>
	<g>
		<g>
			<path class="st0" d="M235.79,271.81H104.96l-16.38,7.18c-6.43,2.93-13.38,4.4-20.34,4.4c-6.48,0-12.97-1.27-19.04-3.83
				l-37.5-16.31c0.17,3.28,1.01,7.07,3.88,8.28l45.29,19.7c6.06,2.55,12.46,3.84,19.04,3.84c0,0,0,0,0,0
				c7.07,0,13.92-1.49,20.34-4.41l13.34-5.85h121.46c-0.69-1.14-1.07-2.36-0.87-3.63L235.79,271.81z"/>
			<path class="st0" d="M83.25,161.44c0.04,0.22,0.03,0.43-0.02,0.63l6.35,22.56c0.07,0.12,0.14,0.25,0.18,0.39
				c0.04,0.13,0.05,0.27,0.05,0.4l0.79,2.81l5.81-9.15l-7.02-24.94l-0.08-0.29l-0.18-0.23c-0.24-0.3-2.49-2.92-9.1-2.97l2.81,9.99
				C83.04,160.85,83.19,161.13,83.25,161.44z"/>
			<path class="st0" d="M321.22,203.06c0.56-1.88,0.22-3.85-0.93-5.4c-0.6-0.8-1.38-1.44-2.25-1.87c-0.15-0.12-0.32-0.25-0.5-0.38
				l-6.26,20.98l4.41,5.2L321.22,203.06z"/>
			<path class="st0" d="M280.3,192.21L214.12,87.87c-2.53-3.99-6.14-7-10.33-8.78l73.14,115.32L280.3,192.21z"/>
			<path class="st0" d="M371.66,300.32l-2.33-2.74c-3.49,4.81-6.63,5.21-6.99,5.24l-0.3,0.02l-0.28-0.09l-18-5.75
				c-0.1,0.02-0.19,0.04-0.29,0.04c-0.19,0-0.39-0.04-0.58-0.12c-0.2-0.09-0.38-0.21-0.52-0.37l-22.32-7.13
				c-0.15,0-0.29-0.02-0.44-0.07c-0.13-0.04-0.25-0.11-0.36-0.18l-21.98-7.02c-0.04,0-0.08,0.02-0.12,0.02
				c-0.12,0-0.24-0.01-0.36-0.04c-0.24-0.06-0.44-0.18-0.62-0.33l-24.5-7.82L250.24,291c-1.15,0.92-2.54,1.38-3.94,1.38
				c-1.1,0-2.2-0.29-3.2-0.87c-0.38-0.22-0.72-0.49-1.04-0.77c-0.88-0.49-1.95-1.14-3.02-1.91l-0.87,5.04
				c-0.63,4.02,4.59,7.55,7.59,9.23c1.14,1.03,2.64,1.62,4.17,1.62c1.37,0,2.68-0.46,3.79-1.35l20.77-16.48l87.24,27.86l0.27,0.09
				l0.29-0.02c0.37-0.03,3.76-0.46,7.37-5.93C373.15,303.61,371.82,300.65,371.66,300.32z"/>
		</g>
		<g>
			<path class="st1" d="M38.34,230.72c0.5,0.25,1.18,0.58,2.04,0.95c0.64,0.28,1.38,0.58,2.2,0.9c1.2,0.46,2.59,0.95,4.17,1.43
				c0.37,0.11,0.75,0.23,1.14,0.34c1.15,0.33,2.39,0.65,3.71,0.95c0.44,0.1,0.88,0.2,1.34,0.29c2.13,0.44,4.45,0.82,6.95,1.08
				c0.73,0.08,1.48,0.15,2.24,0.2c0.75,0.06,1.51,0.1,2.28,0.13c4.7,0.2,9.89-0.03,15.48-0.94c0.67-0.11,1.34-0.23,2.02-0.35
				c0.4-0.08,0.8-0.15,1.21-0.24c0.5-0.1,0.99-0.21,1.49-0.32c1.09-0.24,2.19-0.52,3.31-0.82l-0.04-0.17l-0.66-2.79l-0.06-0.25
				l-0.35-1.47l-0.41-1.71l-0.37-1.57l-3.09-12.99c-1.36,0.27-2.69,0.49-4,0.69c-0.87,0.13-1.73,0.24-2.58,0.34
				c-0.85,0.1-1.7,0.19-2.53,0.26c-2.17,0.18-4.27,0.26-6.3,0.26c-5.05,0-9.63-0.5-13.65-1.24c-4.4-0.81-8.12-1.92-11.06-2.99
				l-5.64,19.41c0.04,0.02,0.08,0.03,0.11,0.05C37.33,230.19,37.69,230.4,38.34,230.72z"/>
			<path class="st1" d="M59.64,161.02c-0.75-0.08-1.51-0.17-2.26-0.28l4.98-17.14c0.29-0.29,1.28-1.11,3.66-1.43l-0.01-0.06
				c-2.42,0.33-3.42,1.16-3.7,1.46l-5,17.22c0.77,0.11,1.54,0.21,2.31,0.29L59.64,161.02z"/>
			<path class="st1" d="M46.01,208.56c-0.81-0.26-1.57-0.52-2.28-0.78l5.85-20.16c0.73,0.18,1.5,0.35,2.28,0.52l0.01-0.05
				c-0.81-0.17-1.59-0.36-2.34-0.54l-5.88,20.27c0.73,0.27,1.51,0.54,2.33,0.8L46.01,208.56z"/>
			<path class="st1" d="M62.49,161.35c2.17,0.15,4.35,0.2,6.54,0.16c0.52-0.01,1.05-0.03,1.57-0.05l-0.02-0.07
				c-0.51,0.02-1.02,0.04-1.53,0.05c-2.2,0.04-4.38,0-6.56-0.16L62.49,161.35z"/>
			<path class="st1" d="M57.01,211.11l-0.01,0.06c5.43,0.8,11.77,1.08,18.86,0.3c0.85-0.09,1.71-0.21,2.58-0.33
				c0.87-0.13,1.75-0.27,2.64-0.43c0.39-0.07,0.78-0.15,1.17-0.22l-0.01-0.06c-0.37,0.07-0.74,0.14-1.11,0.21
				c-0.89,0.16-1.77,0.3-2.64,0.43c-0.87,0.13-1.73,0.24-2.58,0.33C68.81,212.19,62.45,211.91,57.01,211.11z"/>
			<path class="st1" d="M60.93,189.42c-0.51-0.04-1.02-0.09-1.51-0.14l-0.01,0.05c0.49,0.05,0.99,0.1,1.5,0.14
				c2.1,0.18,4.31,0.3,6.64,0.3c3.03,0,6.26-0.19,9.63-0.6l-0.01-0.05c-3.37,0.41-6.59,0.6-9.62,0.6
				C65.23,189.72,63.03,189.61,60.93,189.42z"/>
			<path class="st1" d="M76.48,186.18l-5.17-21.74c-1.05,0.05-2.1,0.07-3.15,0.08c-0.21,0-0.41,0.01-0.62,0.01
				c-3.73,0-7.42-0.29-11.08-0.83l-6.09,20.96c3.22,0.79,7.06,1.48,11.4,1.82C66.19,186.83,71.12,186.82,76.48,186.18z"/>
			<path class="st1" d="M87.9,259.76c-5.13,1.39-11.7,2.35-20.08,2.35l-0.89,0c-0.46,0-0.89-0.02-1.33-0.03
				c-0.93-0.02-1.84-0.05-2.72-0.1c-0.89-0.05-1.76-0.1-2.61-0.17c-22.06-1.84-27.12-11.68-28.02-14.05
				c-0.03-0.07-0.05-0.14-0.07-0.2l2.04-7.01l0.13-0.43l0.52-1.78l0.45-1.54l0.64-2.22l0.41-1.42c0.38,0.2,0.92,0.49,1.6,0.81
				c0.21,0.1,0.43,0.21,0.67,0.31l0.02-0.06c-0.21-0.1-0.41-0.19-0.6-0.28c-0.75-0.36-1.33-0.66-1.72-0.87l-0.44,1.53l-0.64,2.21
				l-0.45,1.54l-0.52,1.78l-0.13,0.44l-2.03,6.99c0.02,0.06,0.05,0.13,0.08,0.21c0.92,2.41,6.01,12.27,28.12,14.1
				c0.85,0.07,1.72,0.13,2.61,0.17c0.88,0.04,1.79,0.08,2.72,0.1c0.43,0.01,0.84,0.02,1.28,0.03c0.3,0,0.59,0,0.88,0
				c8.43,0,15.02-0.97,20.17-2.37c2.08-0.57,3.92-1.21,5.55-1.88l-0.01-0.05C91.87,258.55,90.01,259.19,87.9,259.76z"/>
			<path class="st1" d="M82.34,238.74c-1.57,0.3-3.11,0.55-4.62,0.75c-3.62,0.48-7.06,0.69-10.3,0.69c-1.68,0-3.3-0.06-4.87-0.16
				c-0.73-0.05-1.45-0.1-2.15-0.17c-0.72-0.07-1.42-0.14-2.11-0.23c-1.51-0.19-2.96-0.41-4.34-0.66l-0.01,0.05
				c1.38,0.25,2.81,0.48,4.32,0.67c0.69,0.08,1.4,0.15,2.11,0.22c0.7,0.07,1.42,0.12,2.15,0.17c1.58,0.1,3.2,0.17,4.89,0.17
				c3.23,0,6.66-0.21,10.26-0.69c1.51-0.2,3.05-0.44,4.62-0.74c1.58-0.3,3.19-0.65,4.82-1.07c0.42-0.11,0.85-0.22,1.27-0.33
				c0.08-0.02,0.16-0.04,0.24-0.06l-0.01-0.05c-0.11,0.03-0.22,0.06-0.33,0.09c-0.38,0.1-0.75,0.2-1.13,0.3
				C85.53,238.08,83.92,238.43,82.34,238.74z"/>
			<path class="st1" d="M314.67,225l-3.71-4.37c-0.04,0.02-0.07,0.05-0.11,0.07c-0.03,0.01-0.41,0.21-1.03,0.56
				c-0.49,0.28-1.13,0.67-1.92,1.18c-0.59,0.38-1.25,0.83-1.97,1.34c-1.05,0.75-2.22,1.64-3.49,2.69c-1.05,0.87-2.16,1.84-3.32,2.93
				c-0.14,0.14-0.29,0.27-0.43,0.41c-0.32,0.31-0.65,0.63-0.98,0.96c-0.02,0.02-0.04,0.03-0.05,0.05c-0.47,0.47-0.95,0.96-1.43,1.47
				c-2.72,2.88-5.55,6.37-8.23,10.51c-0.69,1.07-1.37,2.16-2.04,3.32c-1.02,1.76-1.99,3.63-2.92,5.61c-0.48,1.02-0.95,2.07-1.4,3.15
				c-0.05,0.12-0.1,0.23-0.14,0.35c-0.11,0.26-0.22,0.52-0.32,0.79c-0.6,1.49-1.17,3.03-1.7,4.63l0.16,0.06l2.69,0.98l1.65,0.6
				l1.65,0.6l7.59,2.77l2.44,0.89l2.32,0.85l1.7,0.62c0.5-1.22,1.02-2.41,1.56-3.56c1.64-3.51,3.43-6.71,5.29-9.59
				c4.38-6.76,9.17-11.83,13.35-15.49c1.48-1.29,2.88-2.41,4.16-3.36L314.67,225z"/>
			<path class="st1" d="M369.33,289.29l-11.61-13.66c-0.52,0.58-1.02,1.17-1.52,1.77l0.05,0.05c0.48-0.58,0.97-1.17,1.47-1.73
				l11.56,13.6c0.09,0.4,0.2,1.68-0.83,3.84l0.01,0l0,0l0.05,0.02C369.55,290.98,369.42,289.68,369.33,289.29z"/>
			<path class="st1" d="M354.25,279.84c-1.58,2.08-3.05,4.26-4.41,6.52l0.07,0.02c1.36-2.25,2.82-4.42,4.39-6.49
				c0.05-0.07,0.11-0.13,0.16-0.2l-0.06-0.05C354.35,279.71,354.3,279.78,354.25,279.84z"/>
			<path class="st1" d="M337.82,260.49c-3.98,4.29-8.22,9.94-11.85,17.14l21,7.67c1.62-2.72,3.38-5.34,5.29-7.81
				c1.11-1.44,2.28-2.82,3.49-4.17l-14.14-16.63C340.4,257.82,339.12,259.09,337.82,260.49z"/>
			<path class="st1" d="M324.08,239.88c0.66-0.53,1.3-1.02,1.91-1.47l13.6,15.99c-0.55,0.51-1.12,1.05-1.69,1.62l0.04,0.04
				c0.59-0.58,1.17-1.14,1.74-1.66L326,238.33c-0.62,0.46-1.28,0.96-1.96,1.51L324.08,239.88z"/>
			<path class="st1" d="M302.51,269.07l0.06,0.02c3.75-9.12,8.61-16.15,13.33-21.43l-0.05-0.04
				C311.13,252.9,306.27,259.94,302.51,269.07z"/>
			<path class="st1" d="M332.74,261.66c-1.63,1.97-3.26,4.14-4.86,6.56c-1.67,2.53-3.29,5.32-4.8,8.37l0.06,0.02
				c2.96-5.94,6.32-10.88,9.65-14.91L332.74,261.66z"/>
			<path class="st1" d="M281.34,248.24c0.27-0.53,0.54-1.06,0.81-1.58c0.64-1.2,1.29-2.34,1.95-3.45c0.68-1.13,1.37-2.23,2.07-3.28
				c2.68-4,5.48-7.35,8.17-10.16l-0.04-0.04c-2.69,2.8-5.49,6.16-8.16,10.15c-0.1,0.14-0.2,0.28-0.29,0.42
				c-0.6,0.91-1.2,1.86-1.78,2.84c-0.66,1.11-1.32,2.26-1.95,3.45c-0.29,0.54-0.57,1.09-0.85,1.64c-0.57,1.13-1.12,2.3-1.65,3.5
				c-0.5,1.13-0.99,2.3-1.46,3.5c-0.52,1.33-1.02,2.71-1.49,4.12c-0.03,0.08-0.05,0.16-0.08,0.24l0.06,0.02
				c0.04-0.11,0.07-0.22,0.11-0.33c0.47-1.39,0.96-2.74,1.47-4.05c0.47-1.2,0.96-2.36,1.47-3.5
				C280.22,250.53,280.77,249.37,281.34,248.24z"/>
			<path class="st1" d="M283,211.44c0.57-0.4,1.12-0.76,1.67-1.1c0.59-0.36,1.17-0.7,1.73-1c6.76-3.61,11.51-2.8,12.75-2.49
				l4.73,5.56l0.29,0.34l1.2,1.41l1.04,1.22l1.49,1.76l0.96,1.13c-0.38,0.2-0.91,0.5-1.56,0.89c-0.2,0.12-0.41,0.25-0.63,0.38
				l0.04,0.05c0.19-0.12,0.39-0.24,0.57-0.35c0.72-0.43,1.29-0.75,1.68-0.95l-1.03-1.21l-1.49-1.75l-1.04-1.22l-1.2-1.41l-0.29-0.35
				l-4.72-5.55c-1.25-0.32-6.02-1.14-12.82,2.49c-0.56,0.3-1.14,0.64-1.73,1c-0.55,0.34-1.1,0.7-1.67,1.1
				c-2.88,2.02-6.03,4.83-9.36,8.73c-0.76,0.89-1.54,1.86-2.32,2.87c-0.74,0.95-1.48,1.96-2.23,3.02c-0.41,0.58-0.82,1.17-1.24,1.79
				c-4.93,7.35-7.9,13.63-9.62,18.87c-0.17,0.53-0.34,1.05-0.49,1.56c-0.36,1.23-0.65,2.39-0.88,3.5c-0.04,0.2-0.09,0.41-0.13,0.6
				l0.06,0.02c0.04-0.2,0.08-0.41,0.13-0.62c0.23-1.11,0.52-2.27,0.88-3.5c0.15-0.52,0.32-1.06,0.5-1.61
				c1.66-5.05,4.48-11.06,9.1-18.05l0.49-0.74c0.41-0.61,0.82-1.2,1.23-1.77c0.75-1.06,1.49-2.07,2.23-3.02
				c0.78-1.01,1.56-1.98,2.32-2.87C276.98,216.27,280.12,213.45,283,211.44z"/>
			<polygon class="st1" points="149.72,221.22 154.71,221.22 154.71,218.18 149.72,218.18 149.72,215.86 155.21,215.86 
				155.21,212.79 146.52,212.79 146.52,226.77 155.31,226.77 155.31,223.7 149.72,223.7 			"/>
			<path class="st1" d="M168.79,219.95c0.47-0.73,0.71-1.52,0.71-2.37c0-1.33-0.47-2.46-1.4-3.4c-0.93-0.93-2.06-1.4-3.4-1.4h-5.59
				v13.98h3.2v-4.59h1.51l2.64,4.59h3.44l-2.98-5.13C167.69,221.24,168.31,220.68,168.79,219.95z M165.83,218.86
				c-0.31,0.35-0.69,0.52-1.13,0.52h-2.4v-3.6h2.4c0.44,0,0.82,0.17,1.13,0.52c0.31,0.35,0.47,0.77,0.47,1.28
				C166.3,218.09,166.14,218.51,165.83,218.86z"/>
			<path class="st1" d="M183.07,219.95c0.47-0.73,0.71-1.52,0.71-2.37c0-1.33-0.47-2.46-1.4-3.4c-0.93-0.93-2.06-1.4-3.4-1.4h-5.59
				v13.98h3.2v-4.59h1.51l2.64,4.59h3.44l-2.98-5.13C181.97,221.24,182.6,220.68,183.07,219.95z M180.11,218.86
				c-0.31,0.35-0.69,0.52-1.13,0.52h-2.4v-3.6h2.4c0.44,0,0.82,0.17,1.13,0.52c0.31,0.35,0.47,0.77,0.47,1.28
				C180.58,218.09,180.43,218.51,180.11,218.86z"/>
			<path class="st1" d="M194.15,212.51c-2.02,0-3.74,0.7-5.15,2.1c-1.41,1.4-2.12,3.12-2.12,5.17s0.71,3.78,2.12,5.17
				c1.41,1.4,3.13,2.1,5.15,2.1s3.74-0.7,5.15-2.1c1.41-1.4,2.12-3.12,2.12-5.17s-0.71-3.78-2.12-5.17
				C197.89,213.21,196.17,212.51,194.15,212.51z M197.05,222.78c-0.78,0.77-1.75,1.16-2.91,1.16c-1.16,0-2.13-0.39-2.91-1.16
				s-1.17-1.77-1.17-3c0-1.23,0.39-2.22,1.17-3c0.78-0.77,1.75-1.16,2.91-1.16c1.16,0,2.13,0.39,2.91,1.16
				c0.78,0.77,1.17,1.77,1.17,3C198.22,221,197.83,222,197.05,222.78z"/>
			<path class="st1" d="M214.89,219.95c0.47-0.73,0.71-1.52,0.71-2.37c0-1.33-0.47-2.46-1.4-3.4c-0.93-0.93-2.06-1.4-3.4-1.4h-5.59
				v13.98h3.2v-4.59h1.51l2.64,4.59H216l-2.98-5.13C213.8,221.24,214.42,220.68,214.89,219.95z M211.94,218.86
				c-0.31,0.35-0.69,0.52-1.13,0.52h-2.4v-3.6h2.4c0.44,0,0.82,0.17,1.13,0.52c0.31,0.35,0.47,0.77,0.47,1.28
				C212.4,218.09,212.25,218.51,211.94,218.86z"/>
		</g>
		<g>
			<path class="st2" d="M198.04,77.48l-0.3-0.47c-3.48-5.49-9.43-8.76-15.93-8.76c-6.5,0-12.45,3.27-15.93,8.76L97.86,184.26
				l-5.81,9.15l4,14.21c0.1,0.13,0.19,0.27,0.25,0.43c0.08,0.23,0.1,0.47,0.07,0.69l0.26,0.93l5.81-9.15L176.5,83.74
				c1.19-1.88,3.08-2.92,5.31-2.92c0.22,0,0.43,0.02,0.64,0.04c1.95,0.18,3.59,1.18,4.67,2.88l75.92,119.7
				c0.01-0.01,0.03-0.02,0.04-0.03l10.5-6.83L198.04,77.48z M174.91,81.92l-51.81,80.73c-0.69,1.08-1.86,1.66-3.05,1.66
				c-0.67,0-1.34-0.19-1.95-0.57c-1.68-1.08-2.17-3.31-1.09-4.99l51.81-80.73c1.08-1.68,3.31-2.17,4.99-1.09
				S175.99,80.24,174.91,81.92z"/>
			<path class="st2" d="M130.01,260.83l-15.93,6.99h122.4l2.16-12.57H133.42C132.99,257.67,132.02,259.91,130.01,260.83z"/>
		</g>
		<path class="st3" d="M180.91,191.05c4.43,0,6.65-3.69,6.65-11.07s-2.22-11.07-6.65-11.07s-6.65,3.69-6.65,11.07
			S176.47,191.05,180.91,191.05z"/>
		<path class="st3" d="M129.36,242.02c2.5,0.82,4.21,3.05,4.36,5.67c0.01,0.18-0.01,0.37-0.01,0.55h106.14l2-11.64
			c1.75-11.14,7.35-21.33,15.65-28.82L181.81,88.44L99.18,218.72l4.16,14.78L129.36,242.02z M226.54,234.22h-89.46v-26.97h89.46
			V234.22z M198.73,184.77l11.87-23.41h9.15l-11.87,23.41h7.77v-7.98h8.62v7.98H228v7.88h-3.72v5.96h-8.62v-5.96h-16.92V184.77z
			 M169.76,165.91c2.68-3.53,6.39-5.29,11.15-5.29c4.75,0,8.47,1.77,11.15,5.29c2.68,3.53,4.02,8.22,4.02,14.07
			c0,5.85-1.34,10.54-4.02,14.07c-2.68,3.53-6.39,5.29-11.15,5.29c-4.75,0-8.47-1.76-11.15-5.29c-2.68-3.53-4.02-8.22-4.02-14.07
			C165.74,174.13,167.08,169.44,169.76,165.91z M134.35,184.77l11.87-23.41h9.15l-11.87,23.41h7.77v-7.98h8.62v7.98h3.72v7.88h-3.72
			v5.96h-8.62v-5.96h-16.92V184.77z"/>
		<path class="st4" d="M118.11,163.74c0.6,0.39,1.28,0.57,1.95,0.57c1.19,0,2.36-0.59,3.05-1.66l51.81-80.73
			c1.08-1.68,0.59-3.92-1.09-4.99s-3.92-0.59-4.99,1.09l-51.81,80.73C115.94,160.43,116.43,162.66,118.11,163.74z"/>
		<g>
			<path class="st5" d="M128.43,244.87l-1.55-0.51l-22.55-7.38l0.45,1.61l0.94,3.35l0.29,1.03l1.49,5.28l0.5,1.79l-0.23,0.5
				c-0.04,0.1-0.26,0.54-0.72,1.21c-0.59,0.86-1.6,2.11-3.18,3.5c-2.39,2.1-6.12,4.53-11.75,6.47c0.04,0.02,0.08,0.04,0.12,0.06
				l-8.78,3.85c-1.9,0.86-3.83,1.57-5.78,2.14c-1.58,0.46-3.18,0.84-4.8,1.11c-1.37,0.23-2.76,0.38-4.15,0.48
				c-0.94,0.06-1.87,0.1-2.82,0.1c0,0,0,0,0,0c-5.64,0-11.14-1.11-16.35-3.3l-32.02-13.93l-8.68-3.78
				c-0.09-0.04-0.16-0.09-0.23-0.14c-0.64-0.46-0.65-1.39-0.08-1.88c0.12-0.11,0.26-0.2,0.44-0.25l22.39-6.77l0.51-1.76l0.58-2
				l-27.05,8.18c-0.42,0.13-0.77,0.31-1.07,0.53c-0.88,0.66-1.26,1.65-1.3,2.49c-0.01,0.28,0.01,0.59,0.07,0.9
				c0.15,0.69,0.53,1.39,1.21,1.91c0.22,0.17,0.47,0.32,0.76,0.45l0.02,0.01l8.77,3.81l36.51,15.88c9.45,3.97,19.96,4.63,29.77,2.02
				c1.99-0.53,3.95-1.2,5.87-2c0.45-0.19,0.9-0.37,1.35-0.57l3.26-1.43l28.68-12.57l7.98-3.5l1.51-0.66
				c0.24-0.11,0.45-0.25,0.65-0.39c0.65-0.49,1.02-1.15,1.18-1.81c0.05-0.21,0.09-0.42,0.1-0.63c0.01-0.13,0.01-0.26,0-0.38
				C130.66,246.75,130.03,245.39,128.43,244.87z"/>
			<path class="st5" d="M315.82,182.93c-0.23-0.17-0.5-0.31-0.79-0.43c-0.37-0.15-0.78-0.24-1.21-0.24c-0.34,0-0.69,0.06-1.05,0.19
				c-0.26,0.09-0.53,0.22-0.79,0.39l-0.01,0.01l-26.62,17.32l-3.37,2.19l-1.68,1.09l-1.68,1.09l-8.05,5.24
				c-0.83,0.55-1.63,1.14-2.42,1.75c-0.94,0.72-1.84,1.47-2.71,2.26c-0.89,0.8-1.75,1.63-2.57,2.49
				c-6.42,6.74-10.75,15.35-12.22,24.67l-1.25,7.29l-0.6,3.5l-0.6,3.5l-2.16,12.57l-0.34,2l-0.34,2l-2.36,13.72
				c-0.04,0.27-0.04,0.51-0.03,0.76c0.05,0.82,0.4,1.49,0.86,1.99c0.24,0.26,0.51,0.48,0.79,0.64c0.95,0.55,2.44,0.78,3.76-0.27
				l1.27-1.01l18.6-14.76l-1.59-0.51l-1.76-0.56l-1.55-0.49l-1.02-0.33l-3.69-1.18l-3.3-1.05l-0.29-0.47
				c-0.03-0.05-0.13-0.21-0.26-0.47c-0.67-1.35-2.31-5.51-1.58-12.57c0.11-1.1,0.28-2.26,0.53-3.5c0.17-0.85,0.38-1.75,0.61-2.67
				c-0.04,0.02-0.08,0.05-0.12,0.07l0.16-0.9l1.47-8.55c0.96-6.08,3.13-11.69,6.48-16.75c0,0,0,0,0,0c0.8-1.21,1.66-2.38,2.57-3.49
				c0.77-0.94,1.58-1.84,2.43-2.71c0.83-0.85,1.7-1.66,2.6-2.44c1.32-1.14,2.7-2.21,4.16-3.18l6.16-4.01l1.68-1.09l1.68-1.09
				l3.37-2.19l24.32-15.83c0.08-0.05,0.16-0.08,0.25-0.11c0.74-0.28,1.52,0.23,1.61,0.97c0.02,0.16,0.02,0.33-0.03,0.5l-1.19,3.98
				l-5.5,18.44l1.19,1.4l1.35,1.58l5.96-19.99l2.12-7.1c0.12-0.42,0.17-0.81,0.15-1.18C317.12,184.3,316.51,183.44,315.82,182.93z"
				/>
		</g>
		<g>
			<path class="st6" d="M69.44,265.15c-0.54,0.01-1.06,0.02-1.61,0.02c-0.31,0-0.61,0-0.92,0c-0.32,0-0.62-0.02-0.93-0.02
				c-1.06-0.02-2.08-0.05-3.08-0.1c-26.62-1.3-32.49-13.21-33.58-16.4c-0.14-0.41-0.21-0.69-0.22-0.77l-0.08-0.37l0.1-0.36
				l1.61-5.54l0.19-0.65l0.45-1.56l-22.39,6.77c-0.18,0.05-0.31,0.14-0.44,0.25c-0.57,0.49-0.56,1.42,0.08,1.88
				c0.07,0.05,0.14,0.11,0.23,0.14l8.68,3.78l32.02,13.93c5.2,2.19,10.7,3.3,16.35,3.3c0,0,0,0,0,0c0.95,0,1.88-0.04,2.82-0.1
				c1.39-0.09,2.78-0.25,4.15-0.48c1.62-0.27,3.22-0.64,4.8-1.11c1.96-0.57,3.89-1.28,5.78-2.14l8.78-3.85
				c-0.04-0.02-0.08-0.04-0.12-0.06C86.58,263.6,79.2,265.01,69.44,265.15z"/>
			<path class="st6" d="M313.15,187.76c-0.09-0.74-0.88-1.25-1.61-0.97c-0.08,0.03-0.17,0.06-0.25,0.11l-24.32,15.83l-3.37,2.19
				l-1.68,1.09l-1.68,1.09l-6.16,4.01c-1.46,0.98-2.85,2.05-4.16,3.18c-0.9,0.78-1.77,1.59-2.6,2.44c-0.85,0.87-1.66,1.77-2.43,2.71
				c-0.91,1.11-1.77,2.28-2.57,3.49c0,0,0,0,0,0c-3.35,5.07-5.52,10.68-6.48,16.75l-1.47,8.55l-0.16,0.9
				c0.04-0.02,0.08-0.05,0.12-0.07c0.07-0.28,0.14-0.55,0.22-0.83c1.66-5.99,4.9-13.35,10.78-22.11c0.67-1,1.33-1.94,2-2.85
				c0.76-1.05,1.51-2.03,2.26-2.98c0.79-1,1.57-1.95,2.35-2.83c3.32-3.8,6.47-6.6,9.4-8.65c0.56-0.39,1.12-0.77,1.66-1.11
				c0.59-0.37,1.16-0.71,1.72-1.01c9.21-5.04,15.46-2.75,15.87-2.59l0.35,0.14l3.98,4.69l0.44,0.52l1.05,1.24l5.5-18.44l1.19-3.98
				C313.17,188.09,313.17,187.92,313.15,187.76z"/>
		</g>
		<g>
			<path class="st7" d="M76.96,150.87l-2.03-7.19c-0.52-0.43-2.43-1.69-6.78-1.69c-0.82,0-1.53,0.05-2.15,0.14l0.01,0.06v0
				c0,0,0,0,0,0c0.29-0.04,0.61-0.07,0.94-0.09c0.04,0,0.09,0,0.13-0.01c0.33-0.02,0.68-0.03,1.06-0.03c4.3,0,6.2,1.23,6.73,1.66
				l2.02,7.17l2.71,9.61c-0.84,0.13-1.67,0.25-2.51,0.36c-0.39,0.05-0.78,0.09-1.17,0.13c-0.41,0.05-0.82,0.09-1.23,0.13
				c-0.52,0.05-1.04,0.09-1.56,0.13c-0.24,0.02-0.48,0.03-0.72,0.05c-0.61,0.04-1.22,0.08-1.83,0.1c0,0,0,0,0,0v0h0l0.02,0.07
				c3.01-0.12,6.04-0.43,9.08-0.92L76.96,150.87z"/>
			<path class="st7" d="M80.5,163.44c-3.07,0.51-6.14,0.85-9.19,1l5.17,21.74c3.16-0.37,6.47-0.97,9.91-1.83L80.5,163.44z"/>
			<path class="st7" d="M89.9,196.81l-0.73-2.59l-0.73-2.59l-1.24-4.4c-3.47,0.87-6.82,1.48-10.02,1.88l0.01,0.05c0,0,0.01,0,0.01,0
				c1.59-0.2,3.21-0.44,4.86-0.75c0.12-0.02,0.25-0.05,0.37-0.07c0.71-0.13,1.42-0.27,2.14-0.43c0.85-0.19,1.71-0.39,2.58-0.6
				l1.24,4.39l0.73,2.59l0.73,2.59l3.02,10.72c-0.84,0.28-1.67,0.54-2.5,0.79c-0.21,0.06-0.41,0.12-0.62,0.18
				c-0.68,0.2-1.35,0.39-2.02,0.57c-0.15,0.04-0.29,0.08-0.44,0.12c-1.72,0.45-3.4,0.83-5.05,1.16c0,0,0,0,0,0v0c0,0,0,0,0,0
				l0.01,0.06c3.43-0.67,6.99-1.6,10.69-2.85L89.9,196.81z"/>
			<path class="st7" d="M104.57,249.14l0.15,0.55c-0.28,0.44-0.81,1.16-1.67,2.05c-0.99,1.02-2.41,2.25-4.4,3.5
				c-1.41,0.89-3.11,1.78-5.13,2.63l0.01,0.05c2.07-0.86,3.8-1.78,5.23-2.68c1.98-1.25,3.39-2.48,4.37-3.5
				c0.85-0.89,1.38-1.61,1.66-2.04l-0.18-0.62C104.6,249.1,104.58,249.12,104.57,249.14z"/>
			<path class="st7" d="M88.65,237.28c-0.01,0-0.01,0-0.02,0.01l0.01,0.05c0.03-0.01,0.07-0.02,0.1-0.03
				c0.02-0.01,0.05-0.01,0.07-0.02l-0.01-0.05C88.75,237.25,88.7,237.26,88.65,237.28z"/>
			<path class="st7" d="M96.91,231.39c0.81-0.31,1.63-0.66,2.44-1l-2.33-8.26l-1.27-4.53l-1.27-4.52l-0.72-2.56
				c-3.73,1.25-7.34,2.2-10.81,2.88l3.09,12.99l0.37,1.57l0.41,1.71l0.35,1.47l0.06,0.25l0.66,2.79l0.04,0.17
				c0.1-0.03,0.19-0.05,0.29-0.08c0.45-0.12,0.9-0.25,1.36-0.38c0.9-0.26,1.8-0.54,2.71-0.84c0.78-0.25,1.56-0.52,2.36-0.81
				C95.39,231.96,96.14,231.69,96.91,231.39z"/>
			<path class="st7" d="M368.45,293.16c-0.06,0.12-0.13,0.25-0.2,0.37c-0.07,0.14-0.14,0.27-0.22,0.41
				c-0.19,0.34-0.4,0.69-0.65,1.07c-0.04,0.06-0.07,0.11-0.11,0.16c-2.32,3.45-4.35,4.34-4.99,4.54l-16.61-5.3
				c0.35-0.77,0.71-1.53,1.08-2.29c0.17-0.36,0.36-0.7,0.54-1.06c0.19-0.36,0.37-0.73,0.57-1.09c0.25-0.46,0.5-0.92,0.75-1.38
				c0.12-0.21,0.23-0.41,0.35-0.62c0.3-0.53,0.61-1.07,0.93-1.59l-0.07-0.02c-1.56,2.58-2.97,5.28-4.23,8.08l16.69,5.33
				c0.63-0.2,2.68-1.07,5.03-4.55c0.04-0.06,0.08-0.11,0.12-0.17c0.46-0.69,0.79-1.3,1.06-1.87L368.45,293.16z"/>
			<path class="st7" d="M325.97,277.64c-1.43,2.84-2.75,5.94-3.93,9.28l20.7,6.61c1.27-2.84,2.68-5.59,4.23-8.22L325.97,277.64z"/>
			<path class="st7" d="M323.08,276.58c-0.71,1.44-1.4,2.93-2.06,4.48c-0.05,0.12-0.1,0.25-0.15,0.37c-0.27,0.66-0.55,1.32-0.81,2
				c-0.32,0.81-0.62,1.64-0.92,2.49l-20.07-6.41c0.23-0.86,0.47-1.69,0.71-2.52c0.06-0.21,0.13-0.41,0.19-0.62
				c0.21-0.68,0.42-1.35,0.64-2.01c0.05-0.14,0.09-0.28,0.14-0.42c0.57-1.68,1.18-3.3,1.82-4.86l-0.06-0.02
				c-1.33,3.23-2.52,6.72-3.51,10.49l20.18,6.45c1.19-3.38,2.52-6.51,3.96-9.4L323.08,276.58z"/>
			<path class="st7" d="M297.99,267.42l-2.32-0.85l-2.44-0.89l-7.59-2.77l-1.65-0.6l-1.65-0.6l-2.69-0.98l-0.16-0.06
				c-0.03,0.09-0.06,0.19-0.09,0.28c-0.43,1.32-0.84,2.67-1.22,4.07c-0.22,0.79-0.42,1.59-0.62,2.41c-0.03,0.13-0.06,0.26-0.09,0.39
				c-0.16,0.65-0.32,1.29-0.46,1.96c0,0.01-0.01,0.03-0.01,0.04c-0.14,0.65-0.26,1.33-0.39,2c-0.04,0.19-0.07,0.37-0.11,0.55
				l19.66,6.28c1.01-3.8,2.21-7.33,3.56-10.6L297.99,267.42z"/>
			<path class="st7" d="M257.41,266.21c-0.54-1.23-1.77-4.87-1.09-10.98c0.1-0.91,0.25-1.86,0.44-2.88l-0.06-0.02
				c-0.2,1.02-0.34,1.99-0.44,2.9c-0.69,6.15,0.57,9.8,1.1,11.02l0.62,0.2c-0.01-0.02-0.02-0.05-0.03-0.07L257.41,266.21z"/>
			<path class="st7" d="M276.64,259.63c0,0,0-0.01,0-0.01l-0.06-0.02c-0.01,0.03-0.02,0.07-0.03,0.1c-0.01,0.02-0.02,0.05-0.02,0.07
				l0.06,0.02C276.6,259.74,276.62,259.68,276.64,259.63z"/>
		</g>
		<g>
			<path class="st8" d="M126.77,255.24l-28.68,12.57l-4.56,2l-4.56,2l-0.38,0.17c-6.43,2.93-13.38,4.4-20.34,4.4
				c-6.48,0-12.97-1.27-19.04-3.83l-37.08-16.13l-8.2-3.57c-0.29-0.12-0.56-0.26-0.82-0.42c0.21,2.19,0.77,4.16,1.99,4.67l0.02,0.01
				l6.62,2.88l38.66,16.81c11.81,4.97,25.3,4.77,36.98-0.55l10.13-4.44l4.56-2l4.56-2l22.18-9.72c0.77-0.35,1.27-1.44,1.57-2.85
				c0.12-0.54,0.2-1.13,0.26-1.75c-0.2,0.12-0.39,0.23-0.6,0.33L126.77,255.24z"/>
			<path class="st8" d="M60.27,261.81c0.84,0.07,1.71,0.13,2.61,0.17c0.88,0.05,1.79,0.08,2.72,0.1c0.44,0.01,0.88,0.02,1.33,0.03
				l0.89,0c8.38,0,14.95-0.96,20.08-2.35c2.11-0.57,3.97-1.22,5.62-1.9c2.03-0.84,3.72-1.74,5.13-2.63c1.99-1.25,3.41-2.48,4.4-3.5
				c0.86-0.89,1.39-1.61,1.67-2.05l-0.15-0.55c-0.41,0.59-1.14,1.51-2.32,2.6c-1.16,1.07-2.76,2.29-4.91,3.5
				c-1.12,0.63-2.38,1.25-3.82,1.85l-0.44-1.85l-0.83-3.5l-0.83-3.5l-2.55-10.71l-0.04-0.19l-0.01-0.05
				c-0.02,0.01-0.05,0.01-0.07,0.02c-0.03,0.01-0.07,0.02-0.1,0.03c-0.08,0.02-0.16,0.04-0.24,0.06c-0.43,0.11-0.85,0.23-1.27,0.33
				c-1.64,0.41-3.24,0.77-4.82,1.07c-1.57,0.3-3.11,0.54-4.62,0.74c-3.6,0.48-7.04,0.69-10.26,0.69c-1.69,0-3.31-0.07-4.89-0.17
				c-0.73-0.05-1.45-0.1-2.15-0.17c-0.71-0.07-1.42-0.14-2.11-0.22c-1.51-0.19-2.95-0.41-4.32-0.67l-0.37,3.37l-1.65,14.99
				c0,0-10.97-0.45-16.95-10.32l0.04-0.12l2.08-7.24l0.07-0.25l0.56-1.96l0.39-1.36l0.52-1.83c-0.24-0.11-0.46-0.21-0.67-0.31
				c-0.68-0.33-1.23-0.61-1.6-0.81l-0.41,1.42l-0.64,2.22l-0.45,1.54l-0.52,1.78l-0.13,0.43l-2.04,7.01
				c0.02,0.06,0.04,0.12,0.07,0.2C33.15,250.13,38.22,259.97,60.27,261.81z"/>
			<path class="st8" d="M64.32,144.71l-1.82,16.57c2.17,0.15,4.36,0.2,6.56,0.16c0.51-0.01,1.02-0.03,1.53-0.05h0l-0.68-2.87
				l-3.88-16.33c-2.38,0.32-3.37,1.14-3.66,1.43l-4.98,17.14c0.75,0.11,1.5,0.19,2.26,0.28L64.32,144.71z"/>
			<path class="st8" d="M51.87,188.14c-0.79-0.17-1.55-0.34-2.28-0.52l-5.85,20.16c0.71,0.26,1.47,0.52,2.28,0.78L51.87,188.14z"/>
			<path class="st8" d="M75.91,211.39c0.85-0.1,1.71-0.21,2.58-0.33c0.87-0.13,1.75-0.27,2.64-0.43c0.37-0.07,0.74-0.14,1.11-0.21
				c0,0,0,0,0,0l-0.27-1.12l-0.65-2.72l-0.65-2.72l-3.49-14.7c0,0,0.01,0,0.01,0c0,0-0.01,0-0.01,0c-3.38,0.42-6.6,0.6-9.63,0.6
				c-2.33,0-4.54-0.11-6.64-0.3c-0.51-0.04-1.01-0.09-1.5-0.14l-0.94,8.56l-1.45,13.21C62.45,211.91,68.81,212.19,75.91,211.39z"/>
			<path class="st8" d="M87.3,209.26c-1.72,0.45-3.4,0.83-5.05,1.16C83.9,210.09,85.58,209.71,87.3,209.26z"/>
			<path class="st8" d="M263.83,211.22c0.88-0.78,1.79-1.53,2.73-2.24c0.78-0.59,1.57-1.16,2.38-1.71l8.09-5.27l1.68-1.09l1.68-1.09
				l3.37-2.19l26.58-17.3c0.26-0.17,0.53-0.32,0.8-0.45c-1.35-0.72-2.71-1.24-3.78-1.24c-0.47,0-0.88,0.1-1.21,0.32l-0.01,0.01
				l-24.21,15.75l-3.37,2.19l-1.68,1.09l-1.68,1.09l-10.45,6.8c-0.03,0.02-0.06,0.04-0.08,0.06c-0.97,0.65-1.91,1.35-2.83,2.08
				c-0.93,0.73-1.83,1.49-2.7,2.28c-7.58,7-12.69,16.44-14.31,26.74l-1.92,11.15l-0.6,3.5l-0.6,3.5l-2.16,12.57l-0.34,2l-0.34,2
				l-1.7,9.86c-0.14,0.91,0.61,2.03,1.78,3.14c0.22,0.21,0.46,0.42,0.71,0.63c0.11,0.1,0.23,0.19,0.35,0.29
				c0.01-0.23,0.02-0.46,0.06-0.68l2.28-13.24l0.34-2l0.34-2l2.16-12.57l0.6-3.5l0.6-3.5l1.34-7.78c1.6-10.17,6.39-19.54,13.53-26.8
				C262.06,212.82,262.94,212.01,263.83,211.22z"/>
			<path class="st8" d="M303.21,215.49l1.33,1.55l0.92,1.07l1.24,1.44c0.22-0.14,0.43-0.27,0.63-0.38c0.65-0.39,1.19-0.69,1.56-0.89
				l-0.96-1.13l-1.49-1.76l-1.04-1.22l-1.2-1.41l-0.29-0.34l-4.73-5.56c-1.24-0.32-5.99-1.13-12.75,2.49c-0.56,0.3-1.14,0.64-1.73,1
				c-0.55,0.34-1.1,0.7-1.67,1.1c-2.88,2.02-6.03,4.83-9.35,8.73c-0.76,0.9-1.54,1.86-2.32,2.87c-0.74,0.95-1.48,1.96-2.23,3.02
				c-0.41,0.58-0.81,1.16-1.23,1.77l-0.49,0.74c-4.62,6.99-7.44,13-9.1,18.05c-0.18,0.55-0.35,1.09-0.5,1.61
				c-0.36,1.23-0.65,2.39-0.88,3.5c-0.04,0.21-0.09,0.42-0.13,0.62c-0.2,1.01-0.34,1.97-0.44,2.88c-0.69,6.1,0.55,9.74,1.09,10.98
				l0.54,0.17c-0.59-1.47-1.67-5.17-0.93-11.15c0.1-0.78,0.22-1.59,0.39-2.45l6.7,2.45l12.18,4.45l0.18,0.07l0.05,0.02
				c0.01-0.02,0.02-0.05,0.02-0.07c0.01-0.03,0.02-0.07,0.03-0.1c0.03-0.08,0.05-0.16,0.08-0.24c0.47-1.42,0.97-2.79,1.49-4.12
				c0.47-1.2,0.95-2.37,1.46-3.5c0.53-1.2,1.09-2.37,1.65-3.5c0.28-0.56,0.56-1.11,0.85-1.64c0.64-1.2,1.29-2.34,1.95-3.45
				c0.59-0.98,1.18-1.93,1.78-2.84c0.1-0.15,0.2-0.28,0.29-0.42c2.67-3.99,5.47-7.35,8.16-10.15l-2.61-2.17l-11.6-9.64
				c0,0,1.51-2.08,4.36-4.18c0.51-0.38,1.06-0.75,1.66-1.12c0.55-0.34,1.14-0.65,1.76-0.96c2.73-1.36,6.13-2.36,10.17-2.2l4.98,5.82
				L303.21,215.49z"/>
			<path class="st8" d="M369.28,289.31l-11.56-13.6c-0.5,0.57-0.99,1.15-1.47,1.73l11.04,12.9l-12.82-10.65
				c-0.05,0.07-0.11,0.13-0.16,0.2c-1.57,2.07-3.03,4.24-4.39,6.49c-0.32,0.53-0.62,1.06-0.93,1.59c0.31-0.53,0.61-1.07,0.93-1.59v0
				l14.36,5.25l4.17,1.52C369.48,291,369.36,289.71,369.28,289.31z"/>
			<path class="st8" d="M324.08,239.88l13.81,16.14c0.57-0.56,1.14-1.11,1.69-1.62l-13.6-15.99
				C325.38,238.86,324.74,239.35,324.08,239.88z"/>
			<path class="st8" d="M302.57,269.09c-0.64,1.56-1.25,3.18-1.82,4.86C301.32,272.27,301.93,270.65,302.57,269.09l10.94,4l9.57,3.5
				c1.51-3.05,3.13-5.84,4.8-8.37c1.59-2.41,3.23-4.59,4.86-6.56l-16.85-13.99C311.18,252.94,306.32,259.97,302.57,269.09z"/>
		</g>
		<g>
			<path class="st9" d="M102.57,241.84l-0.22-0.79l-0.94-3.35l-0.52-1.85l-0.49-1.74l-0.23-0.81c-0.33,0.14-0.66,0.28-0.99,0.41
				c-0.74,0.3-1.47,0.58-2.2,0.86c-1.07,0.41-2.13,0.78-3.19,1.14c-1.69,0.57-3.36,1.07-5,1.52l0.01,0.05l0.01,0.05l0.04,0.19
				l2.55,10.71l0.83,3.5l0.83,3.5l0.44,1.85c1.43-0.6,2.7-1.22,3.82-1.85c2.15-1.21,3.75-2.43,4.91-3.5
				c1.18-1.09,1.91-2.01,2.32-2.6c0.02-0.02,0.03-0.04,0.04-0.06l-0.24-0.84L102.57,241.84z M95.78,239.61l-0.08-0.3l-0.1-0.39
				c-0.21-0.8,0.27-1.62,1.07-1.83c0.8-0.21,1.62,0.27,1.83,1.07l0.53,2.03l0.14,0.54l1.98,7.51l0.2,0.76
				c0.21,0.8-0.27,1.62-1.07,1.83c-0.13,0.03-0.26,0.05-0.38,0.05c-0.66,0-1.27-0.44-1.45-1.12l-0.4-1.53L95.78,239.61z"/>
			<path class="st9" d="M76.9,150.88l-2.02-7.17c-0.53-0.43-2.43-1.66-6.73-1.66c-0.38,0-0.73,0.01-1.06,0.03
				c-0.04,0-0.09,0-0.13,0.01c-0.33,0.02-0.65,0.05-0.94,0.09c0,0,0,0,0,0v0l3.88,16.33l0.68,2.87v0c0,0,0,0,0,0
				c0.61-0.02,1.22-0.06,1.83-0.1c0.24-0.02,0.48-0.03,0.72-0.05c0.52-0.04,1.04-0.08,1.56-0.13c0.41-0.04,0.82-0.08,1.23-0.13
				c0.39-0.04,0.78-0.08,1.17-0.13c0.84-0.11,1.67-0.22,2.51-0.36L76.9,150.88z M75.34,157.53c-0.12,0.03-0.25,0.05-0.37,0.05
				c-0.67,0-1.28-0.45-1.45-1.13l-0.99-3.89l-1.29-5.07c-0.2-0.8,0.28-1.62,1.09-1.82c0.8-0.2,1.62,0.28,1.82,1.09l1.14,4.49
				l1.13,4.47C76.63,156.51,76.15,157.32,75.34,157.53z"/>
			<path class="st9" d="M90.38,208.39c0.83-0.25,1.66-0.51,2.5-0.79l-3.02-10.72l-0.73-2.59l-0.73-2.59l-1.24-4.39
				c-0.87,0.22-1.73,0.42-2.58,0.6c-0.72,0.16-1.43,0.3-2.14,0.43c-0.12,0.02-0.25,0.05-0.37,0.07c-1.65,0.31-3.27,0.55-4.86,0.75
				c0,0-0.01,0-0.01,0l3.49,14.7l0.65,2.72l0.65,2.72l0.27,1.12v0c0,0,0,0,0,0c1.65-0.32,3.34-0.71,5.05-1.16
				c0.14-0.04,0.29-0.08,0.44-0.12c0.67-0.18,1.34-0.37,2.02-0.57C89.96,208.51,90.17,208.45,90.38,208.39z M88.34,206.16
				c-0.13,0.03-0.26,0.05-0.38,0.05c-0.66,0-1.27-0.44-1.45-1.12l-0.55-2.07l-0.7-2.63l-0.7-2.63L83,191.84
				c-0.21-0.8,0.27-1.62,1.07-1.83c0.8-0.21,1.62,0.27,1.83,1.07l0.85,3.22l0.7,2.63l0.7,2.63l1.26,4.76
				C89.62,205.12,89.14,205.95,88.34,206.16z"/>
			<path class="st9" d="M276.48,259.75l-0.18-0.07l-12.18-4.45l-6.7-2.45c-0.17,0.86-0.29,1.67-0.39,2.45
				c-0.75,5.98,0.34,9.68,0.93,11.15c0.01,0.03,0.02,0.05,0.03,0.07l4.24,1.35l2.92,0.93l0.78,0.25l2.56,0.82l0.75,0.24l1.83,0.59
				l1.72,0.55l0.81,0.26c0.07-0.36,0.14-0.71,0.21-1.07c0.04-0.19,0.07-0.38,0.11-0.57c0.12-0.58,0.25-1.16,0.37-1.73
				c0.02-0.09,0.04-0.18,0.06-0.27c0.23-1.02,0.48-2.03,0.74-3.02c0.46-1.72,0.95-3.39,1.48-5l-0.06-0.02L276.48,259.75z
				 M270.74,264.3l0.3,0.1l0.38,0.13c0.78,0.26,1.21,1.12,0.94,1.9c-0.21,0.63-0.79,1.02-1.42,1.02c-0.16,0-0.32-0.03-0.48-0.08
				l-1.99-0.67l-0.53-0.18l-8.1-2.74c-0.78-0.26-1.21-1.12-0.94-1.9c0.26-0.78,1.12-1.21,1.9-0.94L270.74,264.3z"/>
			<path class="st9" d="M368.44,293.15l-4.17-1.52l-14.36-5.25v0c-0.32,0.53-0.62,1.06-0.93,1.59c-0.12,0.21-0.24,0.41-0.35,0.62
				c-0.25,0.46-0.5,0.91-0.75,1.38c-0.19,0.36-0.38,0.73-0.57,1.09c-0.18,0.35-0.36,0.7-0.54,1.06c-0.37,0.76-0.74,1.52-1.08,2.29
				l16.61,5.3c0.64-0.2,2.66-1.09,4.99-4.54c0.04-0.05,0.07-0.1,0.11-0.16c0.25-0.38,0.46-0.73,0.65-1.07
				c0.08-0.14,0.15-0.28,0.22-0.41C368.32,293.41,368.39,293.28,368.44,293.15L368.44,293.15L368.44,293.15z M362.07,296.51
				c-0.21,0.62-0.8,1.01-1.42,1.01c-0.16,0-0.33-0.03-0.49-0.08l-8.73-3.04c-0.78-0.27-1.2-1.13-0.92-1.91
				c0.27-0.78,1.13-1.2,1.91-0.92l8.73,3.04C361.93,294.87,362.35,295.73,362.07,296.51z"/>
			<path class="st9" d="M302.57,269.09c-0.64,1.56-1.25,3.18-1.82,4.86c-0.05,0.14-0.09,0.28-0.14,0.42
				c-0.22,0.66-0.43,1.33-0.64,2.01c-0.06,0.21-0.13,0.41-0.19,0.62c-0.25,0.83-0.49,1.67-0.71,2.52l20.07,6.41
				c0.3-0.85,0.61-1.68,0.92-2.49c0.26-0.68,0.54-1.34,0.81-2c0.05-0.12,0.1-0.25,0.15-0.37c0.66-1.55,1.35-3.05,2.06-4.48
				l-9.57-3.5L302.57,269.09z M318.59,281.86c-0.21,0.63-0.8,1.02-1.42,1.02c-0.16,0-0.32-0.03-0.48-0.08l-12.99-4.37
				c-0.79-0.26-1.21-1.12-0.94-1.9s1.11-1.21,1.9-0.94l12.99,4.37C318.44,280.23,318.86,281.08,318.59,281.86z"/>
		</g>
		<g>
			<path class="st10" d="M59.62,161.09c0.95,0.1,1.91,0.19,2.87,0.26l0.01-0.07l1.82-16.57l-4.68,16.32L59.62,161.09z"/>
			<path class="st10" d="M51.87,188.14l-5.86,20.42l-0.02,0.06c2.48,0.8,5.41,1.58,8.73,2.18c0.74,0.13,1.5,0.26,2.28,0.37
				l0.01-0.06l1.45-13.21l0.94-8.56l0.01-0.05c-2.73-0.29-5.26-0.71-7.53-1.2L51.87,188.14z"/>
			<path class="st10" d="M46.47,237.16c-0.17-0.05-0.35-0.1-0.52-0.16c-1.79-0.55-3.36-1.12-4.7-1.66c-1-0.4-1.87-0.78-2.6-1.12
				l-0.02,0.06l-0.52,1.83l-0.39,1.36l-0.56,1.96l-0.07,0.25l-2.08,7.24l-0.04,0.12c5.97,9.87,16.95,10.32,16.95,10.32l1.65-14.99
				l0.37-3.37l0.01-0.05c-2.55-0.47-4.87-1.03-6.92-1.63C46.84,237.27,46.66,237.21,46.47,237.16z"/>
			<path class="st10" d="M356.24,277.45l-0.05-0.05c-0.61,0.74-1.21,1.49-1.8,2.25l0.06,0.05l12.82,10.65L356.24,277.45z"/>
			<path class="st10" d="M324.08,239.88l-0.04-0.05c-0.71,0.57-1.45,1.18-2.21,1.85c-1.9,1.66-3.93,3.63-5.99,5.94l0.05,0.04
				l16.85,13.99l0.05,0.04c1.03-1.25,2.06-2.42,3.08-3.5c0.7-0.75,1.39-1.46,2.07-2.13l-0.04-0.04L324.08,239.88z"/>
			<path class="st10" d="M305.45,218.11l-0.92-1.07l-1.33-1.55l-0.17-0.2l-4.98-5.82c-4.04-0.16-7.44,0.84-10.17,2.2
				c-0.62,0.31-1.21,0.63-1.76,0.96c-0.6,0.37-1.15,0.74-1.66,1.12c-2.85,2.1-4.36,4.18-4.36,4.18l11.6,9.64l2.61,2.17l0.04,0.04
				c0.05-0.06,0.11-0.11,0.16-0.17c0.49-0.5,0.97-0.99,1.45-1.45c0.5-0.49,0.99-0.95,1.48-1.4c0.87-0.8,1.71-1.54,2.53-2.22
				c0.14-0.12,0.28-0.23,0.42-0.35c1.44-1.18,2.79-2.19,3.97-3.02c0.89-0.62,1.67-1.13,2.37-1.56l-0.04-0.05L305.45,218.11z"/>
		</g>
		<g>
			<path class="st11" d="M101.16,248.24l-1.98-7.51l-0.14-0.54l-0.53-2.03c-0.21-0.8-1.03-1.28-1.83-1.07
				c-0.8,0.21-1.28,1.03-1.07,1.83l0.1,0.39l0.08,0.3l2.27,8.62l0.4,1.53c0.18,0.67,0.79,1.12,1.45,1.12c0.13,0,0.25-0.02,0.38-0.05
				c0.8-0.21,1.28-1.03,1.07-1.83L101.16,248.24z"/>
			<path class="st11" d="M88.15,199.57l-0.7-2.63l-0.7-2.63l-0.85-3.22c-0.21-0.8-1.03-1.28-1.83-1.07
				c-0.8,0.21-1.28,1.03-1.07,1.83l1.56,5.91l0.7,2.63l0.7,2.63l0.55,2.07c0.18,0.67,0.79,1.12,1.45,1.12
				c0.13,0,0.26-0.02,0.38-0.05c0.8-0.21,1.28-1.03,1.07-1.83L88.15,199.57z"/>
			<path class="st11" d="M75.29,151.24l-1.14-4.49c-0.2-0.8-1.02-1.29-1.82-1.09c-0.8,0.2-1.29,1.02-1.09,1.82l1.29,5.07l0.99,3.89
				c0.17,0.68,0.78,1.13,1.45,1.13c0.12,0,0.25-0.02,0.37-0.05c0.8-0.2,1.29-1.02,1.09-1.82L75.29,151.24z"/>
			<path class="st11" d="M271.43,264.54l-0.38-0.13l-0.3-0.1l-9.94-3.36c-0.79-0.27-1.64,0.16-1.9,0.94
				c-0.27,0.79,0.16,1.64,0.94,1.9l8.1,2.74l0.53,0.18l1.99,0.67c0.16,0.05,0.32,0.08,0.48,0.08c0.63,0,1.21-0.39,1.42-1.02
				C272.63,265.65,272.21,264.8,271.43,264.54z"/>
			<path class="st11" d="M317.65,279.96l-12.99-4.37c-0.79-0.26-1.64,0.16-1.9,0.94s0.16,1.64,0.94,1.9l12.99,4.37
				c0.16,0.05,0.32,0.08,0.48,0.08c0.63,0,1.21-0.39,1.42-1.02C318.86,281.08,318.44,280.23,317.65,279.96z"/>
			<path class="st11" d="M361.15,294.6l-8.73-3.04c-0.78-0.27-1.64,0.14-1.91,0.92c-0.27,0.78,0.14,1.64,0.92,1.91l8.73,3.04
				c0.16,0.06,0.33,0.08,0.49,0.08c0.62,0,1.2-0.39,1.42-1.01C362.35,295.73,361.93,294.87,361.15,294.6z"/>
		</g>
		<g>
			<path class="st12" d="M371.99,287.85l-12.93-15.21c-0.08-0.15-0.16-0.29-0.29-0.41c-0.03-0.03-0.08-0.04-0.11-0.07l-15.24-17.94
				c-0.03-0.29-0.15-0.58-0.36-0.81c-0.2-0.23-0.45-0.38-0.72-0.45l-26.65-31.37l-4.41-5.2l6.26-20.98l2.38-7.98
				c0.77-2.59-0.13-5.31-2.31-6.91c-0.3-0.22-0.62-0.41-0.95-0.57c-2.53-1.98-8.44-5.96-12.19-3.47l-24.17,15.73l-3.37,2.19
				L203.79,79.08l-2.67-4.22c-4.22-6.65-11.43-10.62-19.31-10.62c0,0,0,0,0,0c-7.87,0-15.09,3.97-19.31,10.62L96.4,179.09
				l-5.81,9.15l-0.79-2.81c0-0.13-0.01-0.27-0.05-0.4c-0.04-0.14-0.1-0.27-0.18-0.39l-6.35-22.56c0.05-0.2,0.06-0.42,0.02-0.63
				c-0.06-0.31-0.21-0.58-0.42-0.79l-2.81-9.99l-2.3-8.18l-0.08-0.29l-0.18-0.23c-0.24-0.3-2.53-2.98-9.3-2.98
				c-6.53,0-8.33,2.84-8.51,3.16l-0.09,0.15L54,161.43c-0.05,0.11-0.09,0.23-0.11,0.35c0,0.01,0,0.02,0,0.03l-6.6,22.74
				c-0.21,0.19-0.37,0.43-0.45,0.72c-0.07,0.27-0.06,0.54,0.01,0.8L33.46,232.2l-28.92,8.74c-2.59,0.78-4.36,3.04-4.5,5.74
				c-0.02,0.38,0,0.74,0.04,1.11c-0.25,3.2-0.32,10.33,3.82,12.08l7.78,3.38l37.5,16.31c6.08,2.55,12.56,3.83,19.04,3.83
				c6.96,0,13.91-1.47,20.34-4.4l16.38-7.18h130.84l-1.61,9.37c-0.2,1.27,0.17,2.49,0.87,3.63c0.94,1.53,2.46,2.9,4,4.01
				c1.07,0.77,2.13,1.42,3.02,1.91c0.32,0.29,0.66,0.55,1.04,0.77c1,0.58,2.1,0.87,3.2,0.87c1.39,0,2.78-0.47,3.94-1.38l21.44-17.02
				l24.5,7.82c0.17,0.15,0.38,0.27,0.62,0.33c0.12,0.03,0.24,0.04,0.36,0.04c0.04,0,0.08-0.02,0.12-0.02l21.98,7.02
				c0.11,0.07,0.23,0.14,0.36,0.18c0.14,0.05,0.29,0.07,0.44,0.07l22.32,7.13c0.14,0.15,0.31,0.28,0.52,0.37
				c0.19,0.08,0.39,0.12,0.58,0.12c0.1,0,0.19-0.02,0.29-0.04l18,5.75l0.28,0.09l0.3-0.02c0.36-0.03,3.5-0.43,6.99-5.24
				c0.2-0.28,0.41-0.57,0.61-0.88C373.54,291.25,372.16,288.18,371.99,287.85z M367.32,295.22c-2.35,3.48-4.39,4.36-5.03,4.55
				l-16.69-5.33c1.26-2.8,2.68-5.5,4.23-8.08c1.36-2.26,2.83-4.44,4.41-6.52c0.05-0.06,0.09-0.13,0.14-0.19
				c0.58-0.76,1.18-1.51,1.8-2.25c0.5-0.6,1.01-1.19,1.52-1.77l11.61,13.66c0.09,0.4,0.22,1.7-0.83,3.89
				c-0.27,0.57-0.6,1.18-1.06,1.87C367.4,295.11,367.36,295.16,367.32,295.22z M322.04,286.91c1.18-3.34,2.5-6.43,3.93-9.28
				c3.62-7.21,7.87-12.86,11.85-17.14c1.31-1.41,2.58-2.68,3.8-3.8l14.14,16.63c-1.21,1.35-2.38,2.73-3.49,4.17
				c-1.92,2.48-3.68,5.09-5.29,7.81c-1.56,2.63-2.97,5.37-4.23,8.22L322.04,286.91z M299,279.56c1-3.77,2.18-7.26,3.51-10.49
				c3.76-9.13,8.62-16.17,13.34-21.45c2.06-2.3,4.09-4.27,5.99-5.94c0.76-0.67,1.5-1.28,2.21-1.85c0.68-0.54,1.33-1.05,1.96-1.51
				l13.67,16.08c-0.57,0.52-1.15,1.08-1.74,1.66c-0.68,0.67-1.37,1.38-2.07,2.13c-1.01,1.08-2.04,2.25-3.08,3.5
				c-3.33,4.03-6.69,8.97-9.65,14.91c-1.44,2.89-2.77,6.02-3.96,9.4L299,279.56z M249.64,287.64l-1.27,1.01
				c-1.32,1.05-2.81,0.82-3.76,0.27c-0.28-0.16-0.54-0.38-0.79-0.64c-0.46-0.5-0.81-1.17-0.86-1.99c-0.02-0.24-0.01-0.49,0.03-0.76
				l2.36-13.72l0.34-2l0.34-2l2.16-12.57l0.6-3.5l0.6-3.5l1.25-7.29c1.47-9.33,5.8-17.94,12.22-24.67c0.82-0.86,1.68-1.69,2.57-2.49
				c0.87-0.78,1.78-1.54,2.71-2.26c0.79-0.6,1.59-1.19,2.42-1.75l8.05-5.24l1.68-1.09l1.68-1.09l3.37-2.19l26.62-17.32l0.01-0.01
				c0.26-0.18,0.53-0.3,0.79-0.39c0.36-0.13,0.71-0.19,1.05-0.19c0.43,0,0.84,0.1,1.21,0.24c0.29,0.12,0.56,0.26,0.79,0.43
				c0.68,0.5,1.3,1.36,1.36,2.46c0.02,0.37-0.02,0.77-0.15,1.18l-2.12,7.1l-5.96,19.99l-1.35-1.58l-1.19-1.4l-1.05-1.24l-0.44-0.52
				l-3.98-4.69l-0.35-0.14c-0.41-0.16-6.67-2.45-15.87,2.59c-0.56,0.31-1.14,0.65-1.72,1.01c-0.55,0.34-1.1,0.71-1.66,1.11
				c-2.93,2.05-6.09,4.85-9.4,8.65c-0.77,0.89-1.56,1.84-2.35,2.83c-0.75,0.94-1.5,1.93-2.26,2.98c-0.66,0.91-1.33,1.86-2,2.85
				c-5.88,8.76-9.12,16.11-10.78,22.11c-0.08,0.28-0.14,0.55-0.22,0.83c-0.24,0.92-0.45,1.82-0.61,2.67
				c-0.24,1.24-0.41,2.4-0.53,3.5c-0.74,7.06,0.91,11.22,1.58,12.57c0.13,0.26,0.23,0.42,0.26,0.47l0.29,0.47l3.3,1.05l3.69,1.18
				l1.02,0.33l1.55,0.49l1.76,0.56l1.59,0.51L249.64,287.64z M239.63,285.44c-0.25-0.21-0.49-0.42-0.71-0.63
				c-1.17-1.12-1.92-2.23-1.78-3.14l1.7-9.86l0.34-2l0.34-2l2.16-12.57l0.6-3.5l0.6-3.5l1.92-11.15
				c1.62-10.31,6.73-19.75,14.31-26.74c0.86-0.8,1.77-1.55,2.7-2.28c0.92-0.72,1.85-1.42,2.83-2.08c0.03-0.02,0.06-0.04,0.08-0.06
				l10.45-6.8l1.68-1.09l1.68-1.09l3.37-2.19l24.21-15.75l0.01-0.01c0.33-0.22,0.75-0.32,1.21-0.32c1.07,0,2.43,0.52,3.78,1.24
				c-0.27,0.13-0.54,0.28-0.8,0.45l-26.58,17.3l-3.37,2.19l-1.68,1.09l-1.68,1.09l-8.09,5.27c-0.81,0.54-1.6,1.12-2.38,1.71
				c-0.94,0.71-1.84,1.46-2.73,2.24c-0.89,0.79-1.77,1.59-2.6,2.44c-7.13,7.26-11.93,16.63-13.53,26.8l-1.34,7.78l-0.6,3.5l-0.6,3.5
				L243,267.81l-0.34,2l-0.34,2l-2.28,13.24c-0.04,0.23-0.04,0.46-0.06,0.68C239.86,285.64,239.74,285.54,239.63,285.44z
				 M50.37,276.8l-38.66-16.81l-6.62-2.88l-0.02-0.01c-1.22-0.51-1.78-2.48-1.99-4.67c0.26,0.16,0.53,0.3,0.82,0.42l8.2,3.57
				l37.08,16.13c6.08,2.55,12.56,3.83,19.04,3.83c6.96,0,13.91-1.47,20.34-4.4l0.38-0.17l4.56-2l4.56-2l28.68-12.57l3.25-1.42
				c0.21-0.1,0.41-0.21,0.6-0.33c-0.06,0.62-0.14,1.21-0.26,1.75c-0.3,1.41-0.8,2.5-1.57,2.85l-22.18,9.72l-4.56,2l-4.56,2
				l-10.13,4.44C75.67,281.57,62.19,281.77,50.37,276.8z M32.46,235.63l-0.58,2l-0.51,1.76l-0.45,1.56l-0.19,0.65l-1.61,5.54
				l-0.1,0.36l0.08,0.37c0.02,0.08,0.08,0.35,0.22,0.77c1.09,3.19,6.96,15.1,33.58,16.4c1,0.05,2.03,0.08,3.08,0.1
				c0.31,0.01,0.61,0.02,0.93,0.02c0.31,0,0.61,0,0.92,0c0.55,0,1.07-0.01,1.61-0.02c9.77-0.14,17.14-1.55,22.67-3.45
				c5.63-1.93,9.36-4.36,11.75-6.47c1.58-1.39,2.59-2.64,3.18-3.5c0.46-0.67,0.68-1.11,0.72-1.21l0.23-0.5l-0.5-1.79l-1.49-5.28
				l-0.29-1.03l-0.94-3.35l-0.45-1.61l22.55,7.38l1.55,0.51c1.6,0.52,2.23,1.89,2.3,2.99c0.01,0.12,0,0.25,0,0.38
				c-0.01,0.21-0.05,0.42-0.1,0.63c-0.16,0.66-0.53,1.32-1.18,1.81c-0.19,0.15-0.4,0.28-0.65,0.39l-1.51,0.66l-7.98,3.5
				l-28.68,12.57l-3.26,1.43c-0.44,0.2-0.9,0.38-1.35,0.57c-1.92,0.8-3.88,1.47-5.87,2c-9.81,2.61-20.32,1.95-29.77-2.02
				l-36.51-15.88L5.1,250.1l-0.02-0.01c-0.29-0.12-0.54-0.28-0.76-0.45c-0.69-0.52-1.07-1.22-1.21-1.91
				c-0.06-0.31-0.09-0.61-0.07-0.9c0.04-0.85,0.42-1.84,1.3-2.49c0.3-0.22,0.65-0.4,1.07-0.53L32.46,235.63z M56.47,163.71
				c3.65,0.54,7.35,0.83,11.08,0.83c0.21,0,0.41-0.01,0.62-0.01c1.05-0.01,2.1-0.03,3.15-0.08c3.05-0.15,6.12-0.49,9.19-1
				l5.89,20.91c-3.44,0.86-6.75,1.46-9.91,1.83c-5.36,0.63-10.29,0.65-14.7,0.3c-4.34-0.34-8.18-1.02-11.4-1.82L56.47,163.71z
				 M74.93,143.67l2.03,7.19l2.72,9.67c-3.04,0.49-6.06,0.8-9.08,0.92c-0.52,0.02-1.05,0.04-1.57,0.05
				c-2.19,0.04-4.37-0.01-6.54-0.16c-0.96-0.07-1.91-0.16-2.87-0.26c-0.77-0.08-1.54-0.19-2.31-0.29l5-17.22
				c0.28-0.29,1.28-1.13,3.7-1.46c0.62-0.08,1.33-0.14,2.15-0.14C72.51,141.99,74.41,143.25,74.93,143.67z M51.88,188.09
				c2.28,0.49,4.8,0.9,7.53,1.2c0.49,0.05,1,0.1,1.51,0.14c2.1,0.18,4.3,0.3,6.63,0.3c3.03,0,6.25-0.18,9.62-0.6
				c3.2-0.39,6.55-1.01,10.02-1.88l1.24,4.4l0.73,2.59l0.73,2.59l3.05,10.82c-3.69,1.24-7.26,2.18-10.69,2.85
				c-0.39,0.08-0.78,0.15-1.17,0.22c-0.89,0.16-1.77,0.3-2.64,0.43c-0.87,0.13-1.73,0.24-2.58,0.33c-7.09,0.79-13.43,0.5-18.86-0.3
				c-0.78-0.11-1.54-0.24-2.28-0.37c-3.32-0.6-6.25-1.37-8.73-2.18c-0.83-0.27-1.61-0.54-2.33-0.8l5.88-20.27
				C50.29,187.73,51.07,187.92,51.88,188.09z M197.74,77.01l0.3,0.47l75.54,119.1l-10.5,6.83c-0.01,0.01-0.03,0.02-0.04,0.03
				l-75.92-119.7c-1.08-1.7-2.72-2.7-4.67-2.88c-0.21-0.02-0.43-0.04-0.64-0.04c-2.23,0-4.12,1.04-5.31,2.92l-74.06,116.77
				l-5.81,9.15l-0.26-0.93c0.03-0.23,0.01-0.46-0.07-0.69c-0.06-0.16-0.15-0.3-0.25-0.43l-4-14.21l5.81-9.15l68.02-107.25
				c3.48-5.49,9.43-8.76,15.93-8.76C188.31,68.25,194.26,71.52,197.74,77.01z M35.88,234.6l0.44-1.53c0.39,0.21,0.97,0.51,1.72,0.87
				c0.19,0.09,0.39,0.19,0.6,0.28c0.74,0.34,1.61,0.72,2.6,1.12c1.34,0.54,2.91,1.1,4.7,1.66c0.17,0.05,0.35,0.11,0.52,0.16
				c0.18,0.05,0.36,0.11,0.55,0.16c2.06,0.6,4.38,1.17,6.92,1.63c1.38,0.25,2.83,0.48,4.34,0.66c0.69,0.08,1.39,0.16,2.11,0.23
				c0.7,0.07,1.42,0.12,2.15,0.17c1.57,0.1,3.19,0.16,4.87,0.16c3.24,0,6.68-0.21,10.3-0.69c1.51-0.2,3.05-0.45,4.62-0.75
				c1.58-0.3,3.18-0.65,4.82-1.07c0.37-0.09,0.75-0.2,1.13-0.3c0.11-0.03,0.22-0.06,0.33-0.09c0.01,0,0.01,0,0.02-0.01
				c0.05-0.01,0.1-0.03,0.16-0.04c1.64-0.45,3.31-0.95,5-1.52c1.05-0.35,2.12-0.73,3.19-1.14c0.73-0.28,1.46-0.56,2.2-0.86
				c0.33-0.13,0.66-0.27,0.99-0.41l0.23,0.81l0.49,1.74l0.52,1.85l0.94,3.35l0.22,0.79l1.8,6.4l0.24,0.84l0.18,0.62
				c-0.28,0.43-0.8,1.15-1.66,2.04c-0.98,1.02-2.39,2.24-4.37,3.5c-1.43,0.91-3.16,1.82-5.23,2.68c-1.63,0.68-3.47,1.31-5.55,1.88
				c-5.15,1.4-11.74,2.37-20.17,2.37c-0.29,0-0.58,0-0.88,0c-0.44,0-0.85-0.02-1.28-0.03c-0.93-0.02-1.84-0.05-2.72-0.1
				c-0.9-0.05-1.77-0.1-2.61-0.17c-22.11-1.83-27.2-11.69-28.12-14.1c-0.03-0.08-0.06-0.15-0.08-0.21l2.03-6.99l0.13-0.44l0.52-1.78
				l0.45-1.54L35.88,234.6z M129.36,242.02l-26.02-8.52l-4.16-14.78l82.63-130.28l75.69,119.34c-8.3,7.49-13.89,17.68-15.65,28.82
				l-2,11.64H133.71c0.01-0.18,0.02-0.36,0.01-0.55C133.57,245.06,131.86,242.84,129.36,242.02z M53.88,213.69
				c4.02,0.74,8.59,1.24,13.65,1.24c2.02,0,4.13-0.08,6.3-0.26c0.83-0.07,1.68-0.16,2.53-0.26c0.85-0.1,1.71-0.21,2.58-0.34
				c1.31-0.19,2.64-0.42,4-0.69c3.47-0.68,7.08-1.63,10.81-2.88l0.72,2.56l1.27,4.52l1.27,4.53l2.33,8.26
				c-0.82,0.35-1.64,0.69-2.44,1c-0.76,0.3-1.52,0.57-2.27,0.84c-0.79,0.28-1.58,0.55-2.36,0.81c-0.91,0.3-1.82,0.58-2.71,0.84
				c-0.45,0.13-0.91,0.25-1.36,0.38c-0.1,0.03-0.19,0.05-0.29,0.08c-1.12,0.3-2.22,0.57-3.31,0.82c-0.5,0.11-1,0.22-1.49,0.32
				c-0.4,0.08-0.81,0.16-1.21,0.24c-0.68,0.13-1.35,0.25-2.02,0.35c-5.59,0.9-10.79,1.14-15.48,0.94c-0.77-0.03-1.54-0.08-2.28-0.13
				c-0.76-0.06-1.51-0.13-2.24-0.2c-2.5-0.26-4.82-0.64-6.95-1.08c-0.45-0.09-0.9-0.19-1.34-0.29c-1.32-0.3-2.56-0.62-3.71-0.95
				c-0.39-0.11-0.77-0.23-1.14-0.34c-1.57-0.48-2.96-0.97-4.17-1.43c-0.83-0.32-1.56-0.62-2.2-0.9c-0.85-0.37-1.53-0.7-2.04-0.95
				c-0.64-0.32-1.01-0.53-1.04-0.55c-0.04-0.02-0.08-0.03-0.11-0.05l5.64-19.41C45.77,211.77,49.48,212.88,53.88,213.69z
				 M130.01,260.83c2.01-0.92,2.98-3.16,3.41-5.59h105.22l-2.16,12.57h-122.4L130.01,260.83z M282.16,246.66
				c-0.28,0.52-0.55,1.05-0.81,1.58c-0.57,1.13-1.12,2.3-1.66,3.5c-0.51,1.14-1,2.3-1.47,3.5c-0.51,1.31-1,2.66-1.47,4.05
				c-0.04,0.11-0.07,0.22-0.11,0.33c0,0,0,0.01,0,0.01c-0.02,0.05-0.03,0.11-0.05,0.16c-0.53,1.61-1.03,3.28-1.48,5
				c-0.26,0.99-0.51,2-0.74,3.02c-0.02,0.09-0.04,0.18-0.06,0.27c-0.13,0.57-0.25,1.15-0.37,1.73c-0.04,0.19-0.07,0.38-0.11,0.57
				c-0.07,0.35-0.14,0.71-0.21,1.07l-0.81-0.26l-1.72-0.55l-1.83-0.59l-0.75-0.24l-2.56-0.82l-0.78-0.25l-2.92-0.93l-4.24-1.35
				l-0.62-0.2c-0.54-1.22-1.79-4.88-1.1-11.02c0.1-0.91,0.24-1.87,0.44-2.9c0.04-0.2,0.08-0.4,0.13-0.6
				c0.23-1.11,0.52-2.27,0.88-3.5c0.15-0.51,0.31-1.03,0.49-1.56c1.72-5.24,4.69-11.53,9.62-18.87c0.42-0.62,0.83-1.21,1.24-1.79
				c0.75-1.06,1.49-2.07,2.23-3.02c0.78-1.01,1.56-1.98,2.32-2.87c3.33-3.9,6.48-6.71,9.36-8.73c0.57-0.4,1.12-0.76,1.67-1.1
				c0.59-0.36,1.17-0.7,1.73-1c6.8-3.63,11.57-2.81,12.82-2.49l4.72,5.55l0.29,0.35l1.2,1.41l1.04,1.22l1.49,1.75l1.03,1.21
				c-0.39,0.21-0.96,0.52-1.68,0.95c-0.18,0.11-0.37,0.23-0.57,0.35c-0.69,0.43-1.48,0.94-2.37,1.56c-1.19,0.82-2.53,1.83-3.97,3.02
				c-0.14,0.11-0.28,0.23-0.42,0.35c-0.81,0.68-1.66,1.42-2.53,2.22c-0.49,0.45-0.98,0.92-1.48,1.4c-0.48,0.47-0.96,0.95-1.45,1.45
				c-0.05,0.06-0.11,0.11-0.16,0.17c-2.7,2.81-5.5,6.16-8.17,10.16c-0.7,1.05-1.39,2.15-2.07,3.28
				C283.45,244.31,282.79,245.46,282.16,246.66z M276.48,272.36c0.03-0.19,0.07-0.37,0.11-0.55c0.13-0.67,0.25-1.35,0.39-2
				c0-0.01,0.01-0.03,0.01-0.04c0.14-0.67,0.3-1.31,0.46-1.96c0.03-0.13,0.06-0.26,0.09-0.39c0.2-0.82,0.41-1.62,0.62-2.41
				c0.38-1.39,0.79-2.75,1.22-4.07c0.03-0.09,0.06-0.19,0.09-0.28c0.53-1.6,1.1-3.14,1.7-4.63c0.11-0.26,0.21-0.52,0.32-0.79
				c0.05-0.12,0.1-0.23,0.14-0.35c0.45-1.08,0.92-2.13,1.4-3.15c0.93-1.97,1.91-3.85,2.92-5.61c0.67-1.16,1.35-2.25,2.04-3.32
				c2.68-4.13,5.5-7.62,8.23-10.51c0.48-0.51,0.96-1,1.43-1.47c0.02-0.02,0.04-0.03,0.05-0.05c0.33-0.33,0.66-0.65,0.98-0.96
				c0.15-0.14,0.29-0.28,0.43-0.41c1.15-1.09,2.26-2.06,3.32-2.93c1.27-1.05,2.44-1.94,3.49-2.69c0.72-0.51,1.38-0.96,1.97-1.34
				c0.78-0.51,1.43-0.9,1.92-1.18c0.63-0.36,1-0.55,1.03-0.56c0.04-0.02,0.07-0.04,0.11-0.07l3.71,4.37l9.38,11.04
				c-1.28,0.95-2.68,2.07-4.16,3.36c-4.18,3.66-8.97,8.73-13.35,15.49c-1.87,2.88-3.66,6.07-5.29,9.59
				c-0.54,1.15-1.06,2.34-1.56,3.56c-1.34,3.27-2.54,6.8-3.56,10.6L276.48,272.36z"/>
			<polygon class="st12" points="151.27,198.6 159.89,198.6 159.89,192.64 163.62,192.64 163.62,184.77 159.89,184.77 
				159.89,176.79 151.27,176.79 151.27,184.77 143.5,184.77 155.37,161.36 146.22,161.36 134.35,184.77 134.35,192.64 
				151.27,192.64 			"/>
			<path class="st12" d="M180.91,199.35c4.75,0,8.47-1.76,11.15-5.29c2.68-3.53,4.02-8.22,4.02-14.07c0-5.85-1.34-10.54-4.02-14.07
				c-2.68-3.53-6.39-5.29-11.15-5.29c-4.75,0-8.47,1.77-11.15,5.29c-2.68,3.53-4.02,8.22-4.02,14.07c0,5.85,1.34,10.54,4.02,14.07
				C172.44,197.58,176.15,199.35,180.91,199.35z M180.91,168.91c4.43,0,6.65,3.69,6.65,11.07s-2.22,11.07-6.65,11.07
				s-6.65-3.69-6.65-11.07S176.47,168.91,180.91,168.91z"/>
			<polygon class="st12" points="215.65,198.6 224.27,198.6 224.27,192.64 228,192.64 228,184.77 224.27,184.77 224.27,176.79 
				215.65,176.79 215.65,184.77 207.88,184.77 219.75,161.36 210.6,161.36 198.73,184.77 198.73,192.64 215.65,192.64 			"/>
			<path class="st12" d="M194.15,223.93c1.16,0,2.13-0.39,2.91-1.16c0.78-0.77,1.17-1.77,1.17-3c0-1.23-0.39-2.22-1.17-3
				c-0.78-0.77-1.75-1.16-2.91-1.16c-1.16,0-2.13,0.39-2.91,1.16c-0.78,0.77-1.17,1.77-1.17,3c0,1.22,0.39,2.22,1.17,3
				S192.99,223.93,194.15,223.93z"/>
			<path class="st12" d="M180.11,218.86c0.31-0.35,0.47-0.77,0.47-1.28c0-0.51-0.16-0.93-0.47-1.28c-0.31-0.35-0.69-0.52-1.13-0.52
				h-2.4v3.6h2.4C179.42,219.38,179.8,219.21,180.11,218.86z"/>
			<path class="st12" d="M165.83,218.86c0.31-0.35,0.47-0.77,0.47-1.28c0-0.51-0.16-0.93-0.47-1.28c-0.31-0.35-0.69-0.52-1.13-0.52
				h-2.4v3.6h2.4C165.14,219.38,165.52,219.21,165.83,218.86z"/>
			<path class="st12" d="M137.08,234.22h89.46v-26.97h-89.46V234.22z M205.21,212.79h5.59c1.33,0,2.46,0.47,3.4,1.4
				c0.93,0.93,1.4,2.06,1.4,3.4c0,0.85-0.24,1.64-0.71,2.37c-0.47,0.73-1.1,1.29-1.87,1.69l2.98,5.13h-3.44l-2.64-4.59h-1.51v4.59
				h-3.2V212.79z M188.99,214.61c1.41-1.4,3.13-2.1,5.15-2.1s3.74,0.7,5.15,2.1c1.41,1.4,2.12,3.12,2.12,5.17s-0.71,3.78-2.12,5.17
				c-1.41,1.4-3.13,2.1-5.15,2.1s-3.74-0.7-5.15-2.1c-1.41-1.4-2.12-3.12-2.12-5.17S187.58,216,188.99,214.61z M173.39,212.79h5.59
				c1.33,0,2.46,0.47,3.4,1.4c0.93,0.93,1.4,2.06,1.4,3.4c0,0.85-0.24,1.64-0.71,2.37c-0.47,0.73-1.1,1.29-1.87,1.69l2.98,5.13
				h-3.44l-2.64-4.59h-1.51v4.59h-3.2V212.79z M159.11,212.79h5.59c1.33,0,2.46,0.47,3.4,1.4c0.93,0.93,1.4,2.06,1.4,3.4
				c0,0.85-0.24,1.64-0.71,2.37c-0.47,0.73-1.1,1.29-1.87,1.69l2.98,5.13h-3.44l-2.64-4.59h-1.51v4.59h-3.2V212.79z M146.52,212.79
				h8.69v3.08h-5.49v2.32h4.99v3.04h-4.99v2.48h5.59v3.08h-8.79V212.79z"/>
			<path class="st12" d="M211.94,218.86c0.31-0.35,0.47-0.77,0.47-1.28c0-0.51-0.16-0.93-0.47-1.28c-0.31-0.35-0.69-0.52-1.13-0.52
				h-2.4v3.6h2.4C211.25,219.38,211.62,219.21,211.94,218.86z"/>
		</g>
	</g>
	<g>
		<path class="st12" d="M281.25,46.06c7.02,0,12.72-5.71,12.72-12.72c0-0.43-0.02-0.85-0.06-1.27c-0.01-0.14-0.04-0.27-0.06-0.41
			c-0.04-0.28-0.07-0.55-0.13-0.82c-0.03-0.16-0.08-0.32-0.12-0.48c-0.06-0.24-0.11-0.48-0.18-0.72c-0.05-0.17-0.11-0.32-0.17-0.49
			c-0.08-0.22-0.15-0.44-0.24-0.66c-0.07-0.16-0.15-0.32-0.22-0.48c-0.1-0.21-0.19-0.41-0.3-0.61c-0.08-0.16-0.18-0.31-0.27-0.46
			c-0.11-0.19-0.22-0.38-0.35-0.57c-0.1-0.15-0.2-0.29-0.31-0.44c-0.13-0.18-0.26-0.36-0.39-0.53c-0.11-0.14-0.23-0.28-0.35-0.41
			c-0.14-0.16-0.29-0.33-0.44-0.48c-0.13-0.13-0.26-0.26-0.39-0.38c-0.16-0.15-0.32-0.3-0.48-0.44c-0.14-0.12-0.28-0.23-0.42-0.34
			c-0.17-0.13-0.34-0.26-0.52-0.39c-0.15-0.11-0.3-0.21-0.45-0.31c-0.18-0.12-0.37-0.23-0.56-0.34c-0.16-0.09-0.32-0.18-0.48-0.26
			c-0.19-0.1-0.39-0.19-0.59-0.29c-0.17-0.08-0.34-0.15-0.51-0.22c-0.2-0.08-0.41-0.16-0.62-0.23c-0.18-0.06-0.35-0.12-0.53-0.17
			c-0.21-0.06-0.43-0.12-0.65-0.17c-0.18-0.04-0.36-0.09-0.54-0.12c-0.22-0.04-0.45-0.07-0.68-0.1c-0.19-0.02-0.37-0.05-0.56-0.07
			c-0.06,0-0.11-0.02-0.16-0.02c-1.83-7.12-8.25-12.17-15.71-12.17c-8.95,0-16.23,7.28-16.23,16.23c0,0.49,0.02,0.99,0.07,1.48
			c-0.13,0-0.26-0.01-0.39-0.01c-5.48,0-9.94,4.46-9.94,9.94c0,4.52,3.07,8.44,7.34,9.59v0.35H281.25z M243.04,36.13
			c0-3.82,3.11-6.94,6.94-6.94c0.61,0,1.21,0.08,1.8,0.24l2.4,0.64l-0.55-2.42c-0.22-0.97-0.33-1.96-0.33-2.93
			c0-7.29,5.93-13.23,13.23-13.23c5.87,0,10.94,3.84,12.63,9.32c-3.18,0.52-6.04,2.21-8.04,4.85c-0.5,0.66-0.37,1.6,0.29,2.1
			c0.66,0.5,1.6,0.37,2.1-0.29c1.86-2.45,4.68-3.85,7.75-3.85c5.36,0,9.72,4.36,9.72,9.72s-4.36,9.72-9.72,9.72h-31.71L249.07,43
			C245.63,42.55,243.04,39.6,243.04,36.13z"/>
		<path class="st12" d="M257.06,24.27c0.14,0.04,0.29,0.06,0.43,0.06c0.65,0,1.24-0.42,1.44-1.07c0.68-2.3,2.25-5.31,5.85-6.61
			c0.78-0.28,1.18-1.14,0.9-1.92s-1.14-1.18-1.92-0.9c-4.77,1.73-6.82,5.62-7.7,8.58C255.81,23.2,256.27,24.03,257.06,24.27z"/>
		<path class="st12" d="M375.51,117.81c-0.02-0.18-0.06-0.36-0.08-0.54c-0.05-0.35-0.09-0.7-0.16-1.05
			c-0.04-0.21-0.1-0.41-0.15-0.62c-0.07-0.31-0.14-0.62-0.24-0.92c-0.07-0.22-0.15-0.42-0.22-0.63c-0.1-0.28-0.19-0.56-0.31-0.84
			c-0.09-0.21-0.19-0.42-0.29-0.63c-0.12-0.26-0.24-0.52-0.37-0.77c-0.11-0.21-0.23-0.4-0.35-0.61c-0.14-0.24-0.28-0.48-0.44-0.72
			c-0.13-0.2-0.27-0.39-0.41-0.58c-0.16-0.22-0.32-0.45-0.49-0.66c-0.15-0.19-0.31-0.36-0.47-0.54c-0.18-0.2-0.36-0.41-0.55-0.61
			c-0.17-0.17-0.34-0.33-0.52-0.5c-0.2-0.19-0.4-0.37-0.6-0.55c-0.18-0.16-0.37-0.3-0.57-0.45c-0.21-0.17-0.43-0.33-0.65-0.49
			c-0.2-0.14-0.4-0.27-0.61-0.4c-0.23-0.14-0.46-0.29-0.69-0.42c-0.21-0.12-0.43-0.23-0.65-0.34c-0.24-0.12-0.48-0.24-0.73-0.35
			c-0.23-0.1-0.45-0.19-0.69-0.28c-0.25-0.1-0.51-0.19-0.77-0.28c-0.24-0.08-0.48-0.15-0.72-0.22c-0.26-0.08-0.53-0.14-0.8-0.21
			c-0.25-0.06-0.5-0.11-0.75-0.15c-0.27-0.05-0.55-0.09-0.82-0.13c-0.26-0.03-0.51-0.06-0.77-0.08c-0.13-0.01-0.25-0.03-0.38-0.04
			c-2.23-9.32-10.56-15.96-20.26-15.96c-11.49,0-20.84,9.35-20.84,20.84c0,0.89,0.07,1.79,0.18,2.68c-0.81-0.19-1.65-0.29-2.52-0.29
			c-6.22,0-11.27,5.06-11.27,11.27c0,0.83,0.09,1.67,0.28,2.5c0.18,0.81,0.98,1.31,1.79,1.13c0.81-0.18,1.31-0.99,1.13-1.79
			c-0.14-0.6-0.21-1.22-0.21-1.83c0-4.56,3.71-8.27,8.27-8.27c3.47,0,6.5,2.15,7.71,5.29c-2,0.47-3.79,1.62-5.07,3.31
			c-0.5,0.66-0.37,1.6,0.29,2.1c0.66,0.5,1.6,0.37,2.1-0.29c1.14-1.5,2.87-2.36,4.74-2.36c3.28,0,5.95,2.67,5.95,5.95
			s-2.67,5.95-5.95,5.95h-38.55c-0.83,0-1.5,0.67-1.5,1.5s0.67,1.5,1.5,1.5h38.55c4.93,0,8.95-4.01,8.95-8.95
			c0-0.3-0.02-0.59-0.04-0.88c-0.01-0.1-0.03-0.19-0.04-0.29c-0.03-0.19-0.05-0.38-0.09-0.57c-0.02-0.11-0.05-0.22-0.08-0.33
			c-0.04-0.17-0.08-0.33-0.13-0.5c-0.03-0.11-0.08-0.23-0.12-0.34c-0.05-0.15-0.11-0.31-0.17-0.46c-0.05-0.11-0.1-0.22-0.15-0.33
			c-0.07-0.14-0.13-0.29-0.21-0.43c-0.06-0.11-0.12-0.22-0.18-0.32c-0.08-0.14-0.16-0.27-0.24-0.4c-0.07-0.1-0.14-0.21-0.21-0.31
			c-0.09-0.13-0.18-0.25-0.28-0.37c-0.08-0.1-0.15-0.19-0.23-0.28c-0.1-0.12-0.21-0.23-0.31-0.34c-0.08-0.09-0.17-0.18-0.26-0.26
			c-0.11-0.11-0.23-0.21-0.35-0.32c-0.09-0.08-0.18-0.16-0.27-0.23c-0.12-0.1-0.25-0.19-0.38-0.29c-0.1-0.07-0.19-0.14-0.29-0.2
			c-0.14-0.09-0.28-0.18-0.43-0.26c-0.1-0.06-0.19-0.12-0.29-0.17c-0.16-0.09-0.33-0.16-0.5-0.24c-0.09-0.04-0.17-0.08-0.26-0.12
			c-0.26-0.11-0.52-0.21-0.79-0.29c-0.03-0.01-0.05-0.01-0.08-0.02c-0.24-0.07-0.49-0.14-0.75-0.19c-0.1-0.02-0.2-0.03-0.3-0.05
			c-0.16-0.03-0.32-0.06-0.49-0.08c-0.81-2.78-2.64-5.08-5.03-6.51c0-0.01,0-0.02,0-0.04c-0.3-1.3-0.45-2.63-0.45-3.95
			c0-9.84,8-17.84,17.84-17.84c8.1,0,15.09,5.41,17.2,13.08c-4.28,0.56-8.13,2.77-10.8,6.28c-0.5,0.66-0.37,1.6,0.29,2.1
			c0.66,0.5,1.6,0.37,2.1-0.29c2.53-3.33,6.38-5.25,10.55-5.25c7.3,0,13.24,5.94,13.24,13.24s-5.94,13.24-13.24,13.24
			c-0.83,0-1.5,0.67-1.5,1.5s0.67,1.5,1.5,1.5c8.96,0,16.24-7.29,16.24-16.24C375.59,118.89,375.56,118.35,375.51,117.81z"/>
		<path class="st12" d="M335.52,93.19c-10.13,3.67-10.62,14.94-10.63,15.42c-0.03,0.83,0.62,1.52,1.45,1.55c0.02,0,0.04,0,0.05,0
			c0.8,0,1.47-0.64,1.5-1.45c0.01-0.4,0.45-9.73,8.66-12.7c0.78-0.28,1.18-1.14,0.9-1.92C337.16,93.31,336.3,92.91,335.52,93.19z"/>
		<path class="st12" d="M281.64,133.45h-5.42c-0.83,0-1.5,0.67-1.5,1.5s0.67,1.5,1.5,1.5h5.42c0.83,0,1.5-0.67,1.5-1.5
			S282.47,133.45,281.64,133.45z"/>
		<path class="st12" d="M299.98,97.06h1.9v1.9c0,0.83,0.67,1.5,1.5,1.5s1.5-0.67,1.5-1.5v-1.9h1.9c0.83,0,1.5-0.67,1.5-1.5
			s-0.67-1.5-1.5-1.5h-1.9v-1.9c0-0.83-0.67-1.5-1.5-1.5s-1.5,0.67-1.5,1.5v1.9h-1.9c-0.83,0-1.5,0.67-1.5,1.5
			S299.15,97.06,299.98,97.06z"/>
		<path class="st12" d="M217.44,3.4h-1.9V1.5c0-0.83-0.67-1.5-1.5-1.5s-1.5,0.67-1.5,1.5v1.9h-1.9c-0.83,0-1.5,0.67-1.5,1.5
			s0.67,1.5,1.5,1.5h1.9v1.9c0,0.83,0.67,1.5,1.5,1.5s1.5-0.67,1.5-1.5V6.4h1.9c0.83,0,1.5-0.67,1.5-1.5S218.27,3.4,217.44,3.4z"/>
	</g>
	<g>
		<path class="st12" d="M112.56,53.23H82.96c-0.74-6.09-5.94-10.82-12.23-10.82c-1.9,0-3.69,0.44-5.29,1.21
			c0.06-0.71,0.11-1.42,0.11-2.13c0-13.03-10.6-23.63-23.63-23.63c-11.05,0-20.53,7.6-23,18.24c-0.18,0.01-0.35,0.04-0.52,0.05
			c-0.29,0.02-0.58,0.05-0.87,0.08c-0.32,0.04-0.63,0.09-0.94,0.14c-0.28,0.05-0.56,0.1-0.84,0.17c-0.31,0.07-0.61,0.15-0.91,0.23
			c-0.27,0.08-0.54,0.15-0.81,0.24c-0.29,0.1-0.58,0.21-0.87,0.32c-0.26,0.1-0.52,0.2-0.78,0.32c-0.28,0.12-0.55,0.26-0.83,0.4
			c-0.25,0.13-0.5,0.25-0.74,0.39c-0.27,0.15-0.52,0.31-0.78,0.47c-0.23,0.15-0.47,0.29-0.7,0.45c-0.25,0.17-0.49,0.36-0.73,0.55
			c-0.22,0.17-0.44,0.33-0.65,0.51c-0.23,0.2-0.45,0.41-0.68,0.61c-0.2,0.19-0.4,0.37-0.6,0.57c-0.21,0.22-0.41,0.45-0.62,0.68
			c-0.18,0.2-0.37,0.4-0.54,0.62c-0.19,0.24-0.37,0.49-0.56,0.74c-0.16,0.22-0.33,0.43-0.48,0.66C4.31,44.59,4.16,44.86,4,45.13
			c-0.14,0.23-0.28,0.46-0.41,0.69c-0.15,0.28-0.28,0.58-0.42,0.87c-0.11,0.24-0.23,0.47-0.33,0.72c-0.13,0.31-0.23,0.63-0.35,0.94
			c-0.09,0.24-0.18,0.48-0.26,0.72c-0.1,0.34-0.18,0.69-0.27,1.03c-0.06,0.23-0.13,0.46-0.18,0.7C1.71,51.2,1.66,51.6,1.61,52
			c-0.03,0.2-0.07,0.4-0.09,0.61c-0.06,0.61-0.09,1.22-0.09,1.85c0,10.12,8.24,18.36,18.36,18.36h31.07c0.83,0,1.5-0.67,1.5-1.5
			s-0.67-1.5-1.5-1.5H19.79c-8.47,0-15.36-6.89-15.36-15.36S11.32,39.1,19.79,39.1c4.85,0,9.31,2.22,12.25,6.08
			c0.5,0.66,1.44,0.79,2.1,0.29c0.66-0.5,0.79-1.44,0.29-2.1c-3.06-4.03-7.51-6.56-12.44-7.14c2.36-8.99,10.49-15.35,19.93-15.35
			c11.37,0,20.63,9.25,20.63,20.63c0,1.5-0.17,3.02-0.5,4.52c-2.24,2.23-3.63,5.32-3.63,8.72c0,0.83,0.67,1.5,1.5,1.5
			s1.5-0.67,1.5-1.5c0-5.14,4.18-9.32,9.32-9.32c5.14,0,9.32,4.18,9.32,9.32v1.5h32.51c0.83,0,1.5-0.67,1.5-1.5
			S113.39,53.23,112.56,53.23z"/>
		<path class="st12" d="M77.22,69.73H59.8c-0.83,0-1.5,0.67-1.5,1.5s0.67,1.5,1.5,1.5h17.42c0.83,0,1.5-0.67,1.5-1.5
			S78.05,69.73,77.22,69.73z"/>
		<path class="st12" d="M126.43,52.96h-6.68c-0.83,0-1.5,0.67-1.5,1.5s0.67,1.5,1.5,1.5h6.68c0.83,0,1.5-0.67,1.5-1.5
			S127.26,52.96,126.43,52.96z"/>
		<path class="st12" d="M83.43,22.64h1.9v1.9c0,0.83,0.67,1.5,1.5,1.5s1.5-0.67,1.5-1.5v-1.9h1.9c0.83,0,1.5-0.67,1.5-1.5
			s-0.67-1.5-1.5-1.5h-1.9v-1.9c0-0.83-0.67-1.5-1.5-1.5s-1.5,0.67-1.5,1.5v1.9h-1.9c-0.83,0-1.5,0.67-1.5,1.5
			S82.6,22.64,83.43,22.64z"/>
		<path class="st12" d="M108.11,95.27h-1.9v-1.9c0-0.83-0.67-1.5-1.5-1.5s-1.5,0.67-1.5,1.5v1.9h-1.9c-0.83,0-1.5,0.67-1.5,1.5
			s0.67,1.5,1.5,1.5h1.9v1.9c0,0.83,0.67,1.5,1.5,1.5s1.5-0.67,1.5-1.5v-1.9h1.9c0.83,0,1.5-0.67,1.5-1.5S108.94,95.27,108.11,95.27
			z"/>
		<path class="st12" d="M63.71,113h-19c-0.83,0-1.5,0.67-1.5,1.5s0.67,1.5,1.5,1.5h19c0.83,0,1.5-0.67,1.5-1.5S64.54,113,63.71,113z
			"/>
		<path class="st12" d="M35.38,113h-3.67c-0.83,0-1.5,0.67-1.5,1.5s0.67,1.5,1.5,1.5h3.67c0.83,0,1.5-0.67,1.5-1.5
			S36.21,113,35.38,113z"/>
	</g>
</g>
</svg>
