<svg xmlns="http://www.w3.org/2000/svg" width="69.937" height="54" viewBox="0 0 69.937 54">
  <defs>
    <style>
      .cls-1 {
        fill: #fff;
        fill-rule: evenodd;
      }
    </style>
  </defs>
  <path class="cls-1" d="M893.947,183.963H856.56a1.991,1.991,0,0,1-1.878-1.343l-9.258-26.584-0.021-.061-2.77-7.954h-9.66a2.01,2.01,0,0,1,0-4.019h11.071a1.993,1.993,0,0,1,1.879,1.343l2.8,8.043L899,155.5a1.98,1.98,0,0,1,1.486.77,2.021,2.021,0,0,1,.382,1.642L895.9,182.359A2,2,0,0,1,893.947,183.963Zm-35.976-4.019h34.351l4.177-20.528-46.353-1.945Zm5.946,13.368a4.639,4.639,0,1,1-4.638-4.681A4.659,4.659,0,0,1,863.917,193.312Zm33.09,0a4.639,4.639,0,1,1-4.638-4.681A4.659,4.659,0,0,1,897.007,193.312Z" transform="translate(-830.969 -144)"/>
</svg>
