<svg xmlns="http://www.w3.org/2000/svg" width="66" height="65" viewBox="0 0 66 65">
  <defs>
    <style>
      .cls-1 {
        fill: #0f357c;
        fill-rule: evenodd;
      }
    </style>
  </defs>
  <path id="Ellipse_1_copy" data-name="Ellipse 1 copy" class="cls-1" d="M429.432,211.744H394.151a1.88,1.88,0,0,1-1.773-1.269l-8.736-25.106c-0.008-.02-0.014-0.04-0.021-0.059l-2.613-7.512h-9.117a1.9,1.9,0,0,1,0-3.8h10.448a1.88,1.88,0,0,1,1.773,1.269l2.644,7.6,47.449,1.993a1.867,1.867,0,0,1,1.4.727,1.911,1.911,0,0,1,.361,1.551l-4.695,23.089A1.882,1.882,0,0,1,429.432,211.744Zm-33.95-3.8H427.9l3.942-19.388L388.1,186.723Zm5.611,12.625a4.377,4.377,0,1,1-4.377-4.42A4.4,4.4,0,0,1,401.093,220.573Zm31.227,0a4.377,4.377,0,1,1-4.377-4.42A4.4,4.4,0,0,1,432.32,220.573ZM411,160a8,8,0,1,1-8,8A8,8,0,0,1,411,160Z" transform="translate(-370 -160)"/>
</svg>
