<svg xmlns="http://www.w3.org/2000/svg" width="51" height="41" viewBox="0 0 51 41">
  <defs>
    <style>
      .cls-1 {
        fill: #747474;
        fill-rule: evenodd;
      }
    </style>
  </defs>
  <path class="cls-1" d="M253.723,516.055a2.254,2.254,0,0,0-2.277,2.229v8.26H209.554v-8.26a2.278,2.278,0,0,0-4.554,0v10.488A2.252,2.252,0,0,0,207.277,531h46.446A2.252,2.252,0,0,0,256,528.772V518.284A2.253,2.253,0,0,0,253.723,516.055Zm-24.833,4.721a2.311,2.311,0,0,0,3.22,0l7-6.854a2.193,2.193,0,0,0,0-3.151,2.311,2.311,0,0,0-3.219,0l-3.117,3.051v-21.6a2.278,2.278,0,0,0-4.554,0v21.6l-3.117-3.051a2.313,2.313,0,0,0-3.22,0,2.195,2.195,0,0,0,0,3.151Z" transform="translate(-205 -490)"/>
</svg>
