<svg xmlns="http://www.w3.org/2000/svg" width="55" height="55" viewBox="0 0 55 55">
  <defs>
    <style>
      .cls-1 {
        fill: #fff;
        fill-rule: evenodd;
      }
    </style>
  </defs>
  <path class="cls-1" d="M872.5,202A27.5,27.5,0,1,1,900,174.5,27.53,27.53,0,0,1,872.5,202Zm0-51A23.5,23.5,0,1,0,896,174.5,23.527,23.527,0,0,0,872.5,151Zm0.282,9.041c4.584,0,8.847,2.442,8.847,7.541,0,3.62-2.142,5.377-4.177,6.919-2.485,1.907-3.385,2.614-3.385,5.035v1.221h-4.092l-0.021-1.585c-0.086-3.128,1.8-5.035,4.006-6.706,1.993-1.5,3.256-2.485,3.256-4.627,0-2.828-2.249-4.007-4.649-4.007a4.442,4.442,0,0,0-4.82,4.735h-4.092C863.591,162.2,868.476,160.04,872.782,160.04Zm-0.6,24.015a3.134,3.134,0,1,1,0,6.256,3.069,3.069,0,0,1-3.235-3.085A3.1,3.1,0,0,1,872.182,184.055Z" transform="translate(-845 -147)"/>
</svg>
