<?xml version="1.0" encoding="utf-8"?>
<!-- Generator: Adobe Illustrator 23.0.0, SVG Export Plug-In . SVG Version: 6.00 Build 0)  -->
<svg version="1.0" id="Layer_1" xmlns="http://www.w3.org/2000/svg" xmlns:xlink="http://www.w3.org/1999/xlink" x="0px" y="0px"
	 viewBox="0 0 617.18 435.69" style="enable-background:new 0 0 617.18 435.69;" xml:space="preserve">
<style type="text/css">
	.st0{fill:#434343;}
	.st1{fill:#1478FF;}
	.st2{fill:#626262;}
	.st3{fill:#4F9AFF;}
	.st4{fill:#2CABE1;}
</style>
<g>
	<g>
		<g>
			<path class="st0" d="M246.1,427.73c-1.3,0.47-3.86,1.23-6.89,1.23c-3.4,0-6.19-0.87-8.39-2.96c-1.93-1.86-3.13-4.86-3.13-8.36
				c0.03-6.69,4.63-11.59,12.15-11.59c2.6,0,4.63,0.57,5.59,1.03l-0.7,2.36c-1.2-0.53-2.7-0.97-4.96-0.97
				c-5.46,0-9.02,3.4-9.02,9.02c0,5.69,3.43,9.06,8.66,9.06c1.9,0,3.2-0.27,3.86-0.6v-6.69h-4.56v-2.33h7.39V427.73z"/>
			<path class="st0" d="M253.69,408.08c0.03,1-0.7,1.8-1.86,1.8c-1.03,0-1.76-0.8-1.76-1.8c0-1.03,0.77-1.83,1.83-1.83
				C252.99,406.25,253.69,407.05,253.69,408.08z M250.43,428.73v-16.11h2.93v16.11H250.43z"/>
			<path class="st0" d="M267.14,428.73l-0.23-2.03h-0.1c-0.9,1.27-2.63,2.4-4.93,2.4c-3.26,0-4.93-2.3-4.93-4.63
				c0-3.9,3.46-6.03,9.69-5.99v-0.33c0-1.33-0.37-3.73-3.66-3.73c-1.5,0-3.06,0.47-4.2,1.2l-0.67-1.93
				c1.33-0.87,3.26-1.43,5.29-1.43c4.93,0,6.13,3.36,6.13,6.59v6.03c0,1.4,0.07,2.76,0.27,3.86H267.14z M266.71,420.5
				c-3.2-0.07-6.83,0.5-6.83,3.63c0,1.9,1.26,2.8,2.76,2.8c2.1,0,3.43-1.33,3.9-2.7c0.1-0.3,0.17-0.63,0.17-0.93V420.5z
				 M268.17,405.65l-4.06,4.76h-2.1l2.93-4.76H268.17z"/>
			<path class="st0" d="M281.42,406.59c1.46-0.3,3.56-0.47,5.56-0.47c3.1,0,5.09,0.57,6.49,1.83c1.13,1,1.76,2.53,1.76,4.26
				c0,2.96-1.86,4.93-4.23,5.73v0.1c1.73,0.6,2.76,2.2,3.3,4.53c0.73,3.13,1.27,5.29,1.73,6.16h-3c-0.37-0.63-0.87-2.56-1.5-5.36
				c-0.67-3.1-1.87-4.26-4.5-4.36h-2.73v9.72h-2.9V406.59z M284.32,416.81h2.96c3.1,0,5.06-1.7,5.06-4.26c0-2.9-2.1-4.16-5.16-4.2
				c-1.4,0-2.4,0.13-2.86,0.27V416.81z"/>
			<path class="st0" d="M301,421.2c0.07,3.96,2.6,5.59,5.53,5.59c2.1,0,3.36-0.37,4.46-0.83l0.5,2.1c-1.03,0.47-2.8,1-5.36,1
				c-4.96,0-7.92-3.26-7.92-8.12c0-4.86,2.86-8.69,7.56-8.69c5.26,0,6.66,4.63,6.66,7.59c0,0.6-0.07,1.07-0.1,1.37H301z
				 M309.59,419.11c0.03-1.86-0.77-4.76-4.06-4.76c-2.96,0-4.26,2.73-4.49,4.76H309.59z M304.16,410.68c0.4-1.46,1.9-1.9,1.9-3.13
				c0-0.7-0.5-1.13-1.13-1.13c-0.7,0-1.23,0.57-1.6,1.17l-1.13-0.67c0.57-1.2,1.6-2.23,3.23-2.23c1.6,0,2.83,1.03,2.83,2.5
				c0,1.86-1.76,2.4-2.53,3.9L304.16,410.68z"/>
			<path class="st0" d="M326.1,408.75h-6.83v-2.46h16.61v2.46h-6.86v19.98h-2.93V408.75z"/>
			<path class="st0" d="M345.08,428.73l-0.23-2.03h-0.1c-0.9,1.27-2.63,2.4-4.93,2.4c-3.26,0-4.93-2.3-4.93-4.63
				c0-3.9,3.46-6.03,9.69-5.99v-0.33c0-1.33-0.37-3.73-3.66-3.73c-1.5,0-3.06,0.47-4.2,1.2l-0.67-1.93
				c1.33-0.87,3.26-1.43,5.29-1.43c4.93,0,6.13,3.36,6.13,6.59v6.03c0,1.4,0.07,2.76,0.27,3.86H345.08z M344.65,420.5
				c-3.2-0.07-6.83,0.5-6.83,3.63c0,1.9,1.26,2.8,2.76,2.8c2.1,0,3.43-1.33,3.9-2.7c0.1-0.3,0.17-0.63,0.17-0.93V420.5z
				 M343.42,433.09c0,0.93-0.67,1.73-1.7,1.73c-0.93,0-1.63-0.8-1.63-1.73c0-0.93,0.73-1.7,1.7-1.7
				C342.72,431.39,343.42,432.16,343.42,433.09z"/>
			<path class="st0" d="M366.79,420.54c0,5.96-4.13,8.56-8.02,8.56c-4.36,0-7.72-3.2-7.72-8.29c0-5.39,3.53-8.56,7.99-8.56
				C363.66,412.25,366.79,415.61,366.79,420.54z M354,420.7c0,3.53,2.03,6.19,4.89,6.19c2.8,0,4.89-2.63,4.89-6.26
				c0-2.73-1.36-6.19-4.83-6.19S354,417.64,354,420.7z"/>
			<path class="st0" d="M377.64,428.73v-22.44h3.16l7.19,11.35c1.67,2.63,2.96,4.99,4.03,7.29l0.07-0.03
				c-0.27-3-0.33-5.73-0.33-9.22v-9.39h2.73v22.44h-2.93l-7.13-11.39c-1.56-2.5-3.06-5.06-4.2-7.49l-0.1,0.03
				c0.17,2.83,0.23,5.53,0.23,9.26v9.59H377.64z"/>
			<path class="st0" d="M401.08,421.2c0.07,3.96,2.6,5.59,5.53,5.59c2.1,0,3.36-0.37,4.46-0.83l0.5,2.1c-1.03,0.47-2.8,1-5.36,1
				c-4.96,0-7.92-3.26-7.92-8.12c0-4.86,2.86-8.69,7.56-8.69c5.26,0,6.66,4.63,6.66,7.59c0,0.6-0.07,1.07-0.1,1.37H401.08z
				 M409.67,419.11c0.03-1.86-0.77-4.76-4.06-4.76c-2.96,0-4.26,2.73-4.49,4.76H409.67z M406.74,405.65l3.2,4.76h-2.23l-1.93-3.16
				h-0.07l-1.93,3.16h-2.2l3.16-4.76H406.74z"/>
			<path class="st0" d="M416.13,416.97c0-1.67-0.03-3.03-0.13-4.36h2.6l0.17,2.66h0.07c0.8-1.53,2.66-3.03,5.33-3.03
				c2.23,0,5.69,1.33,5.69,6.86v9.62h-2.93v-9.29c0-2.6-0.96-4.76-3.73-4.76c-1.93,0-3.43,1.37-3.93,3c-0.13,0.37-0.2,0.87-0.2,1.36
				v9.69h-2.93V416.97z"/>
			<path class="st0" d="M444.66,408.75h-6.83v-2.46h16.61v2.46h-6.86v19.98h-2.93V408.75z"/>
			<path class="st0" d="M456.61,405.09h2.93v10.06h0.07c0.47-0.83,1.2-1.56,2.1-2.06c0.87-0.5,1.9-0.83,3-0.83
				c2.16,0,5.63,1.33,5.63,6.89v9.59h-2.93v-9.26c0-2.6-0.96-4.79-3.73-4.79c-1.9,0-3.4,1.33-3.93,2.93c-0.17,0.4-0.2,0.83-0.2,1.4
				v9.72h-2.93V405.09z"/>
			<path class="st0" d="M491.17,409.02c0.37,0.67,0.6,1.5,0.6,2.4c0,1.67-1.2,2.73-2.83,2.8l-0.37,0.03v10.09
				c0,1.67,0.03,3.13,0.13,4.4h-2.6l-0.17-2.63h-0.07c-0.77,1.3-2.46,3-5.33,3c-2.53,0-5.56-1.4-5.56-7.06v-9.42h2.93v8.92
				c0,3.06,0.93,5.13,3.6,5.13c1.96,0,3.33-1.36,3.86-2.66c0.17-0.43,0.27-0.97,0.27-1.5v-9.89h2.3c1.17,0,1.56-0.47,1.56-1.3
				c0-0.63-0.23-1.33-0.57-1.93L491.17,409.02z"/>
			<path class="st0" d="M508.88,409.88c0.33,0.7,0.57,1.5,0.57,2.43c0,1.8-1.07,3-3.1,2.9c1.07,1.33,1.67,3.16,1.67,5.33
				c0,5.96-4.13,8.56-8.02,8.56c-4.36,0-7.72-3.2-7.72-8.29c0-5.39,3.53-8.56,7.99-8.56c1,0,1.86,0.17,2.76,0.47
				c0.8,0.23,1.8,0.87,2.83,0.87c0.87,0,1.33-0.47,1.33-1.33c0-0.73-0.23-1.4-0.53-1.96L508.88,409.88z M495.23,420.7
				c0,3.53,2.03,6.19,4.89,6.19c2.8,0,4.89-2.63,4.89-6.26c0-2.73-1.36-6.19-4.83-6.19S495.23,417.64,495.23,420.7z"/>
			<path class="st0" d="M511.85,416.97c0-1.67-0.03-3.03-0.13-4.36h2.6l0.17,2.66h0.07c0.8-1.53,2.66-3.03,5.33-3.03
				c2.23,0,5.69,1.33,5.69,6.86v9.62h-2.93v-9.29c0-2.6-0.97-4.76-3.73-4.76c-1.93,0-3.43,1.37-3.93,3c-0.13,0.37-0.2,0.87-0.2,1.36
				v9.69h-2.93V416.97z"/>
			<path class="st0" d="M544.21,412.61c-0.07,1.17-0.13,2.46-0.13,4.43v9.36c0,3.7-0.73,5.96-2.3,7.36
				c-1.56,1.47-3.83,1.93-5.86,1.93c-1.93,0-4.06-0.47-5.36-1.33l0.73-2.23c1.07,0.67,2.73,1.27,4.73,1.27c3,0,5.19-1.56,5.19-5.63
				v-1.8h-0.07c-0.9,1.5-2.63,2.7-5.13,2.7c-4,0-6.86-3.4-6.86-7.86c0-5.46,3.56-8.56,7.26-8.56c2.8,0,4.33,1.46,5.03,2.8h0.07
				l0.13-2.43H544.21z M541.18,418.97c0-0.5-0.03-0.93-0.17-1.33c-0.53-1.7-1.96-3.1-4.1-3.1c-2.8,0-4.79,2.36-4.79,6.09
				c0,3.16,1.6,5.79,4.76,5.79c1.8,0,3.43-1.13,4.06-3c0.17-0.5,0.23-1.07,0.23-1.56V418.97z"/>
			<path class="st0" d="M558.99,406.29v9.39h10.85v-9.39h2.93v22.44h-2.93v-10.52h-10.85v10.52h-2.9v-22.44H558.99z"/>
			<path class="st0" d="M581.29,408.08c0.03,1-0.7,1.8-1.86,1.8c-1.03,0-1.76-0.8-1.76-1.8c0-1.03,0.77-1.83,1.83-1.83
				C580.6,406.25,581.29,407.05,581.29,408.08z M578.03,428.73v-16.11h2.93v16.11H578.03z"/>
			<path class="st0" d="M587.45,421.2c0.07,3.96,2.6,5.59,5.53,5.59c2.1,0,3.36-0.37,4.46-0.83l0.5,2.1c-1.03,0.47-2.8,1-5.36,1
				c-4.96,0-7.92-3.26-7.92-8.12c0-4.86,2.86-8.69,7.56-8.69c5.26,0,6.66,4.63,6.66,7.59c0,0.6-0.07,1.07-0.1,1.37H587.45z
				 M596.04,419.11c0.03-1.86-0.77-4.76-4.06-4.76c-2.96,0-4.26,2.73-4.49,4.76H596.04z M592.71,405.65l3.2,4.76h-2.26l-1.93-3.16
				h-0.07l-1.9,3.16h-2.2l3.13-4.76H592.71z M593.38,433.09c0,0.93-0.67,1.73-1.7,1.73c-0.93,0-1.63-0.8-1.63-1.73
				c0-0.93,0.73-1.7,1.7-1.7C592.68,431.39,593.38,432.16,593.38,433.09z"/>
			<path class="st0" d="M615.99,424.33c0,1.67,0.03,3.13,0.13,4.4h-2.6l-0.17-2.63h-0.07c-0.77,1.3-2.46,3-5.33,3
				c-2.53,0-5.56-1.4-5.56-7.06v-9.42h2.93v8.92c0,3.06,0.93,5.13,3.6,5.13c1.96,0,3.33-1.36,3.86-2.66
				c0.17-0.43,0.27-0.97,0.27-1.5v-9.89h2.93V424.33z"/>
		</g>
	</g>
	<g>
		<path class="st1" d="M0,367.25h9.93c0.38,2.84,1.47,4.83,3.26,5.96c1.89,1.33,4.49,1.99,7.8,1.99c2.93,0,5.16-0.52,6.67-1.56
			c1.51-1.04,2.27-2.55,2.27-4.54c0-3.03-4.26-5.49-12.77-7.38l-0.28-0.14l-1.13-0.28c-4.83-1.04-8.04-2.13-9.65-3.26
			c-1.89-1.04-3.22-2.55-3.97-4.54c-0.95-1.7-1.42-3.88-1.42-6.53c0-4.63,1.61-8.28,4.83-10.93c3.21-2.55,7.9-3.83,14.05-3.83
			c5.77,0,10.22,1.33,13.34,3.97c3.22,2.93,4.92,6.77,5.11,11.5h-5.68c-2.18,0-3.74-0.99-4.68-2.98c-0.47-0.94-1.14-1.75-1.99-2.41
			c-1.7-1.23-4.02-1.84-6.95-1.84c-2.84,0-4.87,0.52-6.1,1.56c-1.42,1.04-2.13,2.51-2.13,4.4c0,2.55,2.74,4.45,8.23,5.68
			c1.61,0.47,2.79,0.76,3.55,0.85c1.7,0.57,3.19,1.02,4.47,1.35c1.28,0.33,2.29,0.59,3.05,0.78c1.32,0.57,2.65,1.14,3.97,1.7
			c1.89,1.14,3.36,2.6,4.4,4.4c1.04,1.99,1.56,4.16,1.56,6.53c0,5.11-1.7,9.08-5.11,11.92c-3.41,2.65-8.23,3.97-14.47,3.97
			c-6.44,0-11.26-1.37-14.48-4.12C2.17,376.71,0.28,372.64,0,367.25z"/>
		<path class="st1" d="M43.32,382.43v-43.71c0-1.42,0.5-2.63,1.49-3.62c0.99-0.99,2.2-1.49,3.62-1.49h4.97v48.82H43.32z"/>
		<path class="st1" d="M55.42,382.43v-43.71c0-1.42,0.5-2.63,1.49-3.62c0.99-0.99,2.2-1.54,3.62-1.63h9.79l9.65,37.32l9.65-37.32
			h14.9v48.96h-9.37v-39.45l-9.93,39.45H74.86l-10.08-39.45v39.45H55.42z"/>
		<path class="st1" d="M108.54,367.25h9.93c0.38,2.84,1.47,4.83,3.26,5.96c1.89,1.33,4.49,1.99,7.8,1.99c2.93,0,5.16-0.52,6.67-1.56
			c1.51-1.04,2.27-2.55,2.27-4.54c0-3.03-4.26-5.49-12.77-7.38l-0.28-0.14l-1.13-0.28c-4.83-1.04-8.04-2.13-9.65-3.26
			c-1.89-1.04-3.22-2.55-3.97-4.54c-0.95-1.7-1.42-3.88-1.42-6.53c0-4.63,1.61-8.28,4.83-10.93c3.21-2.55,7.9-3.83,14.05-3.83
			c5.77,0,10.22,1.33,13.34,3.97c3.22,2.93,4.92,6.77,5.11,11.5h-5.68c-2.18,0-3.74-0.99-4.68-2.98c-0.47-0.94-1.14-1.75-1.99-2.41
			c-1.7-1.23-4.02-1.84-6.95-1.84c-2.84,0-4.87,0.52-6.1,1.56c-1.42,1.04-2.13,2.51-2.13,4.4c0,2.55,2.74,4.45,8.23,5.68
			c1.61,0.47,2.79,0.76,3.55,0.85c1.7,0.57,3.19,1.02,4.47,1.35c1.28,0.33,2.29,0.59,3.05,0.78c1.32,0.57,2.65,1.14,3.97,1.7
			c1.89,1.14,3.36,2.6,4.4,4.4c1.04,1.99,1.56,4.16,1.56,6.53c0,5.11-1.7,9.08-5.11,11.92c-3.41,2.65-8.23,3.97-14.47,3.97
			c-6.44,0-11.26-1.37-14.48-4.12C110.71,376.71,108.82,372.64,108.54,367.25z"/>
		<path class="st1" d="M151,358.02c0-7.95,2.08-14.24,6.24-18.88c4.45-4.63,10.26-6.95,17.46-6.95c7.1,0,12.91,2.32,17.46,6.95
			c4.26,4.73,6.39,11.02,6.39,18.88c0,7.85-2.13,14.1-6.39,18.73c-4.35,4.54-10.17,6.81-17.46,6.81c-7.38,0-13.2-2.27-17.46-6.81
			C153.08,372.22,151,365.97,151,358.02z M161.08,358.02c0,5.49,1.18,9.65,3.55,12.49c2.36,2.93,5.72,4.4,10.08,4.4
			c4.26,0,7.61-1.47,10.08-4.4c2.46-3.03,3.69-7.19,3.69-12.49c0-5.3-1.23-9.51-3.69-12.63c-2.46-2.93-5.82-4.4-10.08-4.4
			c-4.35,0-7.71,1.47-10.08,4.4C162.26,348.33,161.08,352.54,161.08,358.02z"/>
		<path class="st1" d="M202.42,382.43v-43.71c0-1.42,0.5-2.63,1.49-3.62c0.99-0.99,2.2-1.49,3.62-1.49h14.05
			c7.47,0,13.06,1.99,16.75,5.96c3.69,4.16,5.54,10.31,5.54,18.45c0,4.35-0.66,8.28-1.99,11.78c-1.51,3.6-3.5,6.34-5.96,8.23
			c-2.08,1.61-4.31,2.75-6.67,3.41c-2.27,0.66-5.73,0.99-10.36,0.99H202.42z M212.21,373.63h8.09c4.63,0,8.04-1.23,10.22-3.69
			c2.08-2.27,3.12-6.24,3.12-11.92c0-5.49-0.99-9.51-2.98-12.06c-1.89-2.55-4.92-3.83-9.08-3.83h-9.37V373.63z"/>
		<path class="st1" d="M247.44,382.43v-43.71c0-1.42,0.5-2.63,1.49-3.62c0.99-0.99,2.2-1.49,3.62-1.49h30.37v8.37h-25.54v10.5h19.02
			v3.26c0,1.42-0.5,2.63-1.49,3.62c-0.99,0.99-2.2,1.49-3.62,1.49h-13.91v12.49h25.54v9.08H247.44z"/>
		<path class="st1" d="M296.3,364.98v17.46h-10.08v-43.71c0-1.42,0.5-2.63,1.49-3.62c0.99-0.99,2.2-1.49,3.62-1.49h16.6
			c5.2,0,9.08,1.33,11.64,3.97c2.65,2.65,3.97,6.58,3.97,11.78c0,4.92-1.28,8.8-3.83,11.64c-2.55,2.65-6.24,3.97-11.07,3.97H296.3z
			 M296.3,356.18h9.79c2.65,0,4.54-0.57,5.68-1.7c1.23-1.04,1.84-2.84,1.84-5.39c0-2.18-0.57-3.92-1.7-5.25
			c-1.33-1.14-3.08-1.7-5.25-1.7H296.3V356.18z"/>
		<path class="st1" d="M363.18,376.61c-1.7,2.46-3.74,4.26-6.1,5.39c-2.46,1.04-5.16,1.56-8.09,1.56c-7,0-12.54-2.32-16.6-6.95
			c-4.16-4.54-6.24-10.79-6.24-18.73c0-7.85,2.03-14.05,6.1-18.59c4.26-4.73,9.88-7.1,16.89-7.1c6.05,0,11.07,1.47,15.04,4.4
			c3.88,3.12,6.2,7.19,6.95,12.2h-6.81c-1.99,0-3.45-0.9-4.4-2.7c-0.66-1.14-1.61-2.18-2.84-3.12c-1.89-1.32-4.4-1.99-7.52-1.99
			c-4.07,0-7.29,1.47-9.65,4.4c-2.37,3.12-3.55,7.29-3.55,12.49c0,5.3,1.23,9.46,3.69,12.49c2.36,2.93,5.72,4.4,10.08,4.4
			c3.22,0,5.87-0.9,7.95-2.7c2.08-1.89,3.41-4.49,3.97-7.81h-5.96c-1.42,0-2.63-0.5-3.62-1.49c-0.99-0.99-1.49-2.2-1.49-3.62v-3.26
			h20.29v26.54h-2.7c-2.65,0-4.31-1.32-4.97-3.97L363.18,376.61z"/>
		<path class="st1" d="M374.99,382.43v-43.71c0-1.42,0.5-2.63,1.49-3.62c0.99-0.99,2.2-1.49,3.62-1.49h4.97v48.82H374.99z"/>
		<path class="st1" d="M408.09,333.61h7.95l17.74,48.82h-10.64l-3.26-10.08h-19.02l-3.12,10.08h-10.64l16.18-45.55
			C404.12,334.7,405.73,333.61,408.09,333.61z M410.37,343.41l-6.81,20.72h13.62L410.37,343.41z"/>
		<path class="st1" d="M437.65,382.43v-43.71c0-1.42,0.5-2.63,1.49-3.62c0.99-0.99,2.2-1.49,3.62-1.49h18.59
			c5.3,0,9.22,1.14,11.78,3.41c2.65,2.37,3.97,5.82,3.97,10.36c0,3.03-0.66,5.53-1.99,7.52c-1.14,1.89-2.93,3.26-5.39,4.12
			c2.18,0.76,3.69,1.89,4.54,3.41c0.85,1.42,1.37,3.83,1.56,7.24l0.28,5.82c0,0.57,0,1.18,0,1.84c0,0.66,0.05,1.28,0.14,1.84
			c0.28,1.7,0.85,2.79,1.7,3.26h-11.07c-0.47-0.94-0.76-1.94-0.85-2.98c-0.19-1.51-0.28-2.55-0.28-3.12l-0.14-5.25
			c-0.19-2.84-0.76-4.87-1.7-6.1c-1.04-1.04-2.89-1.56-5.53-1.56h-10.64v19.02H437.65z M447.73,354.9h11.78
			c2.55,0,4.45-0.52,5.68-1.56c1.23-1.04,1.84-2.65,1.84-4.83c0-2.18-0.62-3.78-1.84-4.83c-1.13-1.14-2.84-1.7-5.11-1.7h-12.35
			V354.9z"/>
		<path class="st1" d="M481.54,382.43v-43.71c0-1.42,0.5-2.63,1.49-3.62c0.99-0.99,2.2-1.49,3.62-1.49h30.37v8.37h-25.54v10.5h19.02
			v3.26c0,1.42-0.5,2.63-1.49,3.62c-0.99,0.99-2.2,1.49-3.62,1.49h-13.91v12.49h25.54v9.08H481.54z"/>
		<path class="st2" d="M523.3,374.63h4.83v7.81h-7.81v-4.83C520.32,375.62,521.31,374.63,523.3,374.63z"/>
		<path class="st2" d="M546.9,382.43l-16.89-48.82h11.21l10.36,36.47l9.51-32.78c0.57-2.46,2.18-3.69,4.83-3.69h7.24l-16.6,48.82
			H546.9z"/>
		<path class="st2" d="M576.88,382.43v-43.71c0-1.42,0.5-2.63,1.49-3.62c0.99-0.99,2.2-1.54,3.62-1.63h5.39l19.87,33.63v-33.63h9.93
			v48.96h-10.36l-20.01-33.63v33.63H576.88z"/>
	</g>
	<g>
		<g>
			<g>
				<path class="st3" d="M503.64,93.93L474.82,65.1L314.8,225.12l28.88,28.77c23.1,23.1,60.57,23.1,83.67,0l76.29-76.29
					C526.75,154.49,526.75,117.03,503.64,93.93z"/>
				<path class="st3" d="M427.05,17.33c-23.1-23.1-60.57-23.11-83.67,0l-35.15,35.15l83.1,83l76.94-76.93L427.05,17.33z"/>
			</g>
		</g>
		<g>
			<g>
				<path class="st1" d="M273.04,17.33c-23.1-23.1-60.57-23.1-83.67,0l-76.6,76.6c-23.1,23.1-23.1,60.57,0,83.67l28.6,28.6
					L301.66,45.91L273.04,17.33z"/>
				<path class="st1" d="M391.32,135.47l-83.1-83l-83.2,83.2l-77.09,77.09l41.12,41.12c23.1,23.1,60.57,23.1,83.67,0l35.48-35.34
					l10.69-10.64l72.57-72.29L391.32,135.47z"/>
			</g>
		</g>
		<path class="st4" d="M225.02,135.68"/>
	</g>
</g>
</svg>
