<svg xmlns="http://www.w3.org/2000/svg" width="51" height="33" viewBox="0 0 51 33">
  <defs>
    <style>
      .cls-1 {
        fill: #fff;
        fill-rule: evenodd;
      }
    </style>
  </defs>
  <path class="cls-1" d="M540.921,20.427l-3.455-3.507L518.289,36.388l3.461,3.5a7.017,7.017,0,0,0,10.028,0l9.143-9.282A7.276,7.276,0,0,0,540.921,20.427Zm-27.638-9.32a7.016,7.016,0,0,0-10.028,0l-9.179,9.319a7.276,7.276,0,0,0,0,10.18l3.428,3.48,19.209-19.5Zm23.4,5.014-4.939-5.014a7.016,7.016,0,0,0-10.028,0L498.29,34.886l4.928,5a7.017,7.017,0,0,0,10.028,0Z" transform="translate(-492 -9)"/>
</svg>
