<svg xmlns="http://www.w3.org/2000/svg" width="11.375" height="22.625" viewBox="0 0 11.375 22.625">
  <defs>
    <style>
      .cls-1 {
        fill: #999;
        fill-rule: evenodd;
      }
    </style>
  </defs>
  <path id="Shape_2_copy_9" data-name="Shape 2 copy 9" class="cls-1" d="M356.185,336.748l-1.7-2.036a0.317,0.317,0,0,1,0-.391l7.183-8.6a0.317,0.317,0,0,0,0-.391l-7.183-8.6a0.317,0.317,0,0,1,0-.391l1.7-2.036a0.206,0.206,0,0,1,.327,0l9.211,11.025a0.317,0.317,0,0,1,0,.391l-9.211,11.026A0.206,0.206,0,0,1,356.185,336.748Z" transform="translate(-354.438 -314.219)"/>
</svg>
