<svg xmlns="http://www.w3.org/2000/svg" width="60" height="39" viewBox="0 0 60 39">
  <defs>
    <style>
      .cls-1 {
        fill: #9f9f9f;
        fill-rule: evenodd;
      }
    </style>
  </defs>
  <path id="Shape_5_copy_5" data-name="Shape 5 copy 5" class="cls-1" d="M436.6,625.991H385.4a4.4,4.4,0,0,1-4.413-4.38V591.387a4.4,4.4,0,0,1,4.413-4.381H436.6a4.4,4.4,0,0,1,4.412,4.381v30.224A4.4,4.4,0,0,1,436.6,625.991ZM386.01,590.427a1.568,1.568,0,0,0-1.573,1.562v29.02a1.568,1.568,0,0,0,1.573,1.561h49.981a1.568,1.568,0,0,0,1.574-1.561v-29.02a1.569,1.569,0,0,0-1.574-1.562H386.01Zm42.942,11.142h-35.9a1.711,1.711,0,1,1,0-3.421h35.9A1.711,1.711,0,1,1,428.952,601.569Z" transform="translate(-381 -587)"/>
</svg>
