<svg xmlns="http://www.w3.org/2000/svg" width="16" height="9" viewBox="0 0 16 9">
  <defs>
    <style>
      .cls-1 {
        fill: #fff;
        fill-rule: evenodd;
      }
    </style>
  </defs>
  <path id="Shape_2_copy_3" data-name="Shape 2 copy 3" class="cls-1" d="M320.059,56.393l1.438-1.346a0.206,0.206,0,0,1,.277,0l6.077,5.682a0.2,0.2,0,0,0,.276,0l6.077-5.682a0.2,0.2,0,0,1,.276,0l1.439,1.346a0.175,0.175,0,0,1,0,.258l-7.792,7.285a0.2,0.2,0,0,1-.276,0l-7.792-7.285A0.173,0.173,0,0,1,320.059,56.393Z" transform="translate(-320 -55)"/>
</svg>
