<?xml version="1.0" encoding="utf-8"?>
<!-- Generator: Adobe Illustrator 24.0.0, SVG Export Plug-In . SVG Version: 6.00 Build 0)  -->
<svg version="1.1" id="Layer_1" xmlns="http://www.w3.org/2000/svg" xmlns:xlink="http://www.w3.org/1999/xlink" x="0px" y="0px"
	 viewBox="0 0 94.56 96.61" style="enable-background:new 0 0 94.56 96.61;" xml:space="preserve">
<style type="text/css">
	.st0{fill-rule:evenodd;clip-rule:evenodd;fill:#007AFF;}
	.st1{fill-rule:evenodd;clip-rule:evenodd;fill:#FFFFFF;}
</style>
<rect class="st0" width="94.56" height="96.61"/>
<path id="Shape_2_copy_3" class="st1" d="M29.53,43.12l3.22-2.75c0.18-0.15,0.44-0.15,0.62,0l13.6,11.6c0.18,0.15,0.44,0.15,0.62,0
	l13.6-11.6c0.18-0.14,0.43-0.14,0.61,0l3.22,2.75c0.15,0.11,0.17,0.33,0.06,0.47c-0.02,0.02-0.04,0.04-0.06,0.06L47.59,58.52
	c-0.18,0.15-0.44,0.15-0.62,0L29.53,43.65c-0.15-0.11-0.17-0.32-0.06-0.47C29.49,43.15,29.51,43.13,29.53,43.12z"/>
</svg>
