<svg xmlns="http://www.w3.org/2000/svg" width="80" height="80" viewBox="0 0 80 80">
  <defs>
    <style>
      .cls-1 {
        fill: #333;
        fill-rule: evenodd;
      }
    </style>
  </defs>
  <path class="cls-1" d="M395.452,220.045a0.628,0.628,0,0,0-.9,0l-25.475,26.122a0.667,0.667,0,0,0,0,.927l4.7,2.141a0.628,0.628,0,0,0,.9,0l19.867-20.372a0.628,0.628,0,0,1,.9,0l19.867,20.372a0.628,0.628,0,0,0,.9,0l4.7-2.141a0.667,0.667,0,0,0,0-.927ZM423.221,196H366.779A11.792,11.792,0,0,0,355,207.779v56.443A11.792,11.792,0,0,0,366.779,276h56.442A11.793,11.793,0,0,0,435,264.222V207.779A11.793,11.793,0,0,0,423.221,196ZM430,264.222A6.789,6.789,0,0,1,423.221,271H366.779A6.79,6.79,0,0,1,360,264.222V207.779A6.79,6.79,0,0,1,366.779,201h56.442A6.79,6.79,0,0,1,430,207.779v56.443Z" transform="translate(-355 -196)"/>
</svg>
