<svg xmlns="http://www.w3.org/2000/svg" width="50" height="50.031" viewBox="0 0 50 50.031">
  <defs>
    <style>
      .cls-1 {
        fill: #333;
        fill-rule: evenodd;
      }
    </style>
  </defs>
  <path class="cls-1" d="M84.949,403.017a24.947,24.947,0,0,1-2.88-.168,2.21,2.21,0,0,1-1.952-2.326,4.483,4.483,0,0,0-2.731-4.386,4.712,4.712,0,0,0-5.034,1.134,2.213,2.213,0,0,1-3.027.239,24.8,24.8,0,0,1-3.955-4,2.222,2.222,0,0,1,.242-3,4.5,4.5,0,0,0,1.133-5,4.392,4.392,0,0,0-4.138-2.769h0a2.465,2.465,0,0,1-2.468-1.961,25.014,25.014,0,0,1,.011-5.688,2.17,2.17,0,0,1,2.286-1.955,4.7,4.7,0,0,0,4.418-2.731,4.483,4.483,0,0,0-1.131-5.042,2.221,2.221,0,0,1-.238-3.026,24.931,24.931,0,0,1,4.043-4,2.228,2.228,0,0,1,3,.251,4.725,4.725,0,0,0,5,1.143,4.5,4.5,0,0,0,2.764-4.316,2.223,2.223,0,0,1,1.967-2.277,25.058,25.058,0,0,1,5.623.014,2.215,2.215,0,0,1,1.953,2.327,4.49,4.49,0,0,0,2.727,4.389,4.718,4.718,0,0,0,5.033-1.134,2.212,2.212,0,0,1,3.024-.244,24.718,24.718,0,0,1,3.961,4,2.222,2.222,0,0,1-.244,3,4.461,4.461,0,0,0,3.06,7.765,2.438,2.438,0,0,1,2.415,1.962h0a24.937,24.937,0,0,1-.012,5.689,2.231,2.231,0,0,1-2.345,1.952l-0.251-.006a4.462,4.462,0,0,0-2.976,7.781,2.215,2.215,0,0,1,.237,3.026,24.927,24.927,0,0,1-4.044,4,2.206,2.206,0,0,1-3-.249,4.674,4.674,0,0,0-5.006-1.143,4.494,4.494,0,0,0-2.76,4.312,2.225,2.225,0,0,1-1.968,2.279A24.55,24.55,0,0,1,84.949,403.017Zm-9.156-8.927a5.851,5.851,0,0,1,2.266.441,6.228,6.228,0,0,1,3.8,6.093,0.47,0.47,0,0,0,.414.5,23.3,23.3,0,0,0,5.232.014,0.477,0.477,0,0,0,.421-0.488,6.239,6.239,0,0,1,3.84-5.984,6.4,6.4,0,0,1,6.948,1.58,0.477,0.477,0,0,0,.645.049,23.159,23.159,0,0,0,3.756-3.718,0.471,0.471,0,0,0-.049-0.644,6.2,6.2,0,0,1,4.167-10.813l0.32,0.009a0.5,0.5,0,0,0,.526-0.416,23.237,23.237,0,0,0,.01-5.292A0.777,0.777,0,0,0,107.4,375a6.2,6.2,0,0,1-4.235-10.791,0.472,0.472,0,0,0,.053-0.64,23.06,23.06,0,0,0-3.683-3.723,0.47,0.47,0,0,0-.645.053,6.461,6.461,0,0,1-7,1.572,6.235,6.235,0,0,1-3.792-6.094,0.47,0.47,0,0,0-.416-0.5,23,23,0,0,0-5.231-.014,0.468,0.468,0,0,0-.421.486,6.251,6.251,0,0,1-3.843,5.988,6.486,6.486,0,0,1-6.946-1.582,0.478,0.478,0,0,0-.643-0.053,23.137,23.137,0,0,0-3.758,3.721,0.472,0.472,0,0,0,.05.645,6.229,6.229,0,0,1,1.566,7.006,6.555,6.555,0,0,1-6.079,3.8,0.455,0.455,0,0,0-.5.421,23.294,23.294,0,0,0-.01,5.288,1.013,1.013,0,0,0,.865.413,6.162,6.162,0,0,1,5.621,3.849,6.248,6.248,0,0,1-1.566,6.944,0.472,0.472,0,0,0-.052.637,23.021,23.021,0,0,0,3.679,3.726,0.473,0.473,0,0,0,.646-0.051A6.464,6.464,0,0,1,75.793,394.09Zm9.223-7.113a8.925,8.925,0,1,1,8.917-8.925A8.931,8.931,0,0,1,85.016,386.977Zm0-16.108a7.183,7.183,0,1,0,7.177,7.183A7.188,7.188,0,0,0,85.016,370.869Z" transform="translate(-60 -353)"/>
</svg>
