<svg xmlns="http://www.w3.org/2000/svg" width="61" height="40" viewBox="0 0 61 40">
  <defs>
    <style>
      .cls-1 {
        fill: #3478f7;
        fill-rule: evenodd;
      }
    </style>
  </defs>
  <path id="Shape_5_copy_6" data-name="Shape 5 copy 6" class="cls-1" d="M865.524,1479.99H813.477a4.491,4.491,0,0,1-4.486-4.49v-31a4.491,4.491,0,0,1,4.486-4.49h52.047a4.491,4.491,0,0,1,4.487,4.49v31A4.491,4.491,0,0,1,865.524,1479.99Zm-51.43-36.47a1.6,1.6,0,0,0-1.6,1.6v29.76a1.6,1.6,0,0,0,1.6,1.6h50.814a1.6,1.6,0,0,0,1.6-1.6v-29.76a1.6,1.6,0,0,0-1.6-1.6H814.094Zm43.657,11.42h-36.5a1.755,1.755,0,0,1,0-3.51h36.5A1.755,1.755,0,0,1,857.751,1454.94Z" transform="translate(-809 -1440)"/>
</svg>
