<svg xmlns="http://www.w3.org/2000/svg">
<defs>
<font id="OxyVietnam" horiz-adv-x="1077" >
  <font-face 
    font-family="Oxy Vietnam"
    font-weight="400"
    font-stretch="normal"
    units-per-em="2048"
    panose-1="2 4 6 3 5 5 6 2 2 4"
    ascent="1638"
    descent="-410"
    x-height="1008"
    cap-height="1458"
    bbox="-212 -463 2283 2178"
    underline-thickness="109"
    underline-position="-143"
    unicode-range="U+0020-FB02"
  />
<missing-glyph horiz-adv-x="1802" 
d="M316.5 698.5q-39.5 39.5 -39.5 96.5q0 56 39.5 94.5t95.5 38.5t96 -38.5t40 -94.5q0 -57 -40 -96.5t-96 -39.5t-95.5 39.5zM219.5 983.5q-79.5 -77.5 -79.5 -188.5q0 -114 79.5 -192t192.5 -78q112 0 192 78t80 192q0 111 -80 188.5t-192 77.5q-113 0 -192.5 -77.5z
M1903 1058h-141q-23 0 -39 -10t-24 -21l-76 -89q-9 -12 -26 -12q-18 0 -36 18l-89 83q-31 31 -67 31h-195q34 -7 57.5 -26.5l23.5 -19.5l181 -176q0 -1 6.5 -7.5t6.5 -8.5q8 -11 8 -23q0 -18 -13 -32l-141 -159l26 -21.5t71 -24.5q29 -1 48 14.5l19 15.5zM1146 1032
q-22 0 -39 -11.5t-25 -18.5l-66 -68q-15 -16 -31 -16t-30 14l-106 99q-13 12 -24.5 19.5t-29.5 7.5h-172q17 -13 33.5 -24.5t34.5 -27.5l179 -170q22 -18 22 -31q0 -9 -10 -22l-191 -217q-5 -5 -15.5 -16.5t-22.5 -17.5h149q28 0 45 21l400 444q-30 24 -55.5 29.5t-45.5 5.5
zM1302 576q-17 18 -51 52l-66.5 66.5l-57 57l-24.5 24.5l-87 -92l110 -118l23 -17t56 -17h39h67.5h64.5h29l-36 7t-67 37zM2004 2007v-2002h-2002v2002h2002zM363.5 231.5q-0.5 -10.5 -1.5 -18.5q-1 -18 -10 -28q-14 -15 -39 -15h-41v164h41q25 0 39 -15q9 -10 10 -26
q1 -8 1.5 -18t0.5 -21q0 -12 -0.5 -22.5zM398 266v12t-1 12t-1 12q-2 12 -7 22q-2 5 -5.5 10t-8.5 10q-10 10 -26 16q-14 5 -32 5h-80v-226h80q18 0 32 5q16 6 26 16q9 10 14 21q5 10 7 23q0 6 1 12t1 13v12v13v12zM658 139v31h-110v68h94v30h-94v66h110v31h-144v-226h144z
M930 230q-5 12 -13 20q-4 3 -8 5.5t-9 4.5t-11.5 3.5t-13.5 3.5l-26 3q-9 2 -15 4.5t-11 6.5q-4 4 -6 9t-2 12q0 15 10 25q11 10 31 10q14 0 27 -3q6 -2 11.5 -5.5t10.5 -8.5l22 21q-7 7 -15 12t-16 8q-16 6 -39 6q-9 0 -17 -1t-15 -4q-14 -4 -23 -13q-10 -9 -15 -22

<glyph glyph-name=".notdef" horiz-adv-x="1802" 
d="M316.5 698.5q-39.5 39.5 -39.5 96.5q0 56 39.5 94.5t95.5 38.5t96 -38.5t40 -94.5q0 -57 -40 -96.5t-96 -39.5t-95.5 39.5zM219.5 983.5q-79.5 -77.5 -79.5 -188.5q0 -114 79.5 -192t192.5 -78q112 0 192 78t80 192q0 111 -80 188.5t-192 77.5q-113 0 -192.5 -77.5z
M1903 1058h-141q-23 0 -39 -10t-24 -21l-76 -89q-9 -12 -26 -12q-18 0 -36 18l-89 83q-31 31 -67 31h-195q34 -7 57.5 -26.5l23.5 -19.5l181 -176q0 -1 6.5 -7.5t6.5 -8.5q8 -11 8 -23q0 -18 -13 -32l-141 -159l26 -21.5t71 -24.5q29 -1 48 14.5l19 15.5zM1146 1032
q-22 0 -39 -11.5t-25 -18.5l-66 -68q-15 -16 -31 -16t-30 14l-106 99q-13 12 -24.5 19.5t-29.5 7.5h-172q17 -13 33.5 -24.5t34.5 -27.5l179 -170q22 -18 22 -31q0 -9 -10 -22l-191 -217q-5 -5 -15.5 -16.5t-22.5 -17.5h149q28 0 45 21l400 444q-30 24 -55.5 29.5t-45.5 5.5
zM1302 576q-17 18 -51 52l-66.5 66.5l-57 57l-24.5 24.5l-87 -92l110 -118l23 -17t56 -17h39h67.5h64.5h29l-36 7t-67 37zM2004 2007v-2002h-2002v2002h2002zM363.5 231.5q-0.5 -10.5 -1.5 -18.5q-1 -18 -10 -28q-14 -15 -39 -15h-41v164h41q25 0 39 -15q9 -10 10 -26
q1 -8 1.5 -18t0.5 -21q0 -12 -0.5 -22.5zM398 266v12t-1 12t-1 12q-2 12 -7 22q-2 5 -5.5 10t-8.5 10q-10 10 -26 16q-14 5 -32 5h-80v-226h80q18 0 32 5q16 6 26 16q9 10 14 21q5 10 7 23q0 6 1 12t1 13v12v13v12zM658 139v31h-110v68h94v30h-94v66h110v31h-144v-226h144z
M930 230q-5 12 -13 20q-4 3 -8 5.5t-9 4.5t-11.5 3.5t-13.5 3.5l-26 3q-9 2 -15 4.5t-11 6.5q-4 4 -6 9t-2 12q0 15 10 25q11 10 31 10q14 0 27 -3q6 -2 11.5 -5.5t10.5 -8.5l22 21q-7 7 -15 12t-16 8q-16 6 -39 6q-9 0 -17 -1t-15 -4q-14 -4 -23 -13q-10 -9 -15 -22
q-6 -12 -6 -26q0 -28 17 -43q15 -15 43 -18l27 -4q5 -1 8.5 -2t6.5 -2q4 -2 9 -6q9 -8 9 -23q0 -17 -12 -26t-34 -9q-18 0 -32 5q-14 4 -26 17l-23 -23q16 -17 35 -23q9 -4 20.5 -5.5t24.5 -1.5q17 0 33 5q7 2 13.5 5t11.5 8q11 8 17 21q6 12 6 28q0 14 -5 26zM1140 139v226
h-34v-226h34zM1473 261h-82v-29h48v-13q0 -11 -3 -19q-1 -4 -3 -8t-6 -8q-6 -8 -16 -12q-9 -4 -20 -4t-19 4q-9 3 -15 10q-4 4 -7 9q-1 3 -2 6.5t-2 6.5q-1 7 -2 20v12.5v15.5v16v13q1 11 2 19q2 8 4 13q2 2 3.5 4.5t3.5 4.5q3 3 7 6t8 4q9 4 19 4q19 0 31 -10
q12 -11 16 -29h35q-3 14 -9 27q-3 7 -7.5 12.5t-9.5 9.5q-10 10 -24 15q-15 6 -32 6q-18 0 -33 -6t-27 -18q-8 -8 -12 -18q-3 -4 -4.5 -9t-2.5 -11q-1 -5 -1.5 -11t-0.5 -13q-1 -13 -1 -29t1 -29q0 -7 0.5 -13t1.5 -11q1 -6 2.5 -11t4.5 -9q4 -10 12 -18q12 -11 27 -18
q15 -6 33 -6t33 6q8 3 15 8t14 12q5 6 9 12.5t6 14.5q5 15 5 37v34zM1745 139v226h-34v-159l-105 159h-31v-226h34v159l104 -159h32z" />
    <glyph glyph-name=".null" horiz-adv-x="0" 
 />
    <glyph glyph-name="nonmarkingreturn" horiz-adv-x="571" 
 />
    <glyph glyph-name="space" unicode=" " horiz-adv-x="506" 
 />
    <glyph glyph-name="exclam" unicode="!" horiz-adv-x="647" 
d="M418 410h-127l-21 1048h170zM266 0v172h176v-172h-176z" />
    <glyph glyph-name="quotedbl" unicode="&#x22;" horiz-adv-x="866" 
d="M524 1110v348h162v-348h-162zM180 1110v348h162v-348h-162z" />
    <glyph glyph-name="numbersign" unicode="#" horiz-adv-x="1337" 
d="M1036 885l-48 -289h183v-131h-203l-74 -465h-151l73 465h-327l-72 -465h-151l73 465h-182v131h205l47 289h-189v135h207l70 440h154l-72 -440h326l69 440h150l-70 -440h178v-135h-196zM558 885l-47 -289h326l47 289h-326z" />
    <glyph glyph-name="dollar" unicode="$" horiz-adv-x="1220" 
d="M984 114q-120 -108 -325 -122v-225h-122v221q-270 11 -451 192l106 107q149 -149 353 -158v543l-41 4q-78 7 -153 41q-66 29 -113 69q-113 101 -113 273q0 376 412 409v183h122v-183q217 -11 381 -157l-100 -101q-126 113 -287 123v-530l64 -10q181 -31 264 -103
q125 -106 125 -289q0 -176 -122 -287zM545 1333q-266 -22 -266 -268q0 -111 65 -168q75 -61 201 -80v516zM879 580q-45 39 -106 55q-24 7 -58 12l-62 8v-526q297 20 297 268q0 120 -71 183z" />
    <glyph glyph-name="percent" unicode="%" horiz-adv-x="1705" 
d="M1575 262q0 -124 -79 -201q-78 -75 -198 -75q-121 0 -198 75q-78 77 -78 201v215q0 125 78 201q77 76 198 76q120 0 198 -76q79 -77 79 -201v-215zM573 0h-123l684 1458h123zM686 981q0 -123 -79 -199q-78 -75 -198 -75q-121 0 -198 75q-78 76 -78 199v215q0 125 78 201
q77 76 198 76t198 -76q79 -77 79 -201v-215zM1458 473q0 178 -160 178q-159 0 -159 -178v-207q0 -178 159 -178q160 0 160 178v207zM569 1192q0 178 -160 178q-159 0 -159 -178v-207q0 -176 159 -176q160 0 160 176v207z" />
    <glyph glyph-name="ampersand" unicode="&#x26;" horiz-adv-x="1513" 
d="M1179 0l-131 160q-31 -29 -60 -50q-43 -33 -90 -57q-59 -30 -123 -46q-75 -19 -157 -19q-211 0 -337 116q-124 116 -124 308q0 146 98 260q39 46 101 94q41 31 116 82l-54 67q-31 40 -51 75q-52 89 -52 175q0 131 91 218t230 87q137 0 227 -88q91 -88 91 -219
q0 -82 -47 -150q-39 -57 -115 -110l-109 -74l373 -448q79 120 82 334h147q-3 -289 -135 -447l224 -268h-195zM636 1337q-168 0 -168 -170q0 -80 131 -239l78 53q63 44 91 77q40 49 40 105q0 174 -172 174zM558 750q-2 -2 -5 -4l-86 -62q-49 -37 -80 -71q-78 -87 -78 -197
q0 -130 86 -211q85 -80 221 -80q90 0 166 28q90 34 178 113z" />
    <glyph glyph-name="quotesingle" unicode="'" horiz-adv-x="538" 
d="M180 1124v334h178v-172z" />
    <glyph glyph-name="parenleft" unicode="(" horiz-adv-x="610" 
d="M378 -193q-3 4 -12 13l-33 33q-23 24 -39 42q-38 43 -63 89t-35 104q-8 44 -8 107v1069q0 62 8 107q10 57 35 104q25 45 63 88q16 18 39 42l45 46l101 -101l-63 -64q-30 -34 -48 -69q-33 -65 -33 -166v-1044q0 -101 33 -166q18 -35 48 -69l63 -64z" />
    <glyph glyph-name="parenright" unicode=")" horiz-adv-x="610" 
d="M419 195q0 -66 -7 -107q-9 -58 -34 -104t-63 -89q-16 -18 -39 -42l-46 -46l-104 105l34 33q19 19 30 31q31 35 49 69q28 57 28 162v1044q0 105 -28 162q-18 35 -49 69q-11 13 -30 31l-34 33l104 105l46 -46q23 -24 39 -42q38 -43 63 -88q25 -46 34 -104q7 -42 7 -107
v-1069z" />
    <glyph glyph-name="asterisk" unicode="*" horiz-adv-x="970" 
d="M776 866l-240 146l9 -281h-119l8 281l-238 -146l-59 101l246 133l-246 135l59 98l238 -145l-8 280h119l-9 -280l240 145l57 -98l-245 -135l245 -133z" />
    <glyph glyph-name="plus" unicode="+" horiz-adv-x="1069" 
d="M604 479v-360h-138v360h-360v137h360v357h138v-357h358v-137h-358z" />
    <glyph glyph-name="comma" unicode="," horiz-adv-x="540" 
d="M180 -295v475h180v-313z" />
    <glyph glyph-name="hyphen" unicode="-" horiz-adv-x="872" 
d="M155 483v138h561v-138h-561z" />
    <glyph glyph-name="hyphen" unicode="&#x2010;" horiz-adv-x="872" 
d="M155 483v138h561v-138h-561z" />
    <glyph glyph-name="period" unicode="." horiz-adv-x="552" 
d="M180 0v193h193v-193h-193z" />
    <glyph glyph-name="slash" unicode="/" horiz-adv-x="727" 
d="M145 -152h-145l584 1762h145z" />
    <glyph glyph-name="zero" unicode="0" horiz-adv-x="1069" 
d="M934 389q0 -179 -115 -291q-112 -110 -285 -110q-172 0 -285 110q-114 112 -114 291v680q0 179 114 291q113 110 285 110q173 0 285 -110q115 -112 115 -291v-680zM786 1061q0 278 -252 278t-252 -278v-664q0 -278 252 -278t252 278v664z" />
    <glyph glyph-name="one" unicode="1" horiz-adv-x="1069" 
d="M528 0v1294l-272 -239v168l272 235h148v-1458h-148z" />
    <glyph glyph-name="two" unicode="2" horiz-adv-x="1069" 
d="M139 0v131l575 731q82 106 82 215q0 262 -254 262q-110 0 -177 -61q-76 -70 -76 -203h-148q0 174 109 284q112 111 292 111q181 0 291 -106q111 -108 111 -287q0 -145 -117 -295l-510 -651h627v-131h-805z" />
    <glyph glyph-name="three" unicode="3" horiz-adv-x="1069" 
d="M817 91q-117 -105 -303 -105q-182 0 -295 93q-124 102 -133 292h147q9 -129 93 -196q74 -58 188 -58q122 0 199 74q82 78 82 208q0 283 -287 283h-31v129h31q260 0 260 264q0 126 -74 199q-69 67 -180 67q-239 0 -262 -243h-148q12 173 128 275q113 100 282 100
q179 0 290 -109t111 -287q0 -234 -196 -323q223 -84 223 -357q0 -194 -125 -306z" />
    <glyph glyph-name="four" unicode="4" horiz-adv-x="1069" 
d="M808 231v-231h-145v231h-582v134l526 1093h158l-526 -1093h424v413h145v-413h178v-134h-178z" />
    <glyph glyph-name="five" unicode="5" horiz-adv-x="1069" 
d="M942 374q-4 -56 -15 -102q-27 -107 -98 -178q-108 -108 -291 -108q-188 0 -293 104q-89 93 -102 254h147q29 -227 248 -227q113 0 180 67q51 51 69 138q7 35 10 79q1 32 1 80q0 75 -8 131q-11 67 -35 113q-59 111 -202 111q-194 0 -242 -144h-133v766h737v-131h-604v-463
q91 101 262 101q160 0 252 -93q72 -72 100 -184q12 -46 17 -103q4 -45 4 -104q0 -62 -4 -107z" />
    <glyph glyph-name="six" unicode="6" horiz-adv-x="1069" 
d="M833 111q-112 -123 -294 -123q-186 0 -296 115t-110 305q0 143 92 327l359 723h151l-326 -655q68 31 154 31q169 0 275 -117q104 -116 104 -297q0 -189 -109 -309zM728 622q-70 87 -192 87q-256 0 -256 -295t256 -295q259 0 259 295q0 127 -67 208z" />
    <glyph glyph-name="seven" unicode="7" horiz-adv-x="1069" 
d="M458 0h-156l506 1327h-508v-229h-145v360h809v-131z" />
    <glyph glyph-name="eight" unicode="8" horiz-adv-x="1069" 
d="M840 102q-122 -114 -306 -114t-306 114q-124 117 -124 299q0 121 63 215q56 83 156 140q-190 109 -190 323q0 170 114 281q113 110 287 110t288 -110q113 -111 113 -281q0 -216 -188 -323q99 -57 155 -140q62 -94 62 -215q0 -182 -124 -299zM717 1265q-71 74 -183 74
t-183 -74t-71 -188q0 -115 71 -187q71 -73 183 -73t183 73q71 72 71 187q0 114 -71 188zM735 606q-81 82 -201 82t-201 -82q-82 -81 -82 -203q0 -121 82 -203q81 -81 201 -81t201 81q82 82 82 203q0 122 -82 203z" />
    <glyph glyph-name="nine" unicode="9" horiz-adv-x="1069" 
d="M843 723l-359 -723h-153l327 655q-67 -30 -155 -30q-169 0 -274 117q-103 115 -103 296q0 189 109 309q111 123 294 123q186 0 296 -115t110 -304q0 -144 -92 -328zM529 1339q-256 0 -256 -295q0 -127 65 -208q70 -86 191 -86q259 0 259 294q0 295 -259 295z" />
    <glyph glyph-name="colon" unicode=":" horiz-adv-x="608" 
d="M235 616v193h193v-193h-193zM235 0v193h193v-193h-193z" />
    <glyph glyph-name="semicolon" unicode=";" horiz-adv-x="608" 
d="M235 616v193h193v-193h-193zM239 -295v475h180v-313z" />
    <glyph glyph-name="less" unicode="&#x3c;" horiz-adv-x="671" 
d="M3 509l658 470v-201l-379 -269l379 -271v-199z" />
    <glyph glyph-name="equal" unicode="=" horiz-adv-x="1069" 
d="M106 655v138h856v-138h-856zM106 309v135h856v-135h-856z" />
    <glyph glyph-name="greater" unicode="&#x3e;" horiz-adv-x="671" 
d="M3 39v199l379 271l-379 269v201l658 -470z" />
    <glyph glyph-name="question" unicode="?" horiz-adv-x="1017" 
d="M897 967q-21 -51 -66 -117l-168 -242q-37 -55 -37 -119v-79h-147v82q0 101 63 192l166 240q35 51 48 82q20 44 20 92q0 103 -67 172t-169 69q-106 0 -173 -73q-65 -70 -65 -170h-147q0 157 110 265q110 109 275 109q163 0 272 -104q111 -106 111 -268q0 -67 -26 -131z
M464 0v172h176v-172h-176z" />
    <glyph glyph-name="at" unicode="@" horiz-adv-x="1460" 
d="M1171 0v113q-100 -127 -274 -127q-180 0 -279 125q-90 111 -90 376q0 264 84 375q94 127 283 127q170 0 274 -129v160q0 151 -80 233q-82 82 -227 82h-266q-142 0 -224 -82t-82 -233v-690q0 -162 117 -248l-100 -100q-160 117 -160 346v688q0 212 115 330
q111 114 315 114h303q201 0 316 -114q116 -117 116 -330v-1018zM1160 626q-10 72 -34 120q-59 116 -205 116t-204 -116q-25 -48 -35 -120q-9 -58 -9 -139q0 -80 9 -138q10 -72 35 -120q58 -116 204 -116t205 116q24 48 34 120q9 58 9 138q0 81 -9 139z" />
    <glyph glyph-name="A" unicode="A" horiz-adv-x="1251" 
d="M1060 0l-116 330h-637l-117 -330h-166l537 1458h131l534 -1458h-166zM628 1235l-274 -770h544z" />
    <glyph glyph-name="B" unicode="B" horiz-adv-x="1368" 
d="M1091 103q-115 -103 -314 -103h-567v1458h549q193 0 310 -103q120 -106 120 -286q0 -241 -215 -319q237 -88 237 -347q0 -193 -120 -300zM951 1258q-76 61 -204 61h-381v-506h381q128 0 204 62q82 67 82 192t-82 191zM763 674h-397v-535h397q293 0 293 269
q0 266 -293 266z" />
    <glyph glyph-name="C" unicode="C" horiz-adv-x="1304" 
d="M1171 422q-35 -204 -174 -320q-135 -114 -332 -114q-221 0 -373 151q-95 95 -120 231q-12 62 -15 156q-2 39 -2 95v217q0 55 2 94q3 95 15 157q25 135 120 230q152 151 373 151q428 0 506 -434h-160q-65 295 -346 295q-153 0 -252 -102q-67 -68 -86 -171
q-17 -89 -17 -329t17 -329q19 -103 86 -171q99 -102 252 -102q285 0 350 295h156z" />
    <glyph glyph-name="D" unicode="D" horiz-adv-x="1378" 
d="M1222 667q0 -46 -1 -81q-3 -94 -14 -165q-14 -88 -42 -155q-33 -77 -87 -131q-135 -135 -368 -135h-500v1458h500q233 0 368 -135q100 -100 129 -270q11 -65 14 -153q1 -33 1 -78v-155zM1065 879q-2 74 -9 128q-20 136 -86 205q-104 107 -287 107h-317v-1180h317
q183 0 287 107q66 68 86 222q7 59 9 139v272z" />
    <glyph glyph-name="E" unicode="E" horiz-adv-x="1228" 
d="M210 0v1458h905v-139h-749v-514h639v-139h-639v-527h749v-139h-905z" />
    <glyph glyph-name="F" unicode="F" horiz-adv-x="1187" 
d="M366 1319v-537h639v-139h-639v-643h-156v1458h905v-139h-749z" />
    <glyph glyph-name="G" unicode="G" horiz-adv-x="1331" 
d="M1179 532q0 -243 -125 -376q-156 -168 -389 -168q-221 0 -373 151q-95 95 -120 231q-12 62 -15 156q-2 39 -2 95v217q0 55 2 94q3 95 15 157q25 135 120 230q152 151 373 151q205 0 343 -122q134 -118 167 -314h-156q-66 297 -354 297q-151 0 -252 -104q-67 -68 -86 -170
q-17 -88 -17 -328t17 -329q19 -103 86 -171q99 -102 252 -102q173 0 276 125q82 99 82 264v111h-358v137h514v-232z" />
    <glyph glyph-name="H" unicode="H" horiz-adv-x="1425" 
d="M1058 0v666h-692v-666h-156v1458h156v-653h692v653h156v-1458h-156z" />
    <glyph glyph-name="I" unicode="I" horiz-adv-x="577" 
d="M210 0v1458h156v-1458h-156z" />
    <glyph glyph-name="J" unicode="J" horiz-adv-x="1026" 
d="M835 442q0 -208 -127 -332q-125 -122 -327 -122q-203 0 -334 131l104 104q48 -48 90 -68q57 -28 140 -28q299 0 299 336v995h155v-1016z" />
    <glyph glyph-name="K" unicode="K" horiz-adv-x="1331" 
d="M1117 0l-444 776l-307 -368v-408h-156v1458h156v-837l680 837h190l-459 -563l525 -895h-185z" />
    <glyph glyph-name="L" unicode="L" horiz-adv-x="1173" 
d="M210 0v1458h156v-1319h745v-139h-901z" />
    <glyph glyph-name="M" unicode="M" horiz-adv-x="1671" 
d="M1304 0v1108l-400 -879h-133l-405 879v-1108h-156v1458h156l475 -1034l463 1034h155v-1458h-155z" />
    <glyph glyph-name="N" unicode="N" horiz-adv-x="1499" 
d="M1140 0l-774 1169v-1169h-156v1458h147l775 -1165v1165h155v-1458h-147z" />
    <glyph glyph-name="O" unicode="O" horiz-adv-x="1331" 
d="M1174 621q0 -56 -2 -95q-3 -94 -15 -156q-25 -136 -120 -231q-151 -151 -372 -151t-373 151q-95 95 -120 231q-12 62 -15 156q-2 39 -2 95v217q0 55 2 94q3 95 15 157q25 135 120 230q152 151 373 151t372 -151q95 -95 120 -230q12 -62 15 -157q2 -39 2 -94v-217z
M1002 1057q-19 102 -85 170q-102 104 -252 104q-151 0 -252 -104q-67 -68 -86 -170q-17 -88 -17 -328t17 -328q19 -102 86 -170q101 -104 252 -104q150 0 252 104q66 68 85 170q17 88 17 328t-17 328z" />
    <glyph glyph-name="P" unicode="P" horiz-adv-x="1290" 
d="M1078 717q-124 -117 -325 -117h-387v-600h-156v1458h543q201 0 325 -116q125 -117 125 -312t-125 -313zM738 1319h-372v-580h372q310 0 310 291q0 289 -310 289z" />
    <glyph glyph-name="Q" unicode="Q" horiz-adv-x="1329" 
d="M1140 -72l-162 162q-133 -102 -313 -102q-221 0 -373 151q-95 95 -120 231q-12 62 -15 156q-2 39 -2 95v217q0 55 2 94q3 95 15 157q25 135 120 230q152 151 373 151t372 -151q95 -95 120 -230q12 -62 15 -157q2 -39 2 -94v-207q0 -51 -1 -87q-2 -88 -11 -146
q-19 -130 -88 -216l160 -159zM1002 1057q-19 102 -85 170q-102 104 -252 104q-151 0 -252 -104q-67 -68 -86 -170q-17 -88 -17 -328t17 -328q19 -102 86 -170q101 -104 252 -104q115 0 207 70l-185 184l94 94l179 -178q59 96 59 432q0 240 -17 328z" />
    <glyph glyph-name="R" unicode="R" horiz-adv-x="1343" 
d="M1048 0l-332 647h-350v-647h-156v1458h559q193 0 311 -108q121 -111 121 -297q0 -326 -317 -391l346 -662h-182zM755 1319h-389v-535h389q291 0 291 267q0 268 -291 268z" />
    <glyph glyph-name="S" unicode="S" horiz-adv-x="1204" 
d="M951 99q-136 -111 -365 -111q-307 0 -500 192l106 107q160 -160 398 -160q344 0 344 270q0 122 -70 183q-56 49 -190 69l-170 27q-173 28 -268 110q-111 99 -111 273q0 187 125 299q127 112 342 112q257 0 434 -159l-100 -101q-138 125 -340 125q-307 0 -307 -270
q0 -111 65 -168q68 -59 197 -80l159 -24q179 -27 267 -103q123 -104 123 -289q0 -190 -139 -302z" />
    <glyph glyph-name="T" unicode="T" horiz-adv-x="1122" 
d="M639 1319v-1319h-156v1319h-422v139h999v-139h-421z" />
    <glyph glyph-name="U" unicode="U" horiz-adv-x="1398" 
d="M1208 481q0 -217 -145 -356q-143 -137 -365 -137t-365 137q-143 139 -143 356v977h156v-964q0 -166 96 -267q96 -100 256 -100t257 100q97 101 97 267v964h156v-977z" />
    <glyph glyph-name="V" unicode="V" horiz-adv-x="1118" 
d="M622 0h-127l-479 1458h164l379 -1179l379 1179h163z" />
    <glyph glyph-name="W" unicode="W" horiz-adv-x="1748" 
d="M1343 0h-146l-323 1167l-324 -1167h-145l-373 1458h166l285 -1175l321 1175h139l322 -1175l285 1175h165z" />
    <glyph glyph-name="X" unicode="X" horiz-adv-x="1128" 
d="M917 0l-355 612l-356 -612h-176l446 748l-417 710h180l323 -575l324 575h180l-420 -710l451 -748h-180z" />
    <glyph glyph-name="Y" unicode="Y" horiz-adv-x="1052" 
d="M606 602v-602h-156v602l-434 856h168l344 -698l340 698h168z" />
    <glyph glyph-name="Z" unicode="Z" horiz-adv-x="1138" 
d="M116 0v147l729 1172h-700v139h876v-131l-735 -1188h735v-139h-905z" />
    <glyph glyph-name="bracketleft" unicode="[" horiz-adv-x="641" 
d="M188 -152v1762h362v-131h-215v-1499h215v-132h-362z" />
    <glyph glyph-name="backslash" unicode="\" horiz-adv-x="727" 
d="M582 -152l-582 1756h145l582 -1756h-145z" />
    <glyph glyph-name="bracketright" unicode="]" horiz-adv-x="641" 
d="M90 -152v127h221v1508h-221v127h362v-1762h-362z" />
    <glyph glyph-name="asciicircum" unicode="^" horiz-adv-x="1099" 
d="M800 846l-250 467l-251 -467h-152l336 624h135l334 -624h-152z" />
    <glyph glyph-name="underscore" unicode="_" horiz-adv-x="1099" 
d="M0 -338v105h1100v-105h-1100z" />
    <glyph glyph-name="grave" unicode="`" horiz-adv-x="538" 
d="M180 1286v172l178 162v-334h-178z" />
    <glyph glyph-name="a" unicode="a" 
d="M755 0v96q-108 -108 -291 -108q-195 0 -284 92q-76 76 -76 205q0 290 348 290h303v97q0 221 -258 221q-173 0 -254 -115l-100 92q115 150 356 150q404 0 404 -336v-684h-148zM755 465h-282q-226 0 -226 -178q0 -172 232 -172q77 0 121 10q61 15 104 57q51 48 51 174v109z
" />
    <glyph glyph-name="b" unicode="b" horiz-adv-x="1116" 
d="M962 269q-30 -123 -100 -193q-88 -88 -246 -88q-90 0 -153 26q-74 32 -132 107v-121h-147v1458h147v-567q58 73 132 104q62 25 153 25q158 0 246 -88q70 -70 100 -193q23 -96 23 -235t-23 -235zM829 647q-11 73 -35 123q-59 119 -209 119q-149 0 -209 -119
q-25 -50 -36 -123q-9 -60 -9 -143t9 -143q11 -74 36 -123q60 -119 209 -119q150 0 209 119q24 49 35 123q8 59 8 143q0 83 -8 143z" />
    <glyph glyph-name="c" unicode="c" horiz-adv-x="1003" 
d="M907 137q-138 -149 -332 -149q-198 0 -318 129q-128 138 -128 387t128 387q120 129 318 129q194 0 332 -150l-100 -94q-102 113 -232 113q-152 0 -233 -115q-66 -91 -66 -270t66 -271q81 -114 233 -114q128 0 232 114z" />
    <glyph glyph-name="d" unicode="d" horiz-adv-x="1116" 
d="M786 0v121q-57 -75 -132 -107q-64 -26 -154 -26q-158 0 -246 88q-70 70 -100 193q-23 96 -23 235t23 235q30 123 100 193q88 88 246 88q91 0 153 -25q74 -31 131 -104v567h148v-1458h-146zM776 647q-11 73 -35 123q-59 119 -209 119q-149 0 -209 -119q-25 -50 -36 -123
q-9 -60 -9 -143t9 -143q11 -74 36 -123q60 -119 209 -119q150 0 209 119q24 49 35 123q8 59 8 143q0 83 -8 143z" />
    <glyph glyph-name="e" unicode="e" horiz-adv-x="1085" 
d="M276 465q0 -348 297 -348q150 0 265 114l100 -88q-82 -81 -158 -116q-88 -39 -211 -39q-207 0 -320 124q-120 132 -120 392q0 516 414 516q194 0 304 -132q109 -130 109 -356v-67h-680zM809 575q-5 106 -31 168q-64 152 -235 152q-172 0 -236 -152q-25 -62 -31 -168h533z
" />
    <glyph glyph-name="f" unicode="f" horiz-adv-x="643" 
d="M364 889v-889h-147v889h-129v112h129v191q0 118 64 191q68 79 192 79h107v-127h-80q-136 0 -136 -147v-187h216v-112h-216z" />
    <glyph glyph-name="g" unicode="g" horiz-adv-x="1112" 
d="M928 -31q0 -191 -111 -309q-115 -123 -309 -123q-193 0 -342 135l96 95q62 -55 105 -75q55 -26 137 -26q139 0 211 90q65 82 65 219v158q-58 -74 -131 -105q-63 -26 -151 -26q-154 0 -244 90q-70 70 -99 186q-24 94 -24 234t24 234q29 116 99 186q88 88 246 88
q90 0 152 -26q73 -30 130 -105v119h146v-1039zM772 650q-10 72 -35 121q-58 118 -207 118q-148 0 -208 -118q-24 -49 -35 -121q-9 -58 -9 -138t9 -138q11 -72 35 -121q60 -118 208 -118q149 0 207 118q25 49 35 121q8 57 8 138t-8 138z" />
    <glyph glyph-name="h" unicode="h" horiz-adv-x="1150" 
d="M829 0v623q0 266 -246 266q-252 0 -252 -266v-623h-147v1458h147v-561q108 123 283 123q363 0 363 -373v-647h-148z" />
    <glyph glyph-name="i" unicode="i" horiz-adv-x="518" 
d="M176 1165v166h166v-166h-166zM184 0v1008h148v-1008h-148z" />
    <glyph glyph-name="j" unicode="j" horiz-adv-x="518" 
d="M177 1169v166h166v-166h-166zM332 -182q0 -271 -256 -271h-106v129h80q135 0 135 148v1177h147v-1183z" />
    <glyph glyph-name="k" unicode="k" horiz-adv-x="1097" 
d="M848 0l-320 516l-197 -225v-291h-147v1458h147v-975l455 525h184l-342 -385l402 -623h-182z" />
    <glyph glyph-name="l" unicode="l" horiz-adv-x="608" 
d="M436 0q-256 0 -256 268v1190h147v-1184q0 -147 136 -147h79v-127h-106z" />
    <glyph glyph-name="m" unicode="m" horiz-adv-x="1800" 
d="M1478 0v621q0 268 -247 268q-252 0 -252 -252v-637h-148v621q0 268 -248 268q-252 0 -252 -268v-621h-147v1008h147v-111q108 123 285 123q216 0 309 -168q119 168 332 168q163 0 260 -94q109 -106 109 -281v-645h-148z" />
    <glyph glyph-name="n" unicode="n" horiz-adv-x="1150" 
d="M829 0v621q0 268 -248 268q-250 0 -250 -268v-621h-147v1008h147v-111q108 123 283 123q164 0 258 -94q105 -102 105 -281v-645h-148z" />
    <glyph glyph-name="o" unicode="o" horiz-adv-x="1085" 
d="M931 284q-29 -109 -100 -182q-114 -114 -288 -114t-289 114q-71 73 -100 182q-23 87 -23 220q0 132 23 220q29 109 100 181q115 115 289 115t288 -115q71 -72 100 -181q23 -88 23 -220q0 -133 -23 -220zM805 590q-3 47 -10 84q-18 92 -68 141q-74 74 -184 74
q-109 0 -183 -74q-49 -50 -68 -141q-14 -64 -14 -170t14 -170q19 -92 68 -141q74 -74 183 -74q110 0 184 74q50 49 68 141q7 37 10 84q2 35 2 86t-2 86z" />
    <glyph glyph-name="p" unicode="p" horiz-adv-x="1116" 
d="M962 269q-30 -123 -100 -193q-88 -88 -246 -88q-90 0 -153 26q-74 31 -132 105v-570h-147v1459h147v-119q58 75 132 105q62 26 153 26q158 0 246 -88q70 -70 100 -193q23 -96 23 -235t-23 -235zM829 647q-11 73 -35 123q-59 119 -209 119q-149 0 -209 -119
q-25 -50 -36 -123q-9 -60 -9 -143t9 -143q11 -74 36 -123q60 -119 209 -119q150 0 209 119q24 49 35 123q8 59 8 143q0 83 -8 143z" />
    <glyph glyph-name="q" unicode="q" horiz-adv-x="1116" 
d="M784 -451v570q-58 -74 -131 -105q-63 -26 -153 -26q-158 0 -246 88q-70 70 -100 193q-23 96 -23 235t23 235q30 123 100 193q88 88 246 88q91 0 154 -26q75 -30 132 -105v119h146v-1459h-148zM776 647q-11 73 -35 123q-59 119 -209 119q-149 0 -209 -119
q-25 -50 -36 -123q-9 -60 -9 -143t9 -143q11 -74 36 -123q60 -119 209 -119q150 0 209 119q24 49 35 123q8 59 8 143q0 83 -8 143z" />
    <glyph glyph-name="r" unicode="r" horiz-adv-x="862" 
d="M747 815q-74 74 -174 74q-109 0 -176 -78q-66 -75 -66 -193v-618h-147v1008h147v-123q89 135 283 135q148 0 242 -94z" />
    <glyph glyph-name="s" unicode="s" horiz-adv-x="1015" 
d="M798 68q-111 -80 -296 -80q-263 0 -414 145l98 98q111 -116 314 -116q268 0 268 178q0 133 -168 147l-166 15q-301 25 -301 270q0 136 105 217q101 78 266 78q230 0 362 -109l-96 -96q-104 80 -268 80q-226 0 -226 -166q0 -133 177 -147l161 -15q143 -13 215 -71
q82 -67 82 -201q0 -144 -113 -227z" />
    <glyph glyph-name="t" unicode="t" horiz-adv-x="679" 
d="M466 0q-124 0 -194 79q-64 73 -64 191v619h-127v112h127v316h147v-316h215v-112h-215v-615q0 -147 138 -147h77v-127h-104z" />
    <glyph glyph-name="u" unicode="u" horiz-adv-x="1150" 
d="M821 0v113q-109 -125 -285 -125q-165 0 -260 94q-102 99 -102 283v643h147v-621q0 -268 246 -268q252 0 252 268v621h148v-1008h-146z" />
    <glyph glyph-name="v" unicode="v" horiz-adv-x="915" 
d="M522 0h-131l-369 1008h160l274 -809l277 809h159z" />
    <glyph glyph-name="w" unicode="w" horiz-adv-x="1482" 
d="M1142 0h-137l-264 782l-262 -782h-138l-319 1008h160l231 -809l264 809h127l267 -809l229 809h160z" />
    <glyph glyph-name="x" unicode="x" horiz-adv-x="978" 
d="M733 0l-242 391l-246 -391h-178l342 514l-328 494h179l231 -373l227 373h178l-327 -494l342 -514h-178z" />
    <glyph glyph-name="y" unicode="y" horiz-adv-x="915" 
d="M434 -244q-30 -79 -72 -118q-72 -70 -197 -70h-63v131h45q121 0 166 125l71 196l-362 988h160l276 -809l275 809h159z" />
    <glyph glyph-name="z" unicode="z" horiz-adv-x="940" 
d="M102 0v127l561 750h-530v131h700v-125l-563 -752h563v-131h-731z" />
    <glyph glyph-name="braceleft" unicode="{" horiz-adv-x="724" 
d="M549 -152q-146 0 -207 62q-62 61 -62 203v391q0 86 -37 123q-36 37 -92 37h-53v131h53q56 0 92 36q37 37 37 123v392q0 141 62 202q61 62 207 62h75v-131h-47q-94 0 -121 -27q-28 -29 -28 -133v-385q0 -144 -129 -205q129 -61 129 -205v-385q0 -104 28 -133
q27 -26 121 -26h47v-132h-75z" />
    <glyph glyph-name="bar" unicode="|" horiz-adv-x="667" 
d="M260 -306v2212h147v-2212h-147z" />
    <glyph glyph-name="braceright" unicode="}" horiz-adv-x="724" 
d="M573 664q-55 0 -92 -37t-37 -123v-391q0 -142 -61 -203q-62 -62 -207 -62h-78v132h49q92 0 119 26q31 31 31 133v385q0 144 129 205q-129 61 -129 205v385q0 102 -31 133q-27 27 -119 27h-49v131h78q145 0 207 -62q61 -61 61 -202v-392q0 -86 37 -123q37 -36 92 -36h51
v-131h-51z" />
    <glyph glyph-name="asciitilde" unicode="~" horiz-adv-x="1103" 
d="M1003 569q-139 -139 -264 -139q-49 0 -106 19q-39 12 -111 45l-81 34q-42 15 -79 15q-80 0 -172 -92l-90 92q139 139 264 139q49 0 105 -19q37 -12 110 -45l81 -34q42 -15 79 -15q80 0 172 93z" />
    <glyph glyph-name="exclamdown" unicode="&#xa1;" horiz-adv-x="647" 
d="M202 836v172h176v-172h-176zM206 -451l21 1049h127l22 -1049h-170z" />
    <glyph glyph-name="cent" unicode="&#xa2;" horiz-adv-x="1019" 
d="M917 387q-128 -140 -296 -151v-236h-121v240q-371 54 -371 510t371 510v198h121v-194q168 -12 296 -152l-100 -94q-93 104 -205 112v-761q112 8 205 112zM508 1126q-101 -18 -164 -106q-68 -94 -68 -270q0 -177 68 -271q63 -88 164 -106v753z" />
    <glyph glyph-name="sterling" unicode="&#xa3;" horiz-adv-x="1122" 
d="M225 0v676h-129v110h129v230q0 208 129 332q125 122 328 122q202 0 334 -131l-107 -104q-48 48 -88 68q-57 28 -139 28q-299 0 -299 -336v-209h299v-110h-299v-537h633v-139h-791z" />
    <glyph glyph-name="currency" unicode="&#xa4;" horiz-adv-x="378" 
d="M-89 0h-123l682 1458h123z" />
    <glyph glyph-name="yen" unicode="&#xa5;" horiz-adv-x="1052" 
d="M714 821h205v-110h-260l-53 -109v-106h313v-113h-313v-383h-158v383h-315v113h315v106l-53 109h-262v110h205l-322 637h168l344 -698l342 698h166z" />
    <glyph glyph-name="florin" unicode="&#x192;" horiz-adv-x="825" 
d="M661 1335q-136 0 -162 -147l-69 -402h215v-110h-236l-198 -1127h-148l199 1127h-201v110h221l70 406q21 118 98 191q83 79 207 79h106v-127h-102z" />
    <glyph glyph-name="brokenbar" unicode="&#xa6;" horiz-adv-x="686" 
d="M260 893v717h147v-717h-147zM260 -152v717h147v-717h-147z" />
    <glyph glyph-name="section" unicode="&#xa7;" horiz-adv-x="1140" 
d="M897 309q-57 -80 -148 -125q199 -73 199 -295q0 -157 -109 -256q-107 -96 -268 -96q-160 0 -265 83q-113 89 -122 247h150q18 -195 237 -195q228 0 228 215q0 158 -181 209l-159 45q-281 80 -281 375q0 118 66 211q57 81 149 125q-190 87 -190 283q0 148 103 242
q103 93 265 93t263 -86q104 -88 110 -235h-148q-14 190 -225 190q-221 0 -221 -202q0 -149 172 -197l160 -45q280 -81 280 -375q0 -117 -65 -211zM747 707q-73 73 -176 73q-109 0 -176 -73q-67 -74 -67 -189q0 -114 67 -188t176 -74t176 74q66 72 66 188q0 123 -66 189z" />
    <glyph glyph-name="dieresis" unicode="&#xa8;" horiz-adv-x="1024" 
d="M655 1233v182h148v-182h-148zM221 1233v182h147v-182h-147z" />
    <glyph glyph-name="guillemotleft" unicode="&#xab;" horiz-adv-x="1134" 
d="M544 549l430 430v-184l-248 -246l248 -248v-182zM81 549l430 430v-184l-246 -246l246 -248v-182z" />
    <glyph glyph-name="degree" unicode="&#xb0;" horiz-adv-x="948" 
d="M713 903q-98 -98 -238 -98t-239 98t-99 238q0 139 99 238q99 98 239 98t238 -98t98 -238t-98 -238zM625 1295q-62 63 -152 63q-91 0 -151 -63q-60 -62 -60 -154t61 -155q61 -62 152 -62q90 0 151 62q60 62 60 155q0 92 -61 154z" />
    <glyph glyph-name="plusminus" unicode="&#xb1;" horiz-adv-x="1069" 
d="M604 592v-363h-138v363h-360v137h360v358h138v-358h358v-137h-358zM106 0v137h856v-137h-856z" />
    <glyph glyph-name="uni00B9" unicode="&#xb9;" horiz-adv-x="534" 
d="M258 584v743l-170 -149v135l170 145h117v-874h-117z" />
    <glyph glyph-name="uni00B2" unicode="&#xb2;" horiz-adv-x="700" 
d="M98 584v106l338 414q47 59 47 119q0 137 -133 137t-133 -137h-119q0 243 252 243t252 -243q0 -90 -80 -189l-283 -344h363v-106h-504z" />
    <glyph glyph-name="uni00B3" unicode="&#xb3;" horiz-adv-x="729" 
d="M553 638q-72 -65 -187 -65q-112 0 -184 59q-80 66 -84 185h119q6 -137 149 -137q148 0 148 149q0 150 -154 150h-18v102h18q139 0 139 140q0 139 -135 139q-127 0 -137 -129h-117q13 235 254 235q252 0 252 -243q0 -137 -110 -189q124 -52 124 -205q0 -121 -77 -191z" />
    <glyph glyph-name="copyright" unicode="&#xa9;" horiz-adv-x="1804" 
d="M1425 205q-217 -217 -525 -217q-307 0 -524 217t-217 524t217 524t524 217q308 0 525 -217t217 -524t-217 -524zM1341 1174q-183 186 -441 186q-257 0 -439 -186q-181 -185 -181 -445t181 -445q182 -186 439 -186q258 0 441 186q182 185 182 445t-182 445zM1179 420
q-119 -107 -268 -107q-174 0 -272 118q-93 113 -93 298q0 186 93 299q98 119 272 119q144 0 268 -109l-74 -73q-91 79 -194 79q-132 0 -195 -93q-55 -80 -55 -222q0 -141 55 -221q63 -92 195 -92q106 0 194 78z" />
    <glyph glyph-name="registered" unicode="&#xae;" horiz-adv-x="1804" 
d="M994 636q-143 -143 -346 -143t-346 143t-143 345q0 203 143 346t346 143t346 -143t143 -346q0 -202 -143 -345zM939 1276q-121 123 -291 123t-290 -123q-121 -123 -121 -295t121 -294q120 -123 290 -123t291 123q121 122 121 294t-121 295zM767 714l-123 219h-81v-219
h-74v536h182q70 0 119 -46q50 -47 50 -115q0 -112 -115 -147l128 -228h-86zM663 1184h-100v-188h100q101 0 101 93q0 95 -101 95z" />
    <glyph glyph-name="acute" unicode="&#xb4;" horiz-adv-x="1024" 
d="M546 1217h-135l180 313h176z" />
    <glyph glyph-name="ordmasculine" unicode="&#xba;" horiz-adv-x="931" 
d="M774 880q-23 -86 -80 -145q-90 -90 -229 -90q-140 0 -230 90q-57 59 -80 145q-18 69 -18 175q0 105 18 174q24 87 80 145q92 92 230 92q137 0 229 -92q57 -58 80 -145q18 -69 18 -174q0 -106 -18 -175zM661 1188q-14 72 -53 110q-57 58 -143 58t-144 -58
q-38 -38 -52 -110q-9 -48 -9 -133t9 -133q14 -70 52 -109q60 -59 144 -59t143 59q39 39 53 109q11 50 11 133t-11 133z" />
    <glyph glyph-name="guillemotright" unicode="&#xbb;" horiz-adv-x="1134" 
d="M622 119v182l246 248l-246 246v184l430 -430zM159 119v182l248 248l-248 246v184l430 -430z" />
    <glyph glyph-name="guilsinglleft" unicode="&#x2039;" horiz-adv-x="671" 
d="M81 549l430 430v-184l-246 -246l246 -248v-182z" />
    <glyph glyph-name="guilsinglright" unicode="&#x203a;" horiz-adv-x="671" 
d="M159 119v182l248 248l-248 246v184l430 -430z" />
    <glyph glyph-name="bullet" unicode="&#x2022;" horiz-adv-x="1089" 
d="M710 478q-77 -77 -186 -77t-186 77t-77 186t77 186t186 77t186 -77t77 -186t-77 -186z" />
    <glyph glyph-name="onequarter" unicode="&#xbc;" horiz-adv-x="1591" 
d="M1413 131v-131h-115v131h-352v109l309 634h127l-307 -634h223v215h115v-215h96v-109h-96zM477 0h-123l682 1458h123zM258 584v743l-170 -149v135l170 145h117v-874h-117z" />
    <glyph glyph-name="onehalf" unicode="&#xbd;" horiz-adv-x="1617" 
d="M1016 0v106l338 414q47 59 47 119q0 137 -133 137t-133 -137h-119q0 244 252 244t252 -244q0 -90 -80 -188l-281 -345h361v-106h-504zM453 0h-123l682 1458h123zM258 584v743l-170 -149v135l170 145h117v-874h-117z" />
    <glyph glyph-name="threequarters" unicode="&#xbe;" horiz-adv-x="1683" 
d="M1505 131v-131h-115v131h-352v109l309 634h127l-309 -634h225v215h115v-215h96v-109h-96zM583 0h-123l685 1458h122zM553 638q-72 -65 -187 -65q-112 0 -184 59q-80 66 -84 185h119q6 -137 149 -137q148 0 148 149q0 150 -154 150h-18v102h18q139 0 139 140
q0 139 -135 139q-127 0 -137 -129h-117q13 235 254 235q252 0 252 -243q0 -137 -110 -189q124 -52 124 -205q0 -121 -77 -191z" />
    <glyph glyph-name="Agrave" unicode="&#xc0;" horiz-adv-x="1251" 
d="M1060 0l-116 330h-637l-117 -330h-166l537 1458h131l534 -1458h-166zM628 1235l-274 -770h544zM621 1546l-264 213l89 77l230 -243z" />
    <glyph glyph-name="Aacute" unicode="&#xc1;" horiz-adv-x="1251" 
d="M1060 0l-116 330h-637l-117 -330h-166l537 1458h131l534 -1458h-166zM628 1235l-274 -770h544zM583 1614l305 268l71 -106l-327 -215z" />
    <glyph glyph-name="uni1EA2" unicode="&#x1ea2;" horiz-adv-x="1251" 
d="M1060 0l-116 330h-637l-117 -330h-166l537 1458h131l534 -1458h-166zM628 1235l-274 -770h544zM799 1763q-21 -48 -67 -84t-49 -90h-81v25q6 62 62 101.5t62 90.5q0 69 -70 69q-34 -3 -52 -28.5t-17 -73.5h-81q1 82 37 126.5t114 48.5q71 0 110 -36.5t41 -102.5
q0 -23 -9 -46z" />
    <glyph glyph-name="Atilde" unicode="&#xc3;" horiz-adv-x="1251" 
d="M1060 0l-116 330h-637l-117 -330h-166l537 1458h131l534 -1458h-166zM628 1235l-274 -770h544zM887 1666q-34 -53 -75 -77.5t-86.5 -25.5t-107.5 33.5t-108 27t-83 -63.5l-55 43q47 65 84.5 86.5t72.5 23.5q51 5 115 -33q76 -39 120 -23.5t72 58.5z" />
    <glyph glyph-name="uni1EA0" unicode="&#x1ea0;" horiz-adv-x="1251" 
d="M1060 0l-116 330h-637l-117 -330h-166l537 1458h131l534 -1458h-166zM628 1235l-274 -770h544zM542 -313v166h166v-166h-166z" />
    <glyph glyph-name="Acircumflex" unicode="&#xc2;" horiz-adv-x="1251" 
d="M1060 0l-116 330h-637l-117 -330h-166l537 1458h131l534 -1458h-166zM627 1235l-274 -770h544zM823 1497l-200 146l-201 -146l-38 61l240 204l242 -202z" />
    <glyph glyph-name="uni1EA6" unicode="&#x1ea6;" horiz-adv-x="1251" 
d="M1060 0l-116 330h-637l-117 -330h-166l537 1458h131l534 -1458h-166zM627 1235l-274 -770h544zM823 1498l-200 146l-201 -146l-38 61l240 204l242 -202zM817 1705l-264 213l89 77l230 -243z" />
    <glyph glyph-name="uni1EA4" unicode="&#x1ea4;" horiz-adv-x="1251" 
d="M1060 0l-116 330h-637l-117 -330h-166l537 1458h131l534 -1458h-166zM627 1235l-274 -770h544zM823 1493l-200 146l-201 -146l-38 61l240 204l242 -202zM769 1747l305 268l71 -106l-327 -215z" />
    <glyph glyph-name="uni1EA8" unicode="&#x1ea8;" horiz-adv-x="1251" 
d="M1060 0l-116 330h-637l-117 -330h-166l537 1458h131l534 -1458h-166zM627 1235l-274 -770h544zM1003 1985q-22 -51 -70 -88.5t-51 -93.5h-85v26q7 64 65.5 105.5t63.5 95.5q0 72 -73 72q-35 -3 -53.5 -29.5t-17.5 -77.5h-85q1 86 39 132.5t119 50.5q73 0 114 -38t44 -108
q0 -23 -10 -47zM844 1535l-229 168l-230 -168l-43 70l274 233l278 -231z" />
    <glyph glyph-name="uni1EAA" unicode="&#x1eaa;" horiz-adv-x="1251" 
d="M1060 0l-116 330h-637l-117 -330h-166l537 1458h131l534 -1458h-166zM627 1235l-274 -770h544zM887 1897q-34 -53 -75 -77.5t-86.5 -25.5t-107.5 33.5t-108 27t-83 -63.5l-55 43q47 65 84.5 86.5t72.5 23.5q51 5 115 -33q76 -39 120 -23.5t72 58.5zM823 1503l-200 146
l-201 -146l-38 61l240 204l242 -202z" />
    <glyph glyph-name="uni1EAC" unicode="&#x1eac;" horiz-adv-x="1251" 
d="M1060 0l-116 330h-637l-117 -330h-166l537 1458h131l534 -1458h-166zM627 1235l-274 -770h544zM543 -313v166h166v-166h-166zM823 1492l-200 146l-201 -146l-38 61l240 204l242 -202z" />
    <glyph glyph-name="Abreve" unicode="&#x102;" horiz-adv-x="1251" 
d="M1060 0l-116 330h-637l-117 -330h-166l537 1458h131l534 -1458h-166zM628 1235l-274 -770h544zM861 1755q-29 -196 -233 -196q-210 0 -239 196h86q26 -105 153 -105q126 0 152 105h81z" />
    <glyph glyph-name="uni1EB0" unicode="&#x1eb0;" horiz-adv-x="1251" 
d="M1060 0l-116 330h-637l-117 -330h-166l537 1458h131l534 -1458h-166zM628 1235l-274 -770h544zM861 1755q-29 -196 -233 -196q-210 0 -239 196h86q26 -105 153 -105q126 0 152 105h81zM610 1791l-264 213l89 77l230 -243z" />
    <glyph glyph-name="uni1EAE" unicode="&#x1eae;" horiz-adv-x="1251" 
d="M1060 0l-116 330h-637l-117 -330h-166l537 1458h131l534 -1458h-166zM628 1235l-274 -770h544zM861 1755q-29 -196 -233 -196q-210 0 -239 196h86q26 -105 153 -105q126 0 152 105h81zM588 1800l289 252l71 -106l-311 -199z" />
    <glyph glyph-name="uni1EB2" unicode="&#x1eb2;" horiz-adv-x="1251" 
d="M1060 0l-116 330h-637l-117 -330h-166l537 1458h131l534 -1458h-166zM628 1235l-274 -770h544zM868 1761q-29 -196 -233 -196q-210 0 -239 196h86q26 -105 153 -105q126 0 152 105h81zM789 1971q-20 -48 -66 -84t-49 -90h-81v25q6 62 62 101.5t62 90.5q0 69 -71 69
q-33 -3 -51 -28.5t-17 -73.5h-81q1 82 37 126.5t114 48.5q70 0 109.5 -36.5t41.5 -102.5q0 -23 -10 -46z" />
    <glyph glyph-name="uni1EB4" unicode="&#x1eb4;" horiz-adv-x="1251" 
d="M1060 0l-117 330h-637l-117 -330h-165l536 1458h131l535 -1458h-166zM628 1235l-275 -770h545zM860 1755q-28 -196 -232 -196q-210 0 -239 196h86q26 -105 153 -105q125 0 151 105h81zM886 1948q-34 -53 -75 -77.5t-86.5 -25.5t-107.5 33.5t-108 27t-83 -63.5l-55 43
q47 65 84.5 86.5t72.5 23.5q51 5 115 -33q76 -39 120 -23.5t72 58.5z" />
    <glyph glyph-name="uni1EB6" unicode="&#x1eb6;" horiz-adv-x="1251" 
d="M1060 0l-116 330h-637l-117 -330h-166l537 1458h131l534 -1458h-166zM628 1235l-274 -770h544zM861 1755q-29 -196 -233 -196q-210 0 -239 196h86q26 -105 153 -105q126 0 152 105h81zM542 -313v166h166v-166h-166z" />
    <glyph glyph-name="Egrave" unicode="&#xc8;" horiz-adv-x="1228" 
d="M210 0v1458h905v-139h-749v-514h639v-139h-639v-527h749v-139h-905zM666 1546l-264 213l89 77l230 -243z" />
    <glyph glyph-name="Eacute" unicode="&#xc9;" horiz-adv-x="1228" 
d="M210 0v1458h905v-139h-749v-514h639v-139h-639v-527h749v-139h-905zM588 1625l289 252l71 -106l-311 -199z" />
    <glyph glyph-name="uni1EBA" unicode="&#x1eba;" horiz-adv-x="1228" 
d="M210 0v1458h905v-139h-749v-514h639v-139h-639v-527h749v-139h-905zM817 1750q-23 -53 -73.5 -92.5t-52.5 -98.5h-89v27q6 68 67.5 111.5t68.5 99.5q0 76 -77 76q-38 -3 -57 -31t-18 -81h-89q1 90 40.5 139t124.5 53q78 0 121 -40t45 -113q0 -25 -11 -50z" />
    <glyph glyph-name="uni1EBC" unicode="&#x1ebc;" horiz-adv-x="1228" 
d="M210 0v1458h905v-139h-749v-514h639v-139h-639v-527h749v-139h-905zM886 1666q-34 -53 -75 -77.5t-86.5 -25.5t-107.5 33.5t-108 27t-83 -63.5l-55 43q47 65 84.5 86.5t72.5 23.5q51 5 115 -33q76 -39 120 -23.5t72 58.5z" />
    <glyph glyph-name="uni1EB8" unicode="&#x1eb8;" horiz-adv-x="1228" 
d="M210 0v1458h905v-139h-749v-514h639v-139h-639v-527h749v-139h-905zM580 -313v166h166v-166h-166z" />
    <glyph glyph-name="Ecircumflex" unicode="&#xca;" horiz-adv-x="1228" 
d="M210 0v1458h905v-139h-749v-514h639v-139h-639v-527h749v-139h-905zM891 1535l-229 168l-230 -168l-43 70l274 233l278 -231z" />
    <glyph glyph-name="uni1EC0" unicode="&#x1ec0;" horiz-adv-x="1228" 
d="M210 0v1458h905v-139h-749v-514h639v-139h-639v-527h749v-139h-905zM891 1820l-264 213l89 77l230 -243zM891 1556l-229 168l-230 -168l-43 70l274 233l278 -231z" />
    <glyph glyph-name="uni1EBE" unicode="&#x1ebe;" horiz-adv-x="1228" 
d="M210 0v1458h905v-139h-749v-514h639v-139h-639v-527h749v-139h-905zM835 1840l230 243l89 -77l-264 -213zM891 1556l-229 168l-230 -168l-43 70l274 233l278 -231z" />
    <glyph glyph-name="uni1EC2" unicode="&#x1ec2;" horiz-adv-x="1228" 
d="M210 0v1458h905v-139h-749v-514h639v-139h-639v-527h749v-139h-905zM1050 1985q-22 -51 -70 -88.5t-51 -93.5h-85v26q7 64 65.5 105.5t63.5 95.5q0 72 -73 72q-35 -3 -53.5 -29.5t-17.5 -77.5h-85q1 86 39 132.5t119 50.5q73 0 114 -38t44 -108q0 -23 -10 -47zM891 1535
l-229 168l-230 -168l-43 70l274 233l278 -231z" />
    <glyph glyph-name="uni1EC4" unicode="&#x1ec4;" horiz-adv-x="1228" 
d="M210 0v1458h905v-139h-749v-514h639v-139h-639v-527h749v-139h-905zM949 1993q-34 -53 -75 -77.5t-86.5 -25.5t-107.5 33.5t-108 27t-83 -63.5l-55 43q47 65 84.5 86.5t72.5 23.5q51 5 115 -33q76 -39 120 -23.5t72 58.5zM891 1535l-229 168l-230 -168l-43 70l274 233
l278 -231z" />
    <glyph glyph-name="uni1EC6" unicode="&#x1ec6;" horiz-adv-x="1228" 
d="M210 0v1458h905v-139h-749v-514h639v-139h-639v-527h749v-139h-905zM580 -313v166h166v-166h-166zM891 1535l-229 168l-230 -168l-43 70l274 233l278 -231z" />
    <glyph glyph-name="Igrave" unicode="&#xcc;" horiz-adv-x="577" 
d="M210 0v1458h156v-1458h-156zM311 1561l-264 213l88 77l231 -243z" />
    <glyph glyph-name="Iacute" unicode="&#xcd;" horiz-adv-x="577" 
d="M210 0v1458h156v-1458h-156zM247 1603l289 252l71 -106l-311 -199z" />
    <glyph glyph-name="uni1EC8" unicode="&#x1ec8;" horiz-adv-x="577" 
d="M210 0v1458h155v-1458h-155zM468 1750q-23 -53 -73.5 -92.5t-52.5 -98.5h-89v27q6 68 67.5 111.5t68.5 99.5q0 76 -77 76q-38 -3 -57 -31t-18 -81h-89q0 90 40 139t125 53q78 0 120.5 -40t45.5 -113q0 -25 -11 -50z" />
    <glyph glyph-name="Itilde" unicode="&#x128;" horiz-adv-x="577" 
d="M210 0v1458h156v-1458h-156zM554 1666q-34 -53 -75 -77.5t-86.5 -25.5t-107.5 33.5t-108 27t-83 -63.5l-55 43q47 65 84.5 86.5t72.5 23.5q51 5 115 -33q76 -39 120 -23.5t72 58.5z" />
    <glyph glyph-name="uni1ECA" unicode="&#x1eca;" horiz-adv-x="577" 
d="M215 0v1458h156v-1458h-156zM210 -313v166h166v-166h-166z" />
    <glyph glyph-name="Ograve" unicode="&#xd2;" horiz-adv-x="1331" 
d="M1174 621q0 -56 -2 -95q-3 -94 -15 -156q-25 -136 -120 -231q-151 -151 -372 -151t-373 151q-95 95 -120 231q-12 62 -15 156q-2 39 -2 95v217q0 55 2 94q3 95 15 157q25 135 120 230q152 151 373 151t372 -151q95 -95 120 -230q12 -62 15 -157q2 -39 2 -94v-217z
M1002 1057q-19 102 -85 170q-102 104 -252 104q-151 0 -252 -104q-67 -68 -86 -170q-17 -88 -17 -328t17 -328q19 -102 86 -170q101 -104 252 -104q150 0 252 104q66 68 85 170q17 88 17 328t-17 328zM636 1572l-264 213l89 77l230 -243z" />
    <glyph glyph-name="Oacute" unicode="&#xd3;" horiz-adv-x="1331" 
d="M1174 621q0 -56 -2 -95q-3 -94 -15 -156q-25 -136 -120 -231q-151 -151 -372 -151t-373 151q-95 95 -120 231q-12 62 -15 156q-2 39 -2 95v217q0 55 2 94q3 95 15 157q25 135 120 230q152 151 373 151t372 -151q95 -95 120 -230q12 -62 15 -157q2 -39 2 -94v-217z
M1002 1057q-19 102 -85 170q-102 104 -252 104q-151 0 -252 -104q-67 -68 -86 -170q-17 -88 -17 -328t17 -328q19 -102 86 -170q101 -104 252 -104q150 0 252 104q66 68 85 170q17 88 17 328t-17 328zM615 1646l289 252l71 -106l-311 -199z" />
    <glyph glyph-name="uni1ECE" unicode="&#x1ece;" horiz-adv-x="1331" 
d="M1171 621q0 -56 -2 -95q-3 -94 -15 -156q-25 -136 -120 -231q-151 -151 -372 -151t-373 151q-95 95 -120 231q-12 62 -15 156q-2 39 -2 95v217q0 55 2 94q3 95 15 157q25 135 120 230q152 151 373 151t372 -151q95 -95 120 -230q12 -62 15 -157q2 -39 2 -94v-217z
M1003 1057q-20 102 -86 170q-101 104 -252 104t-252 -104q-67 -68 -86 -170q-16 -88 -16 -328t16 -328q19 -102 86 -170q101 -104 252 -104t252 104q66 68 86 170q16 88 16 328t-16 328zM816 1750q-22 -53 -72.5 -92.5t-53.5 -98.5h-89v27q7 68 68 111.5t68 99.5
q0 76 -77 76q-38 -3 -57 -31t-18 -81h-89q1 90 40.5 139t124.5 53q78 0 121 -40t45 -113q0 -25 -11 -50z" />
    <glyph glyph-name="Otilde" unicode="&#xd5;" horiz-adv-x="1331" 
d="M1174 621q0 -56 -2 -95q-3 -94 -15 -156q-25 -136 -120 -231q-151 -151 -372 -151t-373 151q-95 95 -120 231q-12 62 -15 156q-2 39 -2 95v217q0 55 2 94q3 95 15 157q25 135 120 230q152 151 373 151t372 -151q95 -95 120 -230q12 -62 15 -157q2 -39 2 -94v-217z
M1002 1057q-19 102 -85 170q-102 104 -252 104q-151 0 -252 -104q-67 -68 -86 -170q-17 -88 -17 -328t17 -328q19 -102 86 -170q101 -104 252 -104q150 0 252 104q66 68 85 170q17 88 17 328t-17 328zM922 1666q-34 -53 -75 -77.5t-86.5 -25.5t-107.5 33.5t-108 27
t-83 -63.5l-55 43q47 65 84.5 86.5t72.5 23.5q51 5 116 -33q76 -39 119.5 -23.5t71.5 58.5z" />
    <glyph glyph-name="uni1ECC" unicode="&#x1ecc;" horiz-adv-x="1331" 
d="M1174 621q0 -56 -2 -95q-3 -94 -15 -156q-25 -136 -120 -231q-151 -151 -372 -151t-373 151q-95 95 -120 231q-12 62 -15 156q-2 39 -2 95v217q0 55 2 94q3 95 15 157q25 135 120 230q152 151 373 151t372 -151q95 -95 120 -230q12 -62 15 -157q2 -39 2 -94v-217z
M1002 1057q-19 102 -85 170q-102 104 -252 104q-151 0 -252 -104q-67 -68 -86 -170q-17 -88 -17 -328t17 -328q19 -102 86 -170q101 -104 252 -104q150 0 252 104q66 68 85 170q17 88 17 328t-17 328zM582 -313v166h166v-166h-166z" />
    <glyph glyph-name="Ocircumflex" unicode="&#xd4;" horiz-adv-x="1331" 
d="M1174 621q0 -56 -2 -95q-3 -94 -15 -156q-25 -136 -120 -231q-151 -151 -372 -151t-373 151q-95 95 -120 231q-12 62 -15 156q-2 39 -2 95v217q0 55 2 94q3 95 15 157q25 135 120 230q152 151 373 151t372 -151q95 -95 120 -230q12 -62 15 -157q2 -39 2 -94v-217z
M1002 1057q-19 102 -85 170q-102 104 -252 104q-151 0 -252 -104q-67 -68 -86 -170q-17 -88 -17 -328t17 -328q19 -102 86 -170q101 -104 252 -104q150 0 252 104q66 68 85 170q17 88 17 328t-17 328zM891 1492l-229 168l-230 -168l-43 70l274 233l278 -231z" />
    <glyph glyph-name="uni1ED2" unicode="&#x1ed2;" horiz-adv-x="1331" 
d="M1174 621q0 -56 -2 -95q-3 -94 -15 -156q-25 -136 -120 -231q-151 -151 -372 -151t-373 151q-95 95 -120 231q-12 62 -15 156q-2 39 -2 95v217q0 55 2 94q3 95 15 157q25 135 120 230q152 151 373 151t372 -151q95 -95 120 -230q12 -62 15 -157q2 -39 2 -94v-217z
M1002 1057q-19 102 -85 170q-102 104 -252 104q-151 0 -252 -104q-67 -68 -86 -170q-17 -88 -17 -328t17 -328q19 -102 86 -170q101 -104 252 -104q150 0 252 104q66 68 85 170q17 88 17 328t-17 328zM849 1748l-264 213l89 77l230 -243zM891 1492l-229 168l-230 -168
l-43 70l274 233l278 -231z" />
    <glyph glyph-name="uni1ED0" unicode="&#x1ed0;" horiz-adv-x="1331" 
d="M1174 621q0 -56 -2 -95q-3 -94 -15 -156q-25 -136 -120 -231q-151 -151 -372 -151t-373 151q-95 95 -120 231q-12 62 -15 156q-2 39 -2 95v217q0 55 2 94q3 95 15 157q25 135 120 230q152 151 373 151t372 -151q95 -95 120 -230q12 -62 15 -157q2 -39 2 -94v-217z
M1002 1057q-19 102 -85 170q-102 104 -252 104q-151 0 -252 -104q-67 -68 -86 -170q-17 -88 -17 -328t17 -328q19 -102 86 -170q101 -104 252 -104q150 0 252 104q66 68 85 170q17 88 17 328t-17 328zM891 1492l-229 168l-230 -168l-43 70l274 233l278 -231zM849 1768
l289 252l71 -106l-311 -199z" />
    <glyph glyph-name="uni1ED4" unicode="&#x1ed4;" horiz-adv-x="1331" 
d="M1174 621q0 -56 -2 -95q-3 -94 -15 -156q-25 -136 -120 -231q-151 -151 -372 -151t-373 151q-95 95 -120 231q-12 62 -15 156q-2 39 -2 95v217q0 55 2 94q3 95 15 157q25 135 120 230q152 151 373 151t372 -151q95 -95 120 -230q12 -62 15 -157q2 -39 2 -94v-217z
M1002 1057q-19 102 -85 170q-102 104 -252 104q-151 0 -252 -104q-67 -68 -86 -170q-17 -88 -17 -328t17 -328q19 -102 86 -170q101 -104 252 -104q150 0 252 104q66 68 85 170q17 88 17 328t-17 328zM1039 1973q-23 -53 -73.5 -92.5t-53.5 -98.5h-89v27q7 68 68.5 111.5
t67.5 99.5q0 76 -77 76q-37 -3 -56.5 -31t-17.5 -81h-90q1 90 41 139t125 53q77 0 120 -40t46 -113q0 -25 -11 -50zM891 1492l-229 168l-230 -168l-43 70l274 233l278 -231z" />
    <glyph glyph-name="uni1ED6" unicode="&#x1ed6;" horiz-adv-x="1331" 
d="M1174 621q0 -56 -2 -95q-3 -94 -15 -156q-25 -136 -120 -231q-151 -151 -372 -151t-373 151q-95 95 -120 231q-12 62 -15 156q-2 39 -2 95v217q0 55 2 94q3 95 15 157q25 135 120 230q152 151 373 151t372 -151q95 -95 120 -230q12 -62 15 -157q2 -39 2 -94v-217z
M1002 1057q-19 102 -85 170q-102 104 -252 104q-151 0 -252 -104q-67 -68 -86 -170q-17 -88 -17 -328t17 -328q19 -102 86 -170q101 -104 252 -104q150 0 252 104q66 68 85 170q17 88 17 328t-17 328zM922 1939q-34 -53 -75 -77.5t-86.5 -25.5t-107.5 33.5t-108 27
t-83 -63.5l-55 43q47 65 84.5 86.5t72.5 23.5q51 5 116 -33q76 -39 119.5 -23.5t71.5 58.5zM891 1492l-229 168l-230 -168l-43 70l274 233l278 -231z" />
    <glyph glyph-name="uni1ED8" unicode="&#x1ed8;" horiz-adv-x="1331" 
d="M1174 621q0 -56 -2 -95q-3 -94 -15 -156q-25 -136 -120 -231q-151 -151 -372 -151t-373 151q-95 95 -120 231q-12 62 -15 156q-2 39 -2 95v217q0 55 2 94q3 95 15 157q25 135 120 230q152 151 373 151t372 -151q95 -95 120 -230q12 -62 15 -157q2 -39 2 -94v-217z
M1002 1057q-19 102 -85 170q-102 104 -252 104q-151 0 -252 -104q-67 -68 -86 -170q-17 -88 -17 -328t17 -328q19 -102 86 -170q101 -104 252 -104q150 0 252 104q66 68 85 170q17 88 17 328t-17 328zM582 -313v166h166v-166h-166zM891 1492l-229 168l-230 -168l-43 70
l274 233l278 -231z" />
    <glyph glyph-name="Ugrave" unicode="&#xd9;" horiz-adv-x="1398" 
d="M1208 481q0 -217 -145 -356q-143 -137 -365 -137t-365 137q-143 139 -143 356v977h156v-964q0 -166 96 -267q96 -100 256 -100t257 100q97 101 97 267v964h156v-977zM744 1546l-264 213l89 77l230 -243z" />
    <glyph glyph-name="Uacute" unicode="&#xda;" horiz-adv-x="1398" 
d="M1208 481q0 -217 -145 -356q-143 -137 -365 -137t-365 137q-143 139 -143 356v977h156v-964q0 -166 96 -267q96 -100 256 -100t257 100q97 101 97 267v964h156v-977zM641 1587l289 252l86 -96l-326 -209z" />
    <glyph glyph-name="uni1EE6" unicode="&#x1ee6;" horiz-adv-x="1398" 
d="M1208 481q0 -217 -145 -356q-143 -137 -365 -137t-365 137q-143 139 -143 356v977h156v-964q0 -166 96 -267q96 -100 256 -100t257 100q97 101 97 267v964h156v-977zM854 1750q-23 -53 -73.5 -92.5t-53.5 -98.5h-89v27q7 68 68.5 111.5t67.5 99.5q0 76 -77 76
q-37 -3 -56.5 -31t-18.5 -81h-89q1 90 40.5 139t125.5 53q77 0 120 -40t45 -113q0 -25 -10 -50z" />
    <glyph glyph-name="Utilde" unicode="&#x168;" horiz-adv-x="1398" 
d="M1208 481q0 -217 -145 -356q-143 -137 -365 -137t-365 137q-143 139 -143 356v977h156v-964q0 -166 96 -267q96 -100 256 -100t257 100q97 101 97 267v964h156v-977zM956 1666q-33 -53 -74 -77.5t-87 -25.5t-108 33.5t-107.5 27t-82.5 -63.5l-56 43q47 65 84.5 86.5
t72.5 23.5q51 5 116 -33q76 -39 119.5 -23.5t71.5 58.5z" />
    <glyph glyph-name="uni1EE4" unicode="&#x1ee4;" horiz-adv-x="1398" 
d="M1208 481q0 -217 -145 -356q-143 -137 -365 -137t-365 137q-143 139 -143 356v977h156v-964q0 -166 96 -267q96 -100 256 -100t257 100q97 101 97 267v964h156v-977zM616 -313v166h166v-166h-166z" />
    <glyph glyph-name="Uhorn" unicode="&#x1af;" horiz-adv-x="1398" 
d="M1208 481q0 -217 -145 -356q-143 -137 -365 -137t-365 137q-143 139 -143 356v977h156v-964q0 -166 96 -267q96 -100 256 -100t257 100q97 101 97 267v964h156v-977zM1208 1458v209h148v-181l-183 -114z" />
    <glyph glyph-name="uni1EEA" unicode="&#x1eea;" horiz-adv-x="1398" 
d="M1208 481q0 -217 -145 -356q-143 -137 -365 -137t-365 137q-143 139 -143 356v977h156v-964q0 -166 96 -267q96 -100 256 -100t257 100q97 101 97 267v964h156v-977zM743 1546l-264 213l89 77l230 -243zM1208 1458v209h148v-181l-183 -114z" />
    <glyph glyph-name="uni1EE8" unicode="&#x1ee8;" horiz-adv-x="1398" 
d="M1208 481q0 -217 -145 -356q-143 -137 -365 -137t-365 137q-143 139 -143 356v977h156v-964q0 -166 96 -267q96 -100 256 -100t257 100q97 101 97 267v964h156v-977zM1160 1430q51 22 59 56l9 196h149l-15 -160q-1 -57 -59 -93.5t-145 -58.5zM641 1587l289 252l86 -96
l-326 -209z" />
    <glyph glyph-name="uni1EEC" unicode="&#x1eec;" horiz-adv-x="1398" 
d="M1208 481q0 -217 -145 -356q-143 -137 -365 -137t-365 137q-143 139 -143 356v977h156v-964q0 -166 96 -267q96 -100 256 -100t257 100q97 101 97 267v964h156v-977zM1160 1430q51 22 59 56l9 196h149l-15 -160q-1 -57 -59 -93.5t-145 -58.5zM854 1750
q-23 -53 -73.5 -92.5t-53.5 -98.5h-89v27q7 68 68.5 111.5t67.5 99.5q0 76 -77 76q-37 -3 -56.5 -31t-18.5 -81h-89q1 90 40.5 139t125.5 53q77 0 120 -40t45 -113q0 -25 -10 -50z" />
    <glyph glyph-name="uni1EEE" unicode="&#x1eee;" horiz-adv-x="1398" 
d="M1208 481q0 -217 -145 -356q-143 -137 -365 -137t-365 137q-143 139 -143 356v977h156v-964q0 -166 96 -267q96 -100 256 -100t257 100q97 101 97 267v964h156v-977zM1160 1430q51 22 59 56l9 196h149l-15 -160q-1 -57 -59 -93.5t-145 -58.5zM956 1666q-33 -53 -74 -77.5
t-87 -25.5t-108 33.5t-107.5 27t-82.5 -63.5l-56 43q47 65 84.5 86.5t72.5 23.5q51 5 116 -33q76 -39 119.5 -23.5t71.5 58.5z" />
    <glyph glyph-name="uni1EF0" unicode="&#x1ef0;" horiz-adv-x="1398" 
d="M1208 481q0 -217 -145 -356q-143 -137 -365 -137t-365 137q-143 139 -143 356v977h156v-964q0 -166 96 -267q96 -100 256 -100t257 100q97 101 97 267v964h156v-977zM1160 1430q51 22 59 56l9 196h149l-15 -160q-1 -57 -59 -93.5t-145 -58.5zM616 -313v166h166v-166h-166
z" />
    <glyph glyph-name="Ohorn" unicode="&#x1a0;" horiz-adv-x="1331" 
d="M1174 621q0 -56 -2 -95q-3 -94 -15 -156q-25 -136 -120 -231q-151 -151 -372 -151t-373 151q-95 95 -120 231q-12 62 -15 156q-2 39 -2 95v217q0 55 2 94q3 95 15 157q25 135 120 230q152 151 373 151t372 -151q95 -95 120 -230q12 -62 15 -157q2 -39 2 -94v-217z
M1002 1057q-19 102 -85 170q-102 104 -252 104q-151 0 -252 -104q-67 -68 -86 -170q-17 -88 -17 -328t17 -328q19 -102 86 -170q101 -104 252 -104q150 0 252 104q66 68 85 170q17 88 17 328t-17 328zM1015 1388v197h148v-181l-183 -114z" />
    <glyph glyph-name="uni1EDC" unicode="&#x1edc;" horiz-adv-x="1331" 
d="M1174 621q0 -56 -2 -95q-3 -94 -15 -156q-25 -136 -120 -231q-151 -151 -372 -151t-373 151q-95 95 -120 231q-12 62 -15 156q-2 39 -2 95v217q0 55 2 94q3 95 15 157q25 135 120 230q152 151 373 151t372 -151q95 -95 120 -230q12 -62 15 -157q2 -39 2 -94v-217z
M1002 1057q-19 102 -85 170q-102 104 -252 104q-151 0 -252 -104q-67 -68 -86 -170q-17 -88 -17 -328t17 -328q19 -102 86 -170q101 -104 252 -104q150 0 252 104q66 68 85 170q17 88 17 328t-17 328zM906 1404q51 22 59 56l8 196h150l-16 -160q-1 -57 -58.5 -93.5
t-145.5 -58.5zM629 1571l-227 280h145l183 -280h-101z" />
    <glyph glyph-name="uni1EDA" unicode="&#x1eda;" horiz-adv-x="1331" 
d="M1174 621q0 -56 -2 -95q-3 -94 -15 -156q-25 -136 -120 -231q-151 -151 -372 -151t-373 151q-95 95 -120 231q-12 62 -15 156q-2 39 -2 95v217q0 55 2 94q3 95 15 157q25 135 120 230q152 151 373 151t372 -151q95 -95 120 -230q12 -62 15 -157q2 -39 2 -94v-217z
M1002 1057q-19 102 -85 170q-102 104 -252 104q-151 0 -252 -104q-67 -68 -86 -170q-17 -88 -17 -328t17 -328q19 -102 86 -170q101 -104 252 -104q150 0 252 104q66 68 85 170q17 88 17 328t-17 328zM906 1404q51 22 59 56l8 196h150l-16 -160q-1 -57 -58.5 -93.5
t-145.5 -58.5zM609 1661l289 252l86 -96l-326 -209z" />
    <glyph glyph-name="uni1EDE" unicode="&#x1ede;" horiz-adv-x="1331" 
d="M1174 621q0 -56 -2 -95q-3 -94 -15 -156q-25 -136 -120 -231q-151 -151 -372 -151t-373 151q-95 95 -120 231q-12 62 -15 156q-2 39 -2 95v217q0 55 2 94q3 95 15 157q25 135 120 230q152 151 373 151t372 -151q95 -95 120 -230q12 -62 15 -157q2 -39 2 -94v-217z
M1002 1057q-19 102 -85 170q-102 104 -252 104q-151 0 -252 -104q-67 -68 -86 -170q-17 -88 -17 -328t17 -328q19 -102 86 -170q101 -104 252 -104q150 0 252 104q66 68 85 170q17 88 17 328t-17 328zM906 1404q51 22 59 56l8 196h150l-16 -160q-1 -57 -58.5 -93.5
t-145.5 -58.5zM819 1750q-22 -53 -72.5 -92.5t-53.5 -98.5h-89v27q7 68 68 111.5t68 99.5q0 76 -77 76q-38 -3 -57 -31t-18 -81h-89q1 90 40.5 139t124.5 53q78 0 121 -40t45 -113q0 -25 -11 -50z" />
    <glyph glyph-name="uni1EE0" unicode="&#x1ee0;" horiz-adv-x="1331" 
d="M1174 621q0 -56 -2 -95q-3 -94 -15 -156q-25 -136 -120 -231q-151 -151 -372 -151t-373 151q-95 95 -120 231q-12 62 -15 156q-2 39 -2 95v217q0 55 2 94q3 95 15 157q25 135 120 230q152 151 373 151t372 -151q95 -95 120 -230q12 -62 15 -157q2 -39 2 -94v-217z
M1002 1057q-19 102 -85 170q-102 104 -252 104q-151 0 -252 -104q-67 -68 -86 -170q-17 -88 -17 -328t17 -328q19 -102 86 -170q101 -104 252 -104q150 0 252 104q66 68 85 170q17 88 17 328t-17 328zM906 1404q51 22 59 56l8 196h150l-16 -160q-1 -57 -58.5 -93.5
t-145.5 -58.5zM922 1666q-34 -53 -75 -77.5t-86.5 -25.5t-107.5 33.5t-108 27t-83 -63.5l-55 43q47 65 84.5 86.5t72.5 23.5q51 5 116 -33q76 -39 119.5 -23.5t71.5 58.5z" />
    <glyph glyph-name="uni1EE2" unicode="&#x1ee2;" horiz-adv-x="1331" 
d="M1174 621q0 -56 -2 -95q-3 -94 -15 -156q-25 -136 -120 -231q-151 -151 -372 -151t-373 151q-95 95 -120 231q-12 62 -15 156q-2 39 -2 95v217q0 55 2 94q3 95 15 157q25 135 120 230q152 151 373 151t372 -151q95 -95 120 -230q12 -62 15 -157q2 -39 2 -94v-217z
M1002 1057q-19 102 -85 170q-102 104 -252 104q-151 0 -252 -104q-67 -68 -86 -170q-17 -88 -17 -328t17 -328q19 -102 86 -170q101 -104 252 -104q150 0 252 104q66 68 85 170q17 88 17 328t-17 328zM906 1404q51 22 59 56l8 196h150l-16 -160q-1 -57 -58.5 -93.5
t-145.5 -58.5zM582 -313v166h166v-166h-166z" />
    <glyph glyph-name="Ygrave" unicode="&#x1ef2;" horiz-adv-x="1052" 
d="M606 602v-602h-156v602l-434 856h168l344 -698l340 698h168zM526 1534l-326 209l87 96l288 -252z" />
    <glyph glyph-name="Yacute" unicode="&#xdd;" horiz-adv-x="1052" 
d="M606 602v-602h-156v602l-434 856h168l344 -698l340 698h168zM455 1556l289 252l86 -96l-326 -209z" />
    <glyph glyph-name="uni1EF6" unicode="&#x1ef6;" horiz-adv-x="1052" 
d="M606 602v-602h-156v602l-434 856h168l344 -698l340 698h168zM681 1750q-23 -53 -73.5 -92.5t-53.5 -98.5h-89v27q7 68 68.5 111.5t67.5 99.5q0 76 -77 76q-37 -3 -56.5 -31t-18.5 -81h-89q1 90 40.5 139t125.5 53q77 0 120 -40t45 -113q0 -25 -10 -50z" />
    <glyph glyph-name="uni1EF8" unicode="&#x1ef8;" horiz-adv-x="1052" 
d="M606 602v-602h-156v602l-434 856h168l344 -698l340 698h168zM783 1666q-33 -53 -74 -77.5t-87 -25.5t-108 33.5t-107.5 27t-82.5 -63.5l-56 43q47 65 84.5 86.5t72.5 23.5q51 5 116 -33q76 -39 119.5 -23.5t71.5 58.5z" />
    <glyph glyph-name="uni1EF4" unicode="&#x1ef4;" horiz-adv-x="1052" 
d="M606 602v-602h-156v602l-434 856h168l344 -698l340 698h168zM443 -313v166h166v-166h-166z" />
    <glyph glyph-name="agrave" unicode="&#xe0;" 
d="M755 0v96q-108 -108 -291 -108q-195 0 -284 92q-76 76 -76 205q0 290 348 290h303v97q0 221 -258 221q-173 0 -254 -115l-100 92q115 150 356 150q404 0 404 -336v-684h-148zM755 465h-282q-226 0 -226 -178q0 -172 232 -172q77 0 121 10q61 15 104 57q51 48 51 174v109z
M472 1199l-259 289h166l208 -289h-115z" />
    <glyph glyph-name="aacute" unicode="&#xe1;" 
d="M755 0v96q-108 -108 -291 -108q-195 0 -284 92q-76 76 -76 205q0 290 348 290h303v97q0 221 -258 221q-173 0 -254 -115l-100 92q115 150 356 150q404 0 404 -336v-684h-148zM755 465h-282q-226 0 -226 -178q0 -172 232 -172q77 0 121 10q61 15 104 57q51 48 51 174v109z
M469 1199l208 289h166l-259 -289h-115z" />
    <glyph glyph-name="uni1EA3" unicode="&#x1ea3;" 
d="M755 0v96q-108 -108 -291 -108q-195 0 -284 92q-76 76 -76 205q0 290 348 290h303v97q0 221 -258 221q-173 0 -254 -115l-100 92q115 150 356 150q404 0 404 -336v-684h-148zM758 465h-282q-226 0 -226 -178q0 -172 232 -172q77 0 121 10q61 15 104 57q51 48 51 174v109z
M688 1324q-21 -50 -68 -86.5t-49 -91.5h-83v25q6 63 63 103.5t64 93.5q0 70 -72 70q-35 -3 -53 -29t-17 -75h-82q0 84 37 129.5t116 49.5q73 0 113 -37.5t42 -105.5q0 -23 -11 -46z" />
    <glyph glyph-name="atilde" unicode="&#xe3;" 
d="M755 0v96q-108 -108 -291 -108q-195 0 -284 92q-76 76 -76 205q0 290 348 290h303v97q0 221 -258 221q-173 0 -254 -115l-100 92q115 150 356 150q404 0 404 -336v-684h-148zM758 465h-282q-226 0 -226 -178q0 -172 232 -172q77 0 121 10q61 15 104 57q51 48 51 174v109z
M822 1303q-35 -61 -79.5 -91.5t-95.5 -34.5t-123 30.5t-123 23t-89 -76.5l-65 44q49 77 89.5 103.5t79.5 30.5q57 9 132 -29q88 -39 136 -18.5t77 70.5z" />
    <glyph glyph-name="uni1EA1" unicode="&#x1ea1;" 
d="M755 0v96q-108 -108 -291 -108q-195 0 -284 92q-76 76 -76 205q0 290 348 290h303v97q0 221 -258 221q-173 0 -254 -115l-100 92q115 150 356 150q404 0 404 -336v-684h-148zM758 465h-282q-226 0 -226 -178q0 -172 232 -172q77 0 121 10q61 15 104 57q51 48 51 174v109z
M421 -313v166h166v-166h-166z" />
    <glyph glyph-name="acircumflex" unicode="&#xe2;" 
d="M755 0v96q-108 -108 -291 -108q-195 0 -284 92q-76 76 -76 205q0 290 348 290h303v97q0 221 -258 221q-173 0 -254 -115l-100 92q115 150 356 150q404 0 404 -336v-684h-148zM758 465h-282q-226 0 -226 -178q0 -172 232 -172q77 0 121 10q61 15 104 57q51 48 51 174v109z
M687 1146l-183 212l-184 -212h-141l255 312h139l255 -312h-141z" />
    <glyph glyph-name="uni1EA7" unicode="&#x1ea7;" 
d="M755 0v96q-108 -108 -291 -108q-195 0 -284 92q-76 76 -76 205q0 290 348 290h303v97q0 221 -258 221q-173 0 -254 -115l-100 92q115 150 356 150q404 0 404 -336v-684h-148zM758 465h-282q-226 0 -226 -178q0 -172 232 -172q77 0 121 10q61 15 104 57q51 48 51 174v109z
M752 1415l-257 286h172l197 -286h-112zM687 1146l-183 212l-184 -212h-141l255 312h139l255 -312h-141z" />
    <glyph glyph-name="uni1EA5" unicode="&#x1ea5;" 
d="M755 0v96q-108 -108 -291 -108q-195 0 -284 92q-76 76 -76 205q0 290 348 290h303v97q0 221 -258 221q-173 0 -254 -115l-100 92q115 150 356 150q404 0 404 -336v-684h-148zM758 465h-282q-226 0 -226 -178q0 -172 232 -172q77 0 121 10q61 15 104 57q51 48 51 174v109z
M704 1415l198 286h171l-256 -286h-113zM687 1146l-183 212l-184 -212h-141l255 312h139l255 -312h-141z" />
    <glyph glyph-name="uni1EA9" unicode="&#x1ea9;" 
d="M755 0v96q-108 -108 -291 -108q-195 0 -284 92q-76 76 -76 205q0 290 348 290h303v97q0 221 -258 221q-173 0 -254 -115l-100 92q115 150 356 150q404 0 404 -336v-684h-148zM757 465h-282q-226 0 -226 -178q0 -172 232 -172q77 0 121 10q61 15 104 57q51 48 51 174v109z
M687 1146l-183 212l-184 -212h-141l255 312h139l255 -312h-141zM916 1608q-22 -50 -69 -86.5t-48 -91.5h-83v25q5 63 62.5 103.5t63.5 93.5q0 70 -71 70q-36 -3 -53.5 -29t-16.5 -75h-83q1 84 37.5 129.5t116.5 49.5q72 0 112 -37.5t42 -105.5q0 -23 -10 -46z" />
    <glyph glyph-name="uni1EAB" unicode="&#x1eab;" 
d="M822 1701q-35 -61 -79.5 -91.5t-95.5 -34.5t-123 30.5t-123 23t-89 -76.5l-65 44q49 77 89.5 103.5t79.5 30.5q57 9 132 -29q88 -39 136 -18.5t77 70.5zM755 0v96q-108 -108 -291 -108q-195 0 -284 92q-76 76 -76 205q0 290 348 290h303v97q0 221 -258 221
q-173 0 -254 -115l-100 92q115 150 356 150q404 0 404 -336v-684h-148zM757 465h-282q-226 0 -226 -178q0 -172 232 -172q77 0 121 10q61 15 104 57q51 48 51 174v109zM687 1146l-183 212l-184 -212h-141l255 312h139l255 -312h-141z" />
    <glyph glyph-name="uni1EAD" unicode="&#x1ead;" 
d="M420 -313v166h166v-166h-166zM755 0v96q-108 -108 -291 -108q-195 0 -284 92q-76 76 -76 205q0 290 348 290h303v97q0 221 -258 221q-173 0 -254 -115l-100 92q115 150 356 150q404 0 404 -336v-684h-148zM757 465h-282q-226 0 -226 -178q0 -172 232 -172q77 0 121 10
q61 15 104 57q51 48 51 174v109zM687 1146l-183 212l-184 -212h-141l255 312h139l255 -312h-141z" />
    <glyph glyph-name="abreve" unicode="&#x103;" 
d="M755 0v96q-108 -108 -291 -108q-195 0 -284 92q-76 76 -76 205q0 290 348 290h303v97q0 221 -258 221q-173 0 -254 -115l-100 92q115 150 356 150q404 0 404 -336v-684h-148zM758 465h-282q-226 0 -226 -178q0 -172 232 -172q77 0 121 10q61 15 104 57q51 48 51 174v109z
M756 1376q-31 -210 -248 -210q-226 0 -257 210h92q28 -112 165 -112q134 0 162 112h86z" />
    <glyph glyph-name="uni1EB1" unicode="&#x1eb1;" 
d="M755 0v96q-108 -108 -291 -108q-195 0 -284 92q-76 76 -76 205q0 290 348 290h303v97q0 221 -258 221q-173 0 -254 -115l-100 92q115 150 356 150q404 0 404 -336v-684h-148zM758 465h-282q-226 0 -226 -178q0 -172 232 -172q77 0 121 10q61 15 104 57q51 48 51 174v109z
M448 1416l-257 286h172l197 -286h-112zM756 1376q-31 -210 -248 -210q-226 0 -257 210h92q28 -112 165 -112q134 0 162 112h86z" />
    <glyph glyph-name="uni1EAF" unicode="&#x1eaf;" 
d="M755 0v96q-108 -108 -291 -108q-195 0 -284 92q-76 76 -76 205q0 290 348 290h303v97q0 221 -258 221q-173 0 -254 -115l-100 92q115 150 356 150q404 0 404 -336v-684h-148zM758 465h-282q-226 0 -226 -178q0 -172 232 -172q77 0 121 10q61 15 104 57q51 48 51 174v109z
M437 1426l198 286h171l-256 -286h-113zM756 1376q-31 -210 -248 -210q-226 0 -257 210h92q28 -112 165 -112q134 0 162 112h86z" />
    <glyph glyph-name="uni1EB3" unicode="&#x1eb3;" 
d="M755 0v96q-108 -108 -291 -108q-195 0 -284 92q-76 76 -76 205q0 290 348 290h303v97q0 221 -258 221q-173 0 -254 -115l-100 92q115 150 356 150q404 0 404 -336v-684h-148zM758 465h-282q-226 0 -226 -178q0 -172 232 -172q77 0 121 10q61 15 104 57q51 48 51 174v109z
M679 1608q-21 -50 -68 -86.5t-49 -91.5h-83v25q6 63 63 103.5t64 93.5q0 70 -72 70q-35 -3 -53 -29t-17 -75h-82q0 84 37 129.5t116 49.5q73 0 113 -37.5t42 -105.5q0 -23 -11 -46zM756 1376q-31 -210 -248 -210q-226 0 -257 210h92q28 -112 165 -112q134 0 162 112h86z" />
    <glyph glyph-name="uni1EB5" unicode="&#x1eb5;" 
d="M755 0v96q-108 -108 -291 -108q-195 0 -284 92q-76 76 -76 205q0 290 348 290h303v97q0 221 -258 221q-173 0 -254 -115l-100 92q115 150 356 150q404 0 404 -336v-684h-148zM758 465h-282q-226 0 -226 -178q0 -172 232 -172q77 0 121 10q61 15 104 57q51 48 51 174v109z
M790 1650q-35 -61 -79.5 -91.5t-95.5 -34.5t-123 30.5t-123 23t-89 -76.5l-65 44q49 77 89.5 103.5t79.5 30.5q57 9 132 -29q88 -39 136 -18.5t77 70.5zM756 1376q-31 -210 -248 -210q-226 0 -257 210h92q28 -112 165 -112q134 0 162 112h86z" />
    <glyph glyph-name="uni1EB7" unicode="&#x1eb7;" 
d="M755 0v96q-108 -108 -291 -108q-195 0 -284 92q-76 76 -76 205q0 290 348 290h303v97q0 221 -258 221q-173 0 -254 -115l-100 92q115 150 356 150q404 0 404 -336v-684h-148zM755 465h-282q-226 0 -226 -178q0 -172 232 -172q77 0 121 10q61 15 104 57q51 48 51 174v109z
M420 -313v166h166v-166h-166zM756 1376q-31 -210 -248 -210q-226 0 -257 210h92q28 -112 165 -112q134 0 162 112h86z" />
    <glyph glyph-name="egrave" unicode="&#xe8;" 
d="M509 1199l-259 289h166l208 -289h-115zM276 465q0 -348 297 -348q150 0 265 114l100 -88q-82 -81 -158 -116q-88 -39 -211 -39q-207 0 -320 124q-120 132 -120 392q0 516 414 516q194 0 304 -132q109 -130 109 -356v-67h-680zM809 575q-5 106 -31 168q-64 152 -235 152
q-172 0 -236 -152q-25 -62 -31 -168h533z" />
    <glyph glyph-name="eacute" unicode="&#xe9;" 
d="M469 1199l208 289h166l-259 -289h-115zM276 465q0 -348 297 -348q150 0 265 114l100 -88q-82 -81 -158 -116q-88 -39 -211 -39q-207 0 -320 124q-120 132 -120 392q0 516 414 516q194 0 304 -132q109 -130 109 -356v-67h-680zM809 575q-5 106 -31 168q-64 152 -235 152
q-172 0 -236 -152q-25 -62 -31 -168h533z" />
    <glyph glyph-name="uni1EBB" unicode="&#x1ebb;" 
d="M688 1324q-21 -50 -68 -86.5t-49 -91.5h-83v25q6 63 63 103.5t64 93.5q0 70 -72 70q-35 -3 -53 -29t-17 -75h-82q0 84 37 129.5t116 49.5q73 0 113 -37.5t42 -105.5q0 -23 -11 -46zM276 465q0 -348 297 -348q150 0 265 114l100 -88q-82 -81 -158 -116q-88 -39 -211 -39
q-207 0 -320 124q-120 132 -120 392q0 516 414 516q194 0 304 -132q109 -130 109 -356v-67h-680zM809 575q-5 106 -31 168q-64 152 -235 152q-172 0 -236 -152q-25 -62 -31 -168h533z" />
    <glyph glyph-name="uni1EBD" unicode="&#x1ebd;" 
d="M822 1303q-35 -61 -79.5 -91.5t-95.5 -34.5t-123 30.5t-123 23t-89 -76.5l-65 44q49 77 89.5 103.5t79.5 30.5q57 9 132 -29q88 -39 136 -18.5t77 70.5zM276 465q0 -348 297 -348q150 0 265 114l100 -88q-82 -81 -158 -116q-88 -39 -211 -39q-207 0 -320 124
q-120 132 -120 392q0 516 414 516q194 0 304 -132q109 -130 109 -356v-67h-680zM809 575q-5 106 -31 168q-64 152 -235 152q-172 0 -236 -152q-25 -62 -31 -168h533z" />
    <glyph glyph-name="uni1EB9" unicode="&#x1eb9;" 
d="M421 -313v166h166v-166h-166zM276 465q0 -348 297 -348q150 0 265 114l100 -88q-82 -81 -158 -116q-88 -39 -211 -39q-207 0 -320 124q-120 132 -120 392q0 516 414 516q194 0 304 -132q109 -130 109 -356v-67h-680zM809 575q-5 106 -31 168q-64 152 -235 152
q-172 0 -236 -152q-25 -62 -31 -168h533z" />
    <glyph glyph-name="ecircumflex" unicode="&#xea;" 
d="M726 1146l-183 212l-184 -212h-141l255 312h139l255 -312h-141zM276 465q0 -348 297 -348q150 0 265 114l100 -88q-82 -81 -158 -116q-88 -39 -211 -39q-207 0 -320 124q-120 132 -120 392q0 516 414 516q194 0 304 -132q109 -130 109 -356v-67h-680zM809 575
q-5 106 -31 168q-64 152 -235 152q-172 0 -236 -152q-25 -62 -31 -168h533z" />
    <glyph glyph-name="uni1EC1" unicode="&#x1ec1;" 
d="M794 1415l-257 286h172l197 -286h-112zM726 1146l-183 212l-184 -212h-141l255 312h139l255 -312h-141zM276 465q0 -348 297 -348q150 0 265 114l100 -88q-82 -81 -158 -116q-88 -39 -211 -39q-207 0 -320 124q-120 132 -120 392q0 516 414 516q194 0 304 -132
q109 -130 109 -356v-67h-680zM809 575q-5 106 -31 168q-64 152 -235 152q-172 0 -236 -152q-25 -62 -31 -168h533z" />
    <glyph glyph-name="uni1EBF" unicode="&#x1ebf;" horiz-adv-x="1085" 
d="M741 1416l198 286h171l-256 -286h-113zM726 1146l-183 212l-184 -212h-141l255 312h139l255 -312h-141zM276 465q0 -348 297 -348q150 0 265 114l100 -88q-82 -81 -158 -116q-88 -39 -211 -39q-207 0 -320 124q-120 132 -120 392q0 516 414 516q194 0 304 -132
q109 -130 109 -356v-67h-680zM809 575q-5 106 -31 168q-64 152 -235 152q-172 0 -236 -152q-25 -62 -31 -168h533z" />
    <glyph glyph-name="uni1EC3" unicode="&#x1ec3;" 
d="M726 1146l-183 212l-184 -212h-141l255 312h139l255 -312h-141zM953 1608q-22 -50 -69 -86.5t-48 -91.5h-83v25q5 63 62.5 103.5t63.5 93.5q0 70 -71 70q-36 -3 -53.5 -29t-16.5 -75h-83q1 84 37.5 129.5t116.5 49.5q72 0 112 -37.5t42 -105.5q0 -23 -10 -46zM276 465
q0 -348 297 -348q150 0 265 114l100 -88q-82 -81 -158 -116q-88 -39 -211 -39q-207 0 -320 124q-120 132 -120 392q0 516 414 516q194 0 304 -132q109 -130 109 -356v-67h-680zM809 575q-5 106 -31 168q-64 152 -235 152q-172 0 -236 -152q-25 -62 -31 -168h533z" />
    <glyph glyph-name="uni1EC5" unicode="&#x1ec5;" 
d="M830 1700q-35 -61 -79.5 -91.5t-95.5 -34.5t-123 30.5t-123 23t-89 -76.5l-65 44q49 77 89.5 103.5t79.5 30.5q57 9 132 -29q88 -39 136 -18.5t77 70.5zM726 1146l-183 212l-184 -212h-141l255 312h139l255 -312h-141zM276 465q0 -348 297 -348q150 0 265 114l100 -88
q-82 -81 -158 -116q-88 -39 -211 -39q-207 0 -320 124q-120 132 -120 392q0 516 414 516q194 0 304 -132q109 -130 109 -356v-67h-680zM809 575q-5 106 -31 168q-64 152 -235 152q-172 0 -236 -152q-25 -62 -31 -168h533z" />
    <glyph glyph-name="uni1EC7" unicode="&#x1ec7;" 
d="M460 -313v166h166v-166h-166zM726 1146l-183 212l-184 -212h-141l255 312h139l255 -312h-141zM276 465q0 -348 297 -348q150 0 265 114l100 -88q-82 -81 -158 -116q-88 -39 -211 -39q-207 0 -320 124q-120 132 -120 392q0 516 414 516q194 0 304 -132q109 -130 109 -356
v-67h-680zM809 575q-5 106 -31 168q-64 152 -235 152q-172 0 -236 -152q-25 -62 -31 -168h533z" />
    <glyph glyph-name="igrave" unicode="&#xec;" horiz-adv-x="515" 
d="M227 1199l-259 289h166l208 -289h-115zM184 0v1008h148v-1008h-148z" />
    <glyph glyph-name="iacute" unicode="&#xed;" horiz-adv-x="520" 
d="M139 1199l208 289h166l-259 -289h-115zM184 0v1008h148v-1008h-148z" />
    <glyph glyph-name="uni1EC9" unicode="&#x1ec9;" horiz-adv-x="515" 
d="M417 1324q-22 -50 -69 -86.5t-48 -91.5h-83v25q5 63 62.5 103.5t63.5 93.5q0 70 -71 70q-36 -3 -53.5 -29t-16.5 -75h-83q1 84 37.5 129.5t116.5 49.5q72 0 112 -37.5t42 -105.5q0 -23 -10 -46zM185 0v1008h148v-1008h-148z" />
    <glyph glyph-name="itilde" unicode="&#x129;" horiz-adv-x="525" 
d="M540 1303q-35 -61 -79.5 -91.5t-95.5 -34.5t-123 30.5t-123 23t-89 -76.5l-65 44q49 77 89.5 103.5t79.5 30.5q57 9 132 -29q88 -39 136 -18.5t77 70.5zM184 0v1008h148v-1008h-148z" />
    <glyph glyph-name="uni1ECB" unicode="&#x1ecb;" horiz-adv-x="515" 
d="M175 -313v166h166v-166h-166zM185 0v1008h148v-1008h-148z" />
    <glyph glyph-name="ograve" unicode="&#xf2;" 
d="M472 1199l-259 289h166l208 -289h-115zM931 284q-29 -109 -100 -182q-114 -114 -288 -114t-289 114q-71 73 -100 182q-23 87 -23 220q0 132 23 220q29 109 100 181q115 115 289 115t288 -115q71 -72 100 -181q23 -88 23 -220q0 -133 -23 -220zM805 590q-3 47 -10 84
q-18 92 -68 141q-74 74 -184 74q-109 0 -183 -74q-49 -50 -68 -141q-14 -64 -14 -170t14 -170q19 -92 68 -141q74 -74 183 -74q110 0 184 74q50 49 68 141q7 37 10 84q2 35 2 86t-2 86z" />
    <glyph glyph-name="oacute" unicode="&#xf3;" 
d="M469 1199l208 289h166l-259 -289h-115zM931 284q-29 -109 -100 -182q-114 -114 -288 -114t-289 114q-71 73 -100 182q-23 87 -23 220q0 132 23 220q29 109 100 181q115 115 289 115t288 -115q71 -72 100 -181q23 -88 23 -220q0 -133 -23 -220zM805 590q-3 47 -10 84
q-18 92 -68 141q-74 74 -184 74q-109 0 -183 -74q-49 -50 -68 -141q-14 -64 -14 -170t14 -170q19 -92 68 -141q74 -74 183 -74q110 0 184 74q50 49 68 141q7 37 10 84q2 35 2 86t-2 86z" />
    <glyph glyph-name="uni1ECF" unicode="&#x1ecf;" 
d="M688 1324q-21 -50 -68 -86.5t-49 -91.5h-83v25q6 63 63 103.5t64 93.5q0 70 -72 70q-35 -3 -53 -29t-17 -75h-82q0 84 37 129.5t116 49.5q73 0 113 -37.5t42 -105.5q0 -23 -11 -46zM931 284q-29 -109 -100 -182q-114 -114 -288 -114t-289 114q-71 73 -100 182
q-23 87 -23 220q0 132 23 220q29 109 100 181q115 115 289 115t288 -115q71 -72 100 -181q23 -88 23 -220q0 -133 -23 -220zM805 590q-3 47 -10 84q-18 92 -68 141q-74 74 -184 74q-109 0 -183 -74q-49 -50 -68 -141q-14 -64 -14 -170t14 -170q19 -92 68 -141
q74 -74 183 -74q110 0 184 74q50 49 68 141q7 37 10 84q2 35 2 86t-2 86z" />
    <glyph glyph-name="otilde" unicode="&#xf5;" 
d="M830 1303q-35 -61 -79.5 -91.5t-95.5 -34.5t-123 30.5t-123 23t-89 -76.5l-65 44q49 77 89.5 103.5t79.5 30.5q57 9 132 -29q88 -39 136 -18.5t77 70.5zM931 284q-29 -109 -100 -182q-114 -114 -288 -114t-289 114q-71 73 -100 182q-23 87 -23 220q0 132 23 220
q29 109 100 181q115 115 289 115t288 -115q71 -72 100 -181q23 -88 23 -220q0 -133 -23 -220zM805 590q-3 47 -10 84q-18 92 -68 141q-74 74 -184 74q-109 0 -183 -74q-49 -50 -68 -141q-14 -64 -14 -170t14 -170q19 -92 68 -141q74 -74 183 -74q110 0 184 74q50 49 68 141
q7 37 10 84q2 35 2 86t-2 86z" />
    <glyph glyph-name="uni1ECD" unicode="&#x1ecd;" 
d="M460 -313v166h166v-166h-166zM931 284q-29 -109 -100 -182q-114 -114 -288 -114t-289 114q-71 73 -100 182q-23 87 -23 220q0 132 23 220q29 109 100 181q115 115 289 115t288 -115q71 -72 100 -181q23 -88 23 -220q0 -133 -23 -220zM805 590q-3 47 -10 84
q-18 92 -68 141q-74 74 -184 74q-109 0 -183 -74q-49 -50 -68 -141q-14 -64 -14 -170t14 -170q19 -92 68 -141q74 -74 183 -74q110 0 184 74q50 49 68 141q7 37 10 84q2 35 2 86t-2 86z" />
    <glyph glyph-name="ocircumflex" unicode="&#xf4;" horiz-adv-x="1085" 
d="M931 284q-29 -109 -100 -182q-114 -114 -288 -114t-289 114q-71 73 -100 182q-23 87 -23 220q0 132 23 220q29 109 100 181q115 115 289 115t288 -115q71 -72 100 -181q23 -88 23 -220q0 -133 -23 -220zM805 590q-3 47 -10 84q-18 92 -68 141q-74 74 -184 74
q-109 0 -183 -74q-49 -50 -68 -141q-14 -64 -14 -170t14 -170q19 -92 68 -141q74 -74 183 -74q110 0 184 74q50 49 68 141q7 37 10 84q2 35 2 86t-2 86zM726 1146l-183 212l-184 -212h-141l255 312h139l255 -312h-141z" />
    <glyph glyph-name="uni1ED3" unicode="&#x1ed3;" horiz-adv-x="1085" 
d="M931 284q-29 -109 -100 -182q-114 -114 -288 -114t-289 114q-71 73 -100 182q-23 87 -23 220q0 132 23 220q29 109 100 181q115 115 289 115t288 -115q71 -72 100 -181q23 -88 23 -220q0 -133 -23 -220zM805 590q-3 47 -10 84q-18 92 -68 141q-74 74 -184 74
q-109 0 -183 -74q-49 -50 -68 -141q-14 -64 -14 -170t14 -170q19 -92 68 -141q74 -74 183 -74q110 0 184 74q50 49 68 141q7 37 10 84q2 35 2 86t-2 86zM726 1146l-183 212l-184 -212h-141l255 312h139l255 -312h-141zM778 1415l-257 286h172l197 -286h-112z" />
    <glyph glyph-name="uni1ED1" unicode="&#x1ed1;" horiz-adv-x="1085" 
d="M931 284q-29 -109 -100 -182q-114 -114 -288 -114t-289 114q-71 73 -100 182q-23 87 -23 220q0 132 23 220q29 109 100 181q115 115 289 115t288 -115q71 -72 100 -181q23 -88 23 -220q0 -133 -23 -220zM805 590q-3 47 -10 84q-18 92 -68 141q-74 74 -184 74
q-109 0 -183 -74q-49 -50 -68 -141q-14 -64 -14 -170t14 -170q19 -92 68 -141q74 -74 183 -74q110 0 184 74q50 49 68 141q7 37 10 84q2 35 2 86t-2 86zM726 1146l-183 212l-184 -212h-141l255 312h139l255 -312h-141zM725 1415l198 286h171l-256 -286h-113z" />
    <glyph glyph-name="uni1ED5" unicode="&#x1ed5;" horiz-adv-x="1085" 
d="M931 284q-29 -109 -100 -182q-114 -114 -288 -114t-289 114q-71 73 -100 182q-23 87 -23 220q0 132 23 220q29 109 100 181q115 115 289 115t288 -115q71 -72 100 -181q23 -88 23 -220q0 -133 -23 -220zM805 590q-3 47 -10 84q-18 92 -68 141q-74 74 -184 74
q-109 0 -183 -74q-49 -50 -68 -141q-14 -64 -14 -170t14 -170q19 -92 68 -141q74 -74 183 -74q110 0 184 74q50 49 68 141q7 37 10 84q2 35 2 86t-2 86zM726 1146l-183 212l-184 -212h-141l255 312h139l255 -312h-141zM948 1608q-22 -50 -69 -86.5t-48 -91.5h-83v25
q5 63 62.5 103.5t63.5 93.5q0 70 -71 70q-36 -3 -53.5 -29t-16.5 -75h-83q1 84 37.5 129.5t116.5 49.5q72 0 112 -37.5t42 -105.5q0 -23 -10 -46z" />
    <glyph glyph-name="uni1ED7" unicode="&#x1ed7;" horiz-adv-x="1085" 
d="M931 284q-29 -109 -100 -182q-114 -114 -288 -114t-289 114q-71 73 -100 182q-23 87 -23 220q0 132 23 220q29 109 100 181q115 115 289 115t288 -115q71 -72 100 -181q23 -88 23 -220q0 -133 -23 -220zM805 590q-3 47 -10 84q-18 92 -68 141q-74 74 -184 74
q-109 0 -183 -74q-49 -50 -68 -141q-14 -64 -14 -170t14 -170q19 -92 68 -141q74 -74 183 -74q110 0 184 74q50 49 68 141q7 37 10 84q2 35 2 86t-2 86zM726 1146l-183 212l-184 -212h-141l255 312h139l255 -312h-141zM830 1700q-35 -61 -79.5 -91.5t-95.5 -34.5t-123 30.5
t-123 23t-89 -76.5l-65 44q49 77 89.5 103.5t79.5 30.5q57 9 132 -29q88 -39 136 -18.5t77 70.5z" />
    <glyph glyph-name="uni1ED9" unicode="&#x1ed9;" horiz-adv-x="1085" 
d="M931 284q-29 -109 -100 -182q-114 -114 -288 -114t-289 114q-71 73 -100 182q-23 87 -23 220q0 132 23 220q29 109 100 181q115 115 289 115t288 -115q71 -72 100 -181q23 -88 23 -220q0 -133 -23 -220zM805 590q-3 47 -10 84q-18 92 -68 141q-74 74 -184 74
q-109 0 -183 -74q-49 -50 -68 -141q-14 -64 -14 -170t14 -170q19 -92 68 -141q74 -74 183 -74q110 0 184 74q50 49 68 141q7 37 10 84q2 35 2 86t-2 86zM460 -370v166h166v-166h-166zM726 1146l-183 212l-184 -212h-141l255 312h139l255 -312h-141z" />
    <glyph glyph-name="ugrave" unicode="&#xf9;" horiz-adv-x="1137" 
d="M519 1199l-259 289h166l208 -289h-115zM821 0v113q-109 -125 -284 -125q-166 0 -261 94q-102 99 -102 283v643h148v-621q0 -268 245 -268q252 0 252 268v621h148v-1008h-146z" />
    <glyph glyph-name="uacute" unicode="&#xfa;" horiz-adv-x="1137" 
d="M469 1199l208 289h166l-259 -289h-115zM821 0v113q-109 -125 -284 -125q-166 0 -261 94q-102 99 -102 283v643h148v-621q0 -268 245 -268q252 0 252 268v621h148v-1008h-146z" />
    <glyph glyph-name="uni1EE7" unicode="&#x1ee7;" horiz-adv-x="1137" 
d="M714 1324q-21 -50 -68 -86.5t-49 -91.5h-83v25q6 63 63 103.5t64 93.5q0 70 -72 70q-35 -3 -53 -29t-17 -75h-82q0 84 37 129.5t116 49.5q73 0 113 -37.5t42 -105.5q0 -23 -11 -46zM821 0v113q-109 -125 -284 -125q-166 0 -261 94q-102 99 -102 283v643h148v-621
q0 -268 245 -268q252 0 252 268v621h148v-1008h-146z" />
    <glyph glyph-name="utilde" unicode="&#x169;" horiz-adv-x="1142" 
d="M858 1303q-35 -61 -79.5 -91.5t-95.5 -34.5t-123 30.5t-123 23t-89 -76.5l-65 44q49 77 89.5 103.5t79.5 30.5q57 9 132 -29q88 -39 136 -18.5t77 70.5zM821 0v113q-109 -125 -284 -125q-166 0 -261 94q-102 99 -102 283v643h148v-621q0 -268 245 -268q252 0 252 268v621
h148v-1008h-146z" />
    <glyph glyph-name="uni1EE5" unicode="&#x1ee5;" horiz-adv-x="1137" 
d="M460 -313v166h166v-166h-166zM821 0v113q-109 -125 -284 -125q-166 0 -261 94q-102 99 -102 283v643h148v-621q0 -268 245 -268q252 0 252 268v621h148v-1008h-146z" />
    <glyph glyph-name="uhorn" unicode="&#x1b0;" horiz-adv-x="1150" 
d="M821 0v113q-109 -125 -284 -125q-166 0 -261 94q-102 99 -102 283v643h148v-621q0 -268 245 -268q252 0 252 268v621h148v-1008h-146zM968 1010v182h129v-158l-159 -99z" />
    <glyph glyph-name="uni1EEB" unicode="&#x1eeb;" horiz-adv-x="1137" 
d="M519 1199l-259 289h166l208 -289h-115zM821 0v113q-109 -125 -284 -125q-166 0 -261 94q-102 99 -102 283v643h148v-621q0 -268 245 -268q252 0 252 268v621h148v-1008h-146zM968 1010v182h129v-158l-159 -99z" />
    <glyph glyph-name="uni1EE9" unicode="&#x1ee9;" horiz-adv-x="1137" 
d="M469 1199l208 289h166l-259 -289h-115zM821 0v113q-109 -125 -284 -125q-166 0 -261 94q-102 99 -102 283v643h148v-621q0 -268 245 -268q252 0 252 268v621h148v-1008h-146zM968 1010v182h129v-158l-159 -99z" />
    <glyph glyph-name="uni1EED" unicode="&#x1eed;" horiz-adv-x="1137" 
d="M714 1324q-21 -50 -68 -86.5t-49 -91.5h-83v25q6 63 63 103.5t64 93.5q0 70 -72 70q-35 -3 -53 -29t-17 -75h-82q0 84 37 129.5t116 49.5q73 0 113 -37.5t42 -105.5q0 -23 -11 -46zM821 0v113q-109 -125 -284 -125q-166 0 -261 94q-102 99 -102 283v643h148v-621
q0 -268 245 -268q252 0 252 268v621h148v-1008h-146zM968 1010v182h129v-158l-159 -99z" />
    <glyph glyph-name="uni1EEF" unicode="&#x1eef;" horiz-adv-x="1142" 
d="M858 1303q-35 -61 -79.5 -91.5t-95.5 -34.5t-123 30.5t-123 23t-89 -76.5l-65 44q49 77 89.5 103.5t79.5 30.5q57 9 132 -29q88 -39 136 -18.5t77 70.5zM821 0v113q-109 -125 -284 -125q-166 0 -261 94q-102 99 -102 283v643h148v-621q0 -268 245 -268q252 0 252 268v621
h148v-1008h-146zM968 1010v182h129v-158l-159 -99z" />
    <glyph glyph-name="uni1EF1" unicode="&#x1ef1;" horiz-adv-x="1137" 
d="M460 -313v166h166v-166h-166zM821 0v113q-109 -125 -284 -125q-166 0 -261 94q-102 99 -102 283v643h148v-621q0 -268 245 -268q252 0 252 268v621h148v-1008h-146zM968 1010v182h129v-158l-159 -99z" />
    <glyph glyph-name="ohorn" unicode="&#x1a1;" horiz-adv-x="1085" 
d="M931 284q-29 -109 -100 -182q-114 -114 -288 -114t-289 114q-71 73 -100 182q-23 87 -23 220q0 132 23 220q29 109 100 181q115 115 289 115t288 -115q71 -72 100 -181q23 -88 23 -220q0 -133 -23 -220zM805 590q-3 47 -10 84q-18 92 -68 141q-74 74 -184 74
q-109 0 -183 -74q-49 -50 -68 -141q-14 -64 -14 -170t14 -170q19 -92 68 -141q74 -74 183 -74q110 0 184 74q50 49 68 141q7 37 10 84q2 35 2 86t-2 86zM820 933v182h129v-158l-159 -99z" />
    <glyph glyph-name="uni1EDD" unicode="&#x1edd;" 
d="M472 1199l-259 289h166l208 -289h-115zM931 284q-29 -109 -100 -182q-114 -114 -288 -114t-289 114q-71 73 -100 182q-23 87 -23 220q0 132 23 220q29 109 100 181q115 115 289 115t288 -115q71 -72 100 -181q23 -88 23 -220q0 -133 -23 -220zM805 590q-3 47 -10 84
q-18 92 -68 141q-74 74 -184 74q-109 0 -183 -74q-49 -50 -68 -141q-14 -64 -14 -170t14 -170q19 -92 68 -141q74 -74 183 -74q110 0 184 74q50 49 68 141q7 37 10 84q2 35 2 86t-2 86zM820 933v182h129v-158l-159 -99z" />
    <glyph glyph-name="uni1EDB" unicode="&#x1edb;" 
d="M469 1199l208 289h166l-259 -289h-115zM931 284q-29 -109 -100 -182q-114 -114 -288 -114t-289 114q-71 73 -100 182q-23 87 -23 220q0 132 23 220q29 109 100 181q115 115 289 115t288 -115q71 -72 100 -181q23 -88 23 -220q0 -133 -23 -220zM805 590q-3 47 -10 84
q-18 92 -68 141q-74 74 -184 74q-109 0 -183 -74q-49 -50 -68 -141q-14 -64 -14 -170t14 -170q19 -92 68 -141q74 -74 183 -74q110 0 184 74q50 49 68 141q7 37 10 84q2 35 2 86t-2 86zM820 933v182h129v-158l-159 -99z" />
    <glyph glyph-name="uni1EDF" unicode="&#x1edf;" 
d="M688 1324q-21 -50 -68 -86.5t-49 -91.5h-83v25q6 63 63 103.5t64 93.5q0 70 -72 70q-35 -3 -53 -29t-17 -75h-82q0 84 37 129.5t116 49.5q73 0 113 -37.5t42 -105.5q0 -23 -11 -46zM931 284q-29 -109 -100 -182q-114 -114 -288 -114t-289 114q-71 73 -100 182
q-23 87 -23 220q0 132 23 220q29 109 100 181q115 115 289 115t288 -115q71 -72 100 -181q23 -88 23 -220q0 -133 -23 -220zM805 590q-3 47 -10 84q-18 92 -68 141q-74 74 -184 74q-109 0 -183 -74q-49 -50 -68 -141q-14 -64 -14 -170t14 -170q19 -92 68 -141
q74 -74 183 -74q110 0 184 74q50 49 68 141q7 37 10 84q2 35 2 86t-2 86zM820 933v182h129v-158l-159 -99z" />
    <glyph glyph-name="uni1EE1" unicode="&#x1ee1;" 
d="M830 1303q-35 -61 -79.5 -91.5t-95.5 -34.5t-123 30.5t-123 23t-89 -76.5l-65 44q49 77 89.5 103.5t79.5 30.5q57 9 132 -29q88 -39 136 -18.5t77 70.5zM931 284q-29 -109 -100 -182q-114 -114 -288 -114t-289 114q-71 73 -100 182q-23 87 -23 220q0 132 23 220
q29 109 100 181q115 115 289 115t288 -115q71 -72 100 -181q23 -88 23 -220q0 -133 -23 -220zM805 590q-3 47 -10 84q-18 92 -68 141q-74 74 -184 74q-109 0 -183 -74q-49 -50 -68 -141q-14 -64 -14 -170t14 -170q19 -92 68 -141q74 -74 183 -74q110 0 184 74q50 49 68 141
q7 37 10 84q2 35 2 86t-2 86zM820 933v182h129v-158l-159 -99z" />
    <glyph glyph-name="uni1EE3" unicode="&#x1ee3;" 
d="M460 -313v166h166v-166h-166zM931 284q-29 -109 -100 -182q-114 -114 -288 -114t-289 114q-71 73 -100 182q-23 87 -23 220q0 132 23 220q29 109 100 181q115 115 289 115t288 -115q71 -72 100 -181q23 -88 23 -220q0 -133 -23 -220zM805 590q-3 47 -10 84
q-18 92 -68 141q-74 74 -184 74q-109 0 -183 -74q-49 -50 -68 -141q-14 -64 -14 -170t14 -170q19 -92 68 -141q74 -74 183 -74q110 0 184 74q50 49 68 141q7 37 10 84q2 35 2 86t-2 86zM820 933v182h129v-158l-159 -99z" />
    <glyph glyph-name="ygrave" unicode="&#x1ef3;" horiz-adv-x="918" 
d="M409 1199l-259 289h166l208 -289h-115zM434 -244q-30 -79 -72 -118q-72 -70 -197 -70h-63v131h45q121 0 166 125l71 196l-362 988h160l276 -809l275 809h159z" />
    <glyph glyph-name="yacute" unicode="&#xfd;" horiz-adv-x="923" 
d="M385 1199l208 289h166l-259 -289h-115zM434 -244q-30 -79 -72 -118q-72 -70 -197 -70h-63v131h45q121 0 166 125l71 196l-362 988h160l276 -809l275 809h159z" />
    <glyph glyph-name="uni1EF7" unicode="&#x1ef7;" horiz-adv-x="923" 
d="M614 1324q-21 -50 -68 -86.5t-49 -91.5h-83v25q6 63 63 103.5t64 93.5q0 70 -72 70q-35 -3 -53 -29t-17 -75h-82q0 84 37 129.5t116 49.5q73 0 113 -37.5t42 -105.5q0 -23 -11 -46zM434 -244q-30 -79 -72 -118q-72 -70 -197 -70h-63v131h45q121 0 166 125l71 196
l-362 988h160l276 -809l275 809h159z" />
    <glyph glyph-name="uni1EF9" unicode="&#x1ef9;" 
d="M759 1303q-35 -61 -79.5 -91.5t-95.5 -34.5t-123 30.5t-123 23t-89 -76.5l-65 44q49 77 89.5 103.5t79.5 30.5q57 9 132 -29q88 -39 136 -18.5t77 70.5zM434 -244q-30 -79 -72 -118q-72 -70 -197 -70h-63v131h45q121 0 166 125l71 196l-362 988h160l276 -809l275 809h159
z" />
    <glyph glyph-name="uni1EF5" unicode="&#x1ef5;" 
d="M594 -392v166h166v-166h-166zM434 -244q-30 -79 -72 -118q-72 -70 -197 -70h-63v131h45q121 0 166 125l71 196l-362 988h160l276 -809l275 809h159z" />
    <glyph glyph-name="divide" unicode="&#xf7;" horiz-adv-x="1069" 
d="M446 827v177h176v-177h-176zM104 483v138h860v-138h-860zM446 100v176h176v-176h-176z" />
    <glyph glyph-name="Dslash" unicode="&#xd0;" horiz-adv-x="1406" 
d="M1235 389q-16 -91 -75 -174q-70 -98 -173 -154q-116 -61 -259 -61h-489v676h-160v121h160v661h502q275 0 419 -219q62 -94 77 -185q13 -81 13 -325q0 -249 -15 -340zM1021 1174q-108 147 -309 147h-316v-524h330v-121h-330v-539h316q217 0 319 152q44 65 54 144
q10 69 10 288q0 351 -74 453z" />
    <glyph glyph-name="Dslash" unicode="&#x110;" horiz-adv-x="1406" 
d="M1235 389q-16 -91 -75 -174q-70 -98 -173 -154q-116 -61 -259 -61h-489v676h-160v121h160v661h502q275 0 419 -219q62 -94 77 -185q13 -81 13 -325q0 -249 -15 -340zM1021 1174q-108 147 -309 147h-316v-524h330v-121h-330v-539h316q217 0 319 152q44 65 54 144
q10 69 10 288q0 351 -74 453z" />
    <glyph glyph-name="dcroat" unicode="&#x111;" horiz-adv-x="1116" 
d="M786 0v121q-57 -75 -132 -107q-64 -26 -154 -26q-158 0 -246 88q-70 70 -100 193q-23 96 -23 235t23 235q30 123 100 193q88 88 246 88q91 0 153 -25q74 -31 131 -104v567h148v-1458h-146zM776 647q-11 73 -35 123q-59 119 -209 119q-149 0 -209 -119q-25 -50 -36 -123
q-9 -60 -9 -143t9 -143q11 -74 36 -123q60 -119 209 -119q150 0 209 119q24 49 35 123q8 59 8 143q0 83 -8 143zM1113 1252v-114h-607v114h607z" />
    <glyph glyph-name="quotesinglbase" unicode="&#x201a;" horiz-adv-x="538" 
d="M180 -162v334h178v-172z" />
    <glyph glyph-name="quotedblbase" unicode="&#x201e;" horiz-adv-x="888" 
d="M528 -162v334h180v-172zM180 -162v334h178v-172z" />
    <glyph glyph-name="quoteleft" unicode="&#x2018;" horiz-adv-x="1024" 
d="M477 1217l-221 313h176l180 -313h-135z" />
    <glyph glyph-name="quoteright" unicode="&#x2019;" horiz-adv-x="1024" 
d="M546 1217h-135l180 313h176z" />
    <glyph glyph-name="quotedblleft" unicode="&#x201c;" horiz-adv-x="866" 
d="M524 1110v348h162v-348h-162zM180 1110v348h162v-348h-162z" />
    <glyph glyph-name="quotedblright" unicode="&#x201d;" horiz-adv-x="866" 
d="M524 1110v348h162v-348h-162zM180 1110v348h162v-348h-162z" />
    <glyph glyph-name="ellipsis" unicode="&#x2026;" horiz-adv-x="1550" 
d="M1181 0v188h189v-188h-189zM680 0v188h188v-188h-188zM180 0v188h188v-188h-188z" />
    <glyph glyph-name="perthousand" unicode="&#x2030;" horiz-adv-x="2414" 
d="M2283 262q0 -124 -79 -201q-77 -75 -197 -75q-121 0 -198 75q-79 77 -79 201v215q0 125 79 201q77 76 198 76q120 0 197 -76q79 -77 79 -201v-215zM1575 262q0 -124 -79 -201q-78 -75 -198 -75q-121 0 -198 75q-78 77 -78 201v215q0 125 78 201q77 76 198 76
q120 0 198 -76q79 -77 79 -201v-215zM573 0h-123l684 1458h123zM686 981q0 -123 -79 -199q-78 -75 -198 -75q-121 0 -198 75q-78 76 -78 199v215q0 125 78 201q77 76 198 76t198 -76q79 -77 79 -201v-215zM2167 473q0 178 -160 178t-160 -178v-207q0 -178 160 -178t160 178
v207zM1458 473q0 178 -160 178q-159 0 -159 -178v-207q0 -178 159 -178q160 0 160 178v207zM569 1192q0 178 -160 178q-159 0 -159 -178v-207q0 -176 159 -176q160 0 160 176v207z" />
    <glyph glyph-name="endash" unicode="&#x2013;" horiz-adv-x="1069" 
d="M19 483v138h999v-138h-999z" />
    <glyph glyph-name="emdash" unicode="&#x2014;" horiz-adv-x="1871" 
d="M155 483v140h1561v-140h-1561z" />
    <glyph glyph-name="minus" unicode="&#x2212;" horiz-adv-x="1069" 
d="M106 483v138h856v-138h-856z" />
    <glyph glyph-name="ch270" unicode="&#xb7;" horiz-adv-x="641" 
d="M103 522v366h366v-366h-366z" />
    <glyph glyph-name="ch270" unicode="&#x2219;" horiz-adv-x="641" 
d="M103 522v366h366v-366h-366z" />
    <glyph glyph-name="trademark" unicode="&#x2122;" horiz-adv-x="1718" 
d="M1138 798v476l-158 -312h-87l-157 312v-476h-90v660h90l201 -400l201 400h88v-660h-88zM345 1376v-578h-89v578h-183v82h456v-82h-184z" />
    <glyph glyph-name="uniFB01" unicode="&#xfb01;" horiz-adv-x="1150" 
d="M807 1309v151h168v-151h-168zM817 0v1001h148v-1001h-148zM362 889v-889h-147v889h-129v112h129v191q0 118 64 191q68 79 192 79h107v-127h-80q-136 0 -136 -147v-187h216v-112h-216z" />
    <glyph glyph-name="uniFB02" unicode="&#xfb02;" horiz-adv-x="1232" 
d="M1067 0q-258 0 -258 268v1190h147v-1184q0 -147 136 -147h81v-127h-106zM362 889v-889h-147v889h-129v112h129v191q0 118 64 191q68 79 192 79h107v-127h-80q-136 0 -136 -147v-187h216v-112h-216z" />
    <glyph glyph-name="dong" unicode="&#x20ab;" horiz-adv-x="1116" 
d="M606 401v88q-41 -55 -95 -78q-47 -19 -112 -19q-115 0 -179 64q-50 51 -72 140q-17 70 -17 170q0 101 17 171q22 89 72 140q64 63 179 63q66 0 111 -18q53 -22 95 -75v411h107v-1057h-106zM599 870q-8 53 -25 89q-43 86 -152 86q-108 0 -151 -86q-19 -36 -27 -89
q-6 -44 -6 -104t6 -103q8 -54 27 -90q43 -86 151 -86q109 0 152 86q17 36 25 90q6 42 6 103q0 60 -6 104zM843 1312v-86h-440v86h440zM843 285v-86h-789v86h789z" />
    <glyph glyph-name="glyph275" horiz-adv-x="1105" 
d="M103 1029v375l795 -681l-795 -682v363l374 319z" />
    <glyph glyph-name="uniF05B" unicode="&#xf05b;" horiz-adv-x="1000" 
d="M704 640l-600 -600v1200z" />
    <glyph glyph-name="glyph277" horiz-adv-x="1195" 
d="M102 1019l900 -451l-900 -449v900z" />
    <glyph glyph-name="glyph278" horiz-adv-x="2048" 
d="M1600 38h-1152v1152h1152v-1152z" />
    <glyph glyph-name="glyph279" horiz-adv-x="2048" 
d="M1408 640l-576 -576l-320 320v384l320 -319l576 575v-384z" />
    <glyph glyph-name="glyph280" horiz-adv-x="2048" 
d="M1850 -2h-1850v1850h1850v-1850zM1725 123v1600h-1600v-1600h1600z" />
    <glyph glyph-name="glyph281" horiz-adv-x="641" 
d="M95 692q0 84 59.5 144t144.5 60q84 0 144 -60t60 -144t-60 -144t-144 -60q-85 0 -144.5 59.5t-59.5 144.5z" />
    <glyph glyph-name="glyph282" horiz-adv-x="937" 
d="M173 740q0 122 86.5 209t208.5 87q123 0 210 -86.5t87 -209.5t-87 -209.5t-209 -86.5q-123 0 -209.5 86.5t-86.5 209.5z" />
    <glyph glyph-name="glyph283" horiz-adv-x="1825" 
d="M173 740q0 307 216.5 523.5t523.5 216.5t523.5 -216.5t216.5 -523.5t-216.5 -523.5t-523.5 -216.5t-523.5 216.5t-216.5 523.5zM321 740q0 -245 173.5 -418.5t418.5 -173.5t418.5 173.5t173.5 418.5t-173.5 418.5t-418.5 173.5t-418.5 -173.5t-173.5 -418.5z" />
    <glyph glyph-name="glyph284" horiz-adv-x="1825" 
d="M173 740q0 307 216.5 523.5t523.5 216.5t523.5 -216.5t216.5 -523.5t-216.5 -523.5t-523.5 -216.5t-523.5 216.5t-216.5 523.5zM469 740q0 -184 130 -314t314 -130t314 130t130 314t-130 314t-314 130t-314 -130t-130 -314z" />
    <glyph glyph-name="glyph285" horiz-adv-x="641" 
d="M103 522v366h366v-366h-366z" />
    <glyph glyph-name="glyph286" horiz-adv-x="937" 
d="M173 444v592h592v-592h-592z" />
    <glyph glyph-name="glyph287" horiz-adv-x="1825" 
d="M321 148h1184v1184h-1184v-1184zM173 0v1480h1480v-1480h-1480z" />
    <glyph glyph-name="glyph288" horiz-adv-x="1825" 
d="M370 197h1086v1086h-1086v-1086zM173 0v1480h1480v-1480h-1480z" />
    <glyph glyph-name="glyph289" horiz-adv-x="1825" 
d="M469 296h888v888h-888v-888zM173 0v1480h1480v-1480h-1480z" />
    <glyph glyph-name="glyph290" horiz-adv-x="1183" 
d="M173 740l419 419l418 -419l-418 -419z" />
    <glyph glyph-name="glyph291" horiz-adv-x="1199" 
d="M97 1200h1000v-1000h-1000v1000zM247 1050v-700h700v700h-700z" />
    <glyph glyph-name="glyph292" horiz-adv-x="2006" 
d="M1711 718l-718 718h-271l622 -622h-1245v-192h1245l-622 -622h271z" />
    <glyph glyph-name="glyph293" horiz-adv-x="1496" 
d="M1207 599l-493 493l-94 -95l335 -332h-855v-132h855l-338 -335l97 -92z" />
    <glyph glyph-name="glyph294" horiz-adv-x="1802" 
d="M316.5 698.5q-39.5 39.5 -39.5 96.5q0 56 39.5 94.5t95.5 38.5t96 -38.5t40 -94.5q0 -57 -40 -96.5t-96 -39.5t-95.5 39.5zM219.5 983.5q-79.5 -77.5 -79.5 -188.5q0 -114 79.5 -192t192.5 -78q112 0 192 78t80 192q0 111 -80 188.5t-192 77.5q-113 0 -192.5 -77.5z
M1903 1058h-141q-23 0 -39 -10t-24 -21l-76 -89q-9 -12 -26 -12q-18 0 -36 18l-89 83q-31 31 -67 31h-195q34 -7 57.5 -26.5l23.5 -19.5l181 -176q0 -1 6.5 -7.5t6.5 -8.5q8 -11 8 -23q0 -18 -13 -32l-141 -159l26 -21.5t71 -24.5q29 -1 48 14.5l19 15.5zM1146 1032
q-22 0 -39 -11.5t-25 -18.5l-66 -68q-15 -16 -31 -16t-30 14l-106 99q-13 12 -24.5 19.5t-29.5 7.5h-172q17 -13 33.5 -24.5t34.5 -27.5l179 -170q22 -18 22 -31q0 -9 -10 -22l-191 -217q-5 -5 -15.5 -16.5t-22.5 -17.5h149q28 0 45 21l400 444q-30 24 -55.5 29.5t-45.5 5.5
zM1302 576q-17 18 -51 52l-66.5 66.5l-57 57l-24.5 24.5l-87 -92l110 -118l23 -17t56 -17h39h67.5h64.5h29l-36 7t-67 37zM2004 2007v-2002h-2002v2002h2002zM363.5 231.5q-0.5 -10.5 -1.5 -18.5q-1 -18 -10 -28q-14 -15 -39 -15h-41v164h41q25 0 39 -15q9 -10 10 -26
q1 -8 1.5 -18t0.5 -21q0 -12 -0.5 -22.5zM398 266v12t-1 12t-1 12q-2 12 -7 22q-2 5 -5.5 10t-8.5 10q-10 10 -26 16q-14 5 -32 5h-80v-226h80q18 0 32 5q16 6 26 16q9 10 14 21q5 10 7 23q0 6 1 12t1 13v12v13v12zM658 139v31h-110v68h94v30h-94v66h110v31h-144v-226h144z
M930 230q-5 12 -13 20q-4 3 -8 5.5t-9 4.5t-11.5 3.5t-13.5 3.5l-26 3q-9 2 -15 4.5t-11 6.5q-4 4 -6 9t-2 12q0 15 10 25q11 10 31 10q14 0 27 -3q6 -2 11.5 -5.5t10.5 -8.5l22 21q-7 7 -15 12t-16 8q-16 6 -39 6q-9 0 -17 -1t-15 -4q-14 -4 -23 -13q-10 -9 -15 -22
q-6 -12 -6 -26q0 -28 17 -43q15 -15 43 -18l27 -4q5 -1 8.5 -2t6.5 -2q4 -2 9 -6q9 -8 9 -23q0 -17 -12 -26t-34 -9q-18 0 -32 5q-14 4 -26 17l-23 -23q16 -17 35 -23q9 -4 20.5 -5.5t24.5 -1.5q17 0 33 5q7 2 13.5 5t11.5 8q11 8 17 21q6 12 6 28q0 14 -5 26zM1140 139v226
h-34v-226h34zM1473 261h-82v-29h48v-13q0 -11 -3 -19q-1 -4 -3 -8t-6 -8q-6 -8 -16 -12q-9 -4 -20 -4t-19 4q-9 3 -15 10q-4 4 -7 9q-1 3 -2 6.5t-2 6.5q-1 7 -2 20v12.5v15.5v16v13q1 11 2 19q2 8 4 13q2 2 3.5 4.5t3.5 4.5q3 3 7 6t8 4q9 4 19 4q19 0 31 -10
q12 -11 16 -29h35q-3 14 -9 27q-3 7 -7.5 12.5t-9.5 9.5q-10 10 -24 15q-15 6 -32 6q-18 0 -33 -6t-27 -18q-8 -8 -12 -18q-3 -4 -4.5 -9t-2.5 -11q-1 -5 -1.5 -11t-0.5 -13q-1 -13 -1 -29t1 -29q0 -7 0.5 -13t1.5 -11q1 -6 2.5 -11t4.5 -9q4 -10 12 -18q12 -11 27 -18
q15 -6 33 -6t33 6q8 3 15 8t14 12q5 6 9 12.5t6 14.5q5 15 5 37v34zM1745 139v226h-34v-159l-105 159h-31v-226h34v159l104 -159h32z" />
    </font>
</defs>
</svg>
