<svg xmlns="http://www.w3.org/2000/svg" width="45" height="48" viewBox="0 0 45 48">
  <defs>
    <style>
      .cls-1 {
        fill: #7c7c7c;
        fill-rule: evenodd;
      }
    </style>
  </defs>
  <path class="cls-1" d="M118.1,529.579a1.155,1.155,0,0,0-1.151,1.159v29.5a3.433,3.433,0,0,1-3.418,3.441H93.474a3.433,3.433,0,0,1-3.418-3.441v-29.5a1.151,1.151,0,1,0-2.3,0v29.5A5.746,5.746,0,0,0,93.474,566h20.052a5.746,5.746,0,0,0,5.72-5.758v-29.5A1.155,1.155,0,0,0,118.1,529.579Zm6.754-5.415H110.833v-1.776A4.379,4.379,0,0,0,106.474,518h-5.948a4.379,4.379,0,0,0-4.358,4.388v1.776H82.151a1.159,1.159,0,0,0,0,2.318h42.7A1.159,1.159,0,0,0,124.849,524.164ZM98.47,522.388a2.065,2.065,0,0,1,2.056-2.07h5.948a2.065,2.065,0,0,1,2.056,2.07v1.776H98.47v-1.776Zm12.363,34.619V534.828a1.152,1.152,0,1,0-2.3,0v22.179A1.152,1.152,0,1,0,110.833,557.007Zm-12.363,0V534.828a1.151,1.151,0,1,0-2.3,0v22.179A1.151,1.151,0,1,0,98.47,557.007Z" transform="translate(-81 -518)"/>
</svg>
